<svg id="ede729a8-3413-4745-af61-5639702330a9" data-name="Layer 1" xmlns="http://www.w3.org/2000/svg" viewBox="0 0 485.3 441.6"><defs><style>.b918298f-d8cb-4393-88e8-4e8679bc12c1{fill:#b9c7d4}.ef4ff7d1-b990-41ab-9922-588b011565b5{fill:#d4dde5}.b4a9f40b-d48c-407a-bdc5-705245616d39{fill:#f2f4f7}.a73991b0-9b7d-4e3b-9339-1563b5b79e92{fill:#d7dfe7}.bc8954a8-c259-4d35-8a54-f8ecedb9bd10{fill:#f3f5f7}.a8c536b2-da67-4b35-9a5e-e62bd9a88cd1{fill:#d58954}.b8fc6477-a209-4bb0-8907-6ca677f93554{fill:#c6d2dc}.b2c3b7ce-9633-42f5-b733-894092155265{fill:#e4e9ed}.eacf2f08-5062-4619-aee0-b8b4c6875889{fill:#e3e8ed}.e2983fb7-a275-42f4-918d-8a6c0a0fbfbc{fill:#eaeef2}.e2e5ca3f-3bca-4288-88d2-626617b7e2c1{fill:#ecb895}.b8236e27-06a1-4f6a-bcc9-bc9c6a2d7181{fill:#03a891}.ba088c80-c8d2-4ed7-aeff-90cc42bdaad3{fill:#029883}.a7042157-827c-4a21-b283-89c1eff459ec{fill:#60738d}.b55c002f-74f5-421f-9ad5-e53f8c594453{fill:#a7b5c8}.bef8f20b-3493-4b14-9cb7-04cfcccb7963{fill:#ccc0c0}.be530cbd-f89a-4d06-a317-270ea9774daa{fill:#f4a264}.a7cdb415-af27-42ee-8ba9-d794a5e65052{fill:#fcfdfd}.bb08cfde-e07b-4d05-b396-ddb020f41760{fill:#daa17d}.ab6f7853-cdb5-4c41-be82-2a0a7ade8076{fill:#e1e6ea}.b06b5fa4-a842-4fbb-b340-ec6d31bd6832{fill:#9adcd2}.beee333e-4a6b-4c03-ba0b-3e9045311c25{fill:#a3dfd6}</style></defs><path class="b918298f-d8cb-4393-88e8-4e8679bc12c1" d="M134.6 291.7c9.3.3 55.4 0 56 0s14 3.4 14 3.8c.2 3.3 7 19.9 3.1 23.1a75.7 75.7 0 0 1-20.6 3.2c-4.5 0-9.1.2-13.7.1l-34.3-.8c-1.4-6.3-4.7-22.8-4.5-29.4Z"/><path class="ef4ff7d1-b990-41ab-9922-588b011565b5" d="M248.4 248.7c-2.8 2.3-9.4 8.1-12.3 10.4l-1.4.5c-3.4 1.6-4.8 1.8-6.6 0-3.3 4.4-10.7 12.8-10.2 13.5 2.1 2.9 1.7 6.3 1.7 9.6l-.4 15.5-.8 2.4-2 2-6.8 7.5-1.5-9a20.9 20.9 0 0 0 .1-2.5c.6-.5.8-.7.4-.6l-.4.3v.3a96 96 0 0 1-5.8 4.2l1.3 11.3a43.5 43.5 0 0 1-17.3 2.4 32.1 32.1 0 0 1-.7-4.3 2.4 2.4 0 0 1 .7-1.9c3.6-1.6 3.9-4.6 3.7-7.9v-1.2l3.1-.4c3-6.6 7.3-15 7-16.8-2.5-14.9-.7-28.8-2.9-43.8-1-6 .9-4-5.4-3.9-9.9.1-20.6-4.5-30.5-4.6l-2.6 1.4c-8.3 1.5-38.9-1.8-40.3-.6h.1l-.9.6a.5.5 0 0 1-.4.2c-1.5-1.8-2.4-3.8-1.6-6.2s3-6.4 4.4-9.6l12.9-32a12.5 12.5 0 0 1 1.6-2.4c3-1.5 5.6-6.8 8.8-7.5 5.9-1.3 13.2-1.3 19.2-1.6s13 .2 19.7.4c3.3.1 6.1-.2 9.4 0s8.3.1 11.1.7c5.1 1 44.7 72.9 45.6 73.6Z"/><path class="ef4ff7d1-b990-41ab-9922-588b011565b5" d="M208.2 298.6v-.3l.4-.3c.4-.1.2.1-.4.6Z"/><path class="b4a9f40b-d48c-407a-bdc5-705245616d39" d="M115.7 227.1a30.1 30.1 0 0 0-4.2-.5c-26.9 0-53.8.2-80.7-.1a27.5 27.5 0 0 1-27.2-25.4A28.4 28.4 0 0 1 7 183.6a27.7 27.7 0 0 1 22.5-14.9c2-.3 2.6-.8 2.7-2.8.3-12.2 4.3-23 13.4-31.4a41.4 41.4 0 0 1 22.7-10.9 41 41 0 0 1 28.8 6.1 37.1 37.1 0 0 1 13.6 14.2c1 1.7 1.8 1.8 3.4 1a35 35 0 0 1 47.7 18.5l1.3 2.7-.4 3.5c-6.6.3-13.1 1.1-19.2 3.7a15.5 15.5 0 0 0-8.9 9.8 12.5 12.5 0 0 0-1.6 2.4l-12.9 32-4.4 9.6Z"/><path class="a73991b0-9b7d-4e3b-9339-1563b5b79e92" d="m389.8 59.1 19.9-5.2c5.9-1.6 11.6-3.4 17.4-5.1s12-3.7 18.1-5.1a42.7 42.7 0 0 1 9.4-.8c2.8-.1 4.6 1.7 5.3 4.4l-4.2 1.4-19.4 5.8-23.9 6.8-20.7 6.1-11.6 3.8a29.4 29.4 0 0 1-4.2 0 19.2 19.2 0 0 1-5.5-1.1c-2.3-1.1-.4-3.3-.8-5l14.5-4a54.9 54.9 0 0 0 5.7-2Z"/><path class="bc8954a8-c259-4d35-8a54-f8ecedb9bd10" d="M153 26.2a26.9 26.9 0 0 1 4.9-14.1A27.7 27.7 0 0 1 180.2 0a28.5 28.5 0 0 1 18.9 6.4 2.6 2.6 0 0 0 3.2.4C212 3 222 6.1 227.2 15a11.3 11.3 0 0 0 7.2 5.6 18.6 18.6 0 0 1 13.3 15.5 4.5 4.5 0 0 0 2.2 2.5 17.1 17.1 0 0 1 12.3 17.6 17.4 17.4 0 0 1-13.3 15.2 10.6 10.6 0 0 1-2.5.2h-107c-10.2 0-18.3-11.1-15.3-20.8s8.3-12.6 17.4-12.7c1.1 0 2.8.5 2.6-1.6-.7-6.9 2.8-9.3 8.9-10.3Z"/><path class="b918298f-d8cb-4393-88e8-4e8679bc12c1" d="M433.6 270.6v8c0 4 0 4-4 4.9V426h-11.9l-.1-16.1c0-1.1-.3-2.2-.4-3.3V285.1c.1-2-.6-2.6-2.5-2.5h-13.3c-1.7 0-2.4.4-2.3 2.2l.1 9.3v112.5l-.1 19.4h-11.9l-.2-19.5a3.1 3.1 0 0 0 .1-1V285.4a21.5 21.5 0 0 0-.2-2.3c-2.1-.2-4-.4-5.9-.4H219.6c0-3.3.4-6.7-1.7-9.6a11.1 11.1 0 0 1-1.2-3c-3.8-11.5-5.6-23.3-7.5-35.1l-.6-5.9c2.6 4.1 4.8 8.2 6.9 12.3s5.1 7.7 4.1 12.7.1 9.3 0 14c-.1 2 .6 2.5 2.5 2.5h211.5Z"/><path class="a8c536b2-da67-4b35-9a5e-e62bd9a88cd1" d="M114.2 254.1a65.7 65.7 0 0 0-1.2-8.9 10.9 10.9 0 0 1 3.8-11.1 2.2 2.2 0 0 0 .5-.8.5.5 0 0 0 .4-.2l.9-.6h-.1c3.3-.8 6.6-2.3 9.9-2.3 20-.2 39.9-.1 59.9-.1a12.8 12.8 0 0 1 12.2 10c1 5.8 1.8 11.6 2.6 17.4 1.1 7.8 2.3 15.5 3.3 23.3l2.2 17.2-.4.3-6.1 1.4-12 1.5h-1.7c-8.3.7-16.7 1.7-25 1.8s-18.5-.4-27.8-.7l-3.4-.3-6.6-1.3-1.4-.5c-2.7-.3-3.5-1.8-3.7-4.5-.4-4.3-1.3-8.6-2-12.9l-1.9-12.1Z"/><path class="bc8954a8-c259-4d35-8a54-f8ecedb9bd10" d="M416.1 69c-3.1 1.3-6.2 2.7-9.4 3.8-10.7 3.8-21.6 7.4-32.4 11l-31.7 10.4c-3.8 1.2-7.8 2-11.7 3.1-.8.2-1.5 1.1-2.4 1.3a15.7 15.7 0 0 1-3-.5 12.8 12.8 0 0 1 .8-3.5c.2-.5 1-.8 1.6-1l26.1-8.9L392 72c.7-.2 1.2-.9 1.7-1.4l7.2-1.2c.9.5 1.8 1.4 2.5 1.3s3.5-1.3 5.2-1.6 5-2.5 7.5-.1Z"/><path class="ef4ff7d1-b990-41ab-9922-588b011565b5" d="M224.6 185.6c1.9-24 3.1-48 4.6-71.9 1.6-6.4-2.4-19.7 7.3-19.6h159.6c2.7 0 5.1.4 7 2.4l-1.4 26.8q-1.6 34.7-4 69.3c-.5 7.2-.7 14.4-1.1 21.6-.2 2.8-.6 5.6-1 8.4-1.9 2.2-4.3 2.6-7.1 2.6H245.2l-8.6-16h33a310 310 0 0 1-2.5 10.3c-.5 1.6-.1 2.2 1.5 2.2h27.6a3.3 3.3 0 0 0 2.3-1.4c1.2-3.6 2.1-7.3 3.1-11h81.5c4.6 0 4.7 0 5-4.5l2.5-32.9c1-22.8 3.5-45.4 4.5-68.1l-52 .5-66.2.5h-36.8c-.6.1-1.8.7-1.9 1.2-2.5 30.9-4.4 61.9-6.6 92.8a30.7 30.7 0 0 1-7-13.2Z"/><path class="b918298f-d8cb-4393-88e8-4e8679bc12c1" d="m402.5 69.2-6.4 1-16 1 11.6-3.8 20.7-6.1 23.9-6.8 19.4-5.8 4.2-1.4c.6 2.2-.7 3.6-2.4 4.3-5.6 2.4-11.3 4.6-17 6.8-3 1.1-6.2 1.9-9.4 2.9a3.7 3.7 0 0 0-4.4-1.3c-3.6 1.1-7.2 2-10.8 3.2-.7.2-1.7 1.2-1.7 1.8s-1.1 1.5-2.2 1.8ZM389.8 59.1a54.9 54.9 0 0 1-5.7 2l-14.5 4-5.4-8.8-1.9-3.2-2.1-4.3c3.5-2.4 6.5-1.4 9.5.9s6.7 4.5 10 6.9 5.1 2 7.9 2.2Z"/><path class="b4a9f40b-d48c-407a-bdc5-705245616d39" d="M407.7 135.6c1.9 1.3 2.4 5 5.2 3.4 16.6-8.3 38.3.7 43.7 18.6.7 1.8 1.5 2.4 3.5 2.6 12.6 1 23 9.7 24.9 22.6 1.2 8.9-1.2 17-8.2 23.5a27 27 0 0 1-19.2 7.3h-54.5l1-15.7Z"/><path class="b8fc6477-a209-4bb0-8907-6ca677f93554" d="m402.5 69.2 9.5-2.4c1.1-.3 2.1-.2 2.2-1.8s1-1.6 1.7-1.8c3.6-1.2 7.2-2.1 10.8-3.2a3.7 3.7 0 0 1 4.4 1.3c0 2.5-1.4 3.6-3.7 4.2l-11.3 3.1c-2.3-1.9-4.5 0-6.7.3s-3.1 1.1-4.7 1.3-1.4-.7-2.2-1Z"/><path d="M204.1 145.1c-.5 2.8-1 5.5-1.3 8.3a3.8 3.8 0 0 0 .6 2.3c2.7 3.7 1.7 7.8-2.8 9.3s-7.3 1.1-11 1.6h-1.5c-.5-2.1 0-3.2 2.2-4.2a13.6 13.6 0 0 0 8.6-10.8c1-7.3 1.3-14.7 1.7-22.1a3.1 3.1 0 0 0-1.7-2.5 3.8 3.8 0 0 0-3 1.5 26.2 26.2 0 0 0-1.3 5l-1.3-1.2-2.7 11.3-1.1 2.4c-1.9 3.1-3.5 6.7-7.8 6.6s-6.9.8-9.4 3.8a27.5 27.5 0 0 0-4.4-3.1 20.2 20.2 0 0 0-4.2-1.2c-5.4-3.4-7.1-8.9-7.9-14.7a87.8 87.8 0 0 1 .3-26.1c1.9-10.9 8.6-16.2 19.8-15.8 7.3.2 14.3 2.1 21.3 4.2a4.9 4.9 0 0 1 1.6.5c5.3 2.8 10.1 1.6 14.6-1.9l1.7-1c3 6.1-1.1 16.1-8 19.8-3.2-.5-3.8-.2-3.9 3-.3 7.7-.4 15.4-.4 23.1 0 .7.8 1.3 1.3 1.9Z" style="fill:#6e0a0e"/><path class="b4a9f40b-d48c-407a-bdc5-705245616d39" d="M126.1 441.6H3.9c-3.2 0-3.4-.3-1.9-3.2s4-7.2 5.8-10.8 1-4.8-1.5-6.7a8.9 8.9 0 0 1-3.7-6.5 9.5 9.5 0 0 0-1.2-3.7c-3.3-6.4-.4-7.8 4.6-10a9.5 9.5 0 0 1 4.1-.6h34.5a23.5 23.5 0 0 1-.5 3.7c-.3.7-1 1.6-1.6 1.7l-15.2 1.6a93.6 93.6 0 0 0-10.6 1.7c-.9.2-1.6 1.8-1.9 2.9s1 1.7 1.7 1.8c3.3.5 6.6.9 9.9 1.1s2.8.9 2.7 2.9v5.2a2 2 0 0 0 2 2.4c4.7.3 9.5.9 14.3.9 15.2.2 30.5.1 45.7.1h1.5l.2 2.8h12.3v-2.8h21l-1.8 9.6c-.2 1.2-1.3 3.1 1.3 3.4a22.1 22.1 0 0 1 .5 2.5Z"/><path class="a73991b0-9b7d-4e3b-9339-1563b5b79e92" d="m362.3 53.1 1.9 3.2a24.6 24.6 0 0 1-4.5 1.1c-.9.1-1.7-.6-2.6-.9s.9-1.8 1.7-2.2a18 18 0 0 1 3.5-1.2Z"/><path class="b918298f-d8cb-4393-88e8-4e8679bc12c1" d="M105.1 426.1v2.8H92.8l-.2-2.8v-26l.1-83v-31.7c0-1.9-.5-2.5-2.4-2.4s-5.3-.2-8.1-.3v-12.1h34.4l1.9 12.1h-13.3c-.2 2.1-.5 3.9-.5 5.7V397l.1 3a24.4 24.4 0 0 0-.1 2.7 308.3 308.3 0 0 0 .4 23.4Z"/><path class="b2c3b7ce-9633-42f5-b733-894092155265" d="M384.6 270.5h-118l7.5-8 3.1-3.4 15.4-4.6h7.5c1.7 0 3.4-.3 5.1-.4h31.6a10.3 10.3 0 0 0 2.4-.5h23.4c.3.2.6.7.9.7l4.4-.2 2.5-.3 6.9.7 2-.5h5.4l-.1 16.5ZM236.6 209.1l8.6 16 1.4 3 4.2 7.8a65.6 65.6 0 0 1 2.3 6.2 30.3 30.3 0 0 1-8.5 10c-.9-.6-2.1-1.1-2.6-1.9l-15.2-28.9-17.3-33.9c-2.1-4.1-4.3-8.5-9.5-9.5a58.3 58.3 0 0 0-8.4-.8l-9.9-.5c-6.7-.2-13.3-.7-19.9-.4a99.8 99.8 0 0 0-18.1 2.5c-3.2.7-6.1 2.9-9.1 4.4a15.5 15.5 0 0 1 8.9-9.8 54.6 54.6 0 0 1 19.2-3.7c-.2 1.7.9 2.3 2.2 2.4a88.8 88.8 0 0 0 10.3.5 24.3 24.3 0 0 0 6-1c2.2-.5 4.3-1.3 6.4-1.9 8.6.4 17.1.9 25.4 3.5 4.7 1.5 7 5.3 9.1 9.3 4.1 4.7 4.5 12.1 9.5 16.2l5 10.5Z"/><path class="eacf2f08-5062-4619-aee0-b8b4c6875889" d="m387 406.5.2 19.5h-49.6a15.9 15.9 0 0 0-3 .6c-3-.8-6-2-9-2.5-6.5-1.2-13.1-1.5-18.3-6.3-1.6-1.4-3.5-2.5-5.2-3.8l-.2-7.4H387Z"/><path class="e2983fb7-a275-42f4-918d-8a6c0a0fbfbc" d="M126.1 441.6a22.1 22.1 0 0 0-.5-2.5h3c2.7.5 3.8-.6 4.2-3.3s1.5-6.8 2.3-10.2c1.1.1 2.3.5 3.4.5h63.6l-1.3 8.8c-.5 2.9-.4 3.6 2.9 4.3l1.9.4h3l1.1.5 1.1-5.5c.3-1.8-.2-1.1-.1-1.6l1.5-6.3 2.9-.6v15.5Z"/><path class="a73991b0-9b7d-4e3b-9339-1563b5b79e92" d="m384.6 270.5.1-16.4h53.4c4.6 0 9.2.4 13.7.4 1.5.1 1.9.7 1.8 2v11.8c.1 1.4-.5 1.8-1.9 1.8l-18.1.5Z"/><path class="e2983fb7-a275-42f4-918d-8a6c0a0fbfbc" d="M91.1 426.1c-15.2 0-30.5.1-45.7-.1-4.8 0-9.6-.6-14.3-.9a2 2 0 0 1-2-2.4v-5.2c0-1.7-.7-2.8-2.7-2.9s-6.6-.6-9.9-1.1c-.7-.1-1.9-1.4-1.7-1.8s1-2.7 1.9-2.9a93.6 93.6 0 0 1 10.6-1.7l15.2-1.6c.6-.1 1.3-1 1.6-1.7a23.5 23.5 0 0 0 .5-3.7h34c-.5.5-1 1.3-1.5 1.4s-3.2.4-3.1 2.8c0 .4-1.1 1.2-1.8 1.2l-14.6 1.6-15.5 1.3c-1 2.3 0 3.5 1.6 3.9a41.4 41.4 0 0 0 9.2 1.7c7.3.3 14.5.1 21.8.1 2.4 0 3.4 1 3.4 3.5a33.8 33.8 0 0 1 0 4.5c-.1 1.5.5 2 2 2a70 70 0 0 1 7.9.6 9.6 9.6 0 0 1 3.1 1.4Z"/><path class="b2c3b7ce-9633-42f5-b733-894092155265" d="M116.6 270.6H58.2c-2.1.1-2.7-.6-2.6-2.7v-11.2c-.1-2.1.6-2.7 2.7-2.6h55.9Z"/><path class="b918298f-d8cb-4393-88e8-4e8679bc12c1" d="m407.7 135.6-3.6 62.3-1 15.7c-.2 2.8-.2 5.5-.6 8.3a14.3 14.3 0 0 1-1.3 3.8l-5.6-3.1c.4-2.8.8-5.6 1-8.4.4-7.2.6-14.4 1.1-21.6q2.4-34.7 4-69.3l1.4-26.8c1.6 1.1 3.4 1.9 4.7 3.2 4.1 6.6-.8 26.7-.1 35.9Z"/><path class="e2e5ca3f-3bca-4288-88d2-626617b7e2c1" d="M187.6 169.6c-2.1.6-4.2 1.4-6.4 1.9a24.3 24.3 0 0 1-6 1 88.8 88.8 0 0 1-10.3-.5c-1.3-.1-2.4-.7-2.2-2.4l.4-3.5.6-14a20.2 20.2 0 0 1 4.2 1.2 27.5 27.5 0 0 1 4.4 3.1c-.3 0 0 .1 0 0 2.5-3 5.6-3.9 9.4-3.8s5.9-3.5 7.8-6.6l1.1-2.4 8.1.6.2-.8c-3.3-.7-4.1-3.1-4.3-5.9v-4a26.2 26.2 0 0 1 1.3-5 3.8 3.8 0 0 1 3-1.5 3.1 3.1 0 0 1 1.7 2.5c-.4 7.4-.7 14.8-1.7 22.1a13.6 13.6 0 0 1-8.6 10.8c-2.2 1-2.7 2.1-2.2 4.2s-.3 2-.5 3Z"/><path class="b2c3b7ce-9633-42f5-b733-894092155265" d="M91.1 426.1a9.6 9.6 0 0 0-3.1-1.4 70 70 0 0 0-7.9-.6c-1.5 0-2.1-.5-2-2a33.8 33.8 0 0 0 0-4.5c0-2.5-1-3.5-3.4-3.5-7.3 0-14.5.2-21.8-.1a41.4 41.4 0 0 1-9.2-1.7c-1.6-.4-2.6-1.6-1.6-3.9l15.5-1.3 14.6-1.6c.7 0 1.8-.8 1.8-1.2-.1-2.4 1.2-2.8 3.1-2.8s1-.9 1.5-1.4h14v26Z"/><path class="b8236e27-06a1-4f6a-bcc9-bc9c6a2d7181" d="M222.3 419.8a796 796 0 0 0-6.1-37.1c-1.7-9.1-6.6-17.9-5.5-26.8.3-2.9-.9-8.4-.5-11.3 5.3 0 21.8-2.1 27.1-2l5.1 43 2.8 21 .5 7a.5.5 0 0 0-.2.4l-2.7 2-11 3.1Z"/><path class="eacf2f08-5062-4619-aee0-b8b4c6875889" d="M215.1 441.6v-15.5l-2.9.6-1.5 6.3c-.4 2 .2 1.1.1 1.6l-1.1 5.5-1.1-.5a14.6 14.6 0 0 0 .5-2l4.1-32.3c0-.4.6-.8.9-1.2l1.3 10.6 3.2 20.9c.5 3.5.3 3.5 3.8 3.5h1.2c1.4.1 3 .6 3.5-1.5l42.1-1c3.2 0 6.3 0 9.6 1.2s7.9.6 11.9.7l5.4.6 3-1 36.5-1.1-.6 4.6Z"/><path class="ba088c80-c8d2-4ed7-aeff-90cc42bdaad3" d="M230.1 331.1Z"/><path class="a7042157-827c-4a21-b283-89c1eff459ec" d="M302.1 414.1c1.7 1.3 3.6 2.4 5.2 3.8 5.2 4.8 11.8 5.1 18.3 6.3 3 .5 6 1.7 9 2.5s2.3 4.2 1.8 6.7c-1 .2-1.9.5-2.9.6l-34.8 1c-.3-1.9-.7-3.7-.9-5.6l-.5-8.2a4 4 0 0 0 2.5-4l-3.7 1v-1.1Z"/><path class="b55c002f-74f5-421f-9ad5-e53f8c594453" d="m395.6 222.6 5.6 3.1c-1.5.8-3 2.1-4.6 2.2a108.4 108.4 0 0 1-11.4.2h-37.5l.9 7h-3.9a145 145 0 0 1-1.3-7h-5.6c0-1.5-1-1.6-2.1-1.6s-2.6-.2-2.7 1.6h-86.4l-1.4-3h143.3c2.8.1 5.2-.3 7.1-2.5Z"/><path class="eacf2f08-5062-4619-aee0-b8b4c6875889" d="m399.1 426 .1-19.4h18c.1 1.1.4 2.2.4 3.3l.1 16.1Z"/><path class="b918298f-d8cb-4393-88e8-4e8679bc12c1" d="m298.7 435 34.8-1c1-.1 1.9-.4 2.9-.6s-.6 2.4-.8 3.6l-36.5 1.1-.4-3.1Z"/><path class="e2e5ca3f-3bca-4288-88d2-626617b7e2c1" d="M204.1 145.1c-.5-.6-1.3-1.2-1.3-1.9 0-7.7.1-15.4.4-23.1.1-3.2.7-3.5 3.9-3-.5 5-1 10-1.3 15a25.8 25.8 0 0 0 .6 7.3c.5 2.6.4 4.6-2.3 5.7Z"/><path class="b8236e27-06a1-4f6a-bcc9-bc9c6a2d7181" d="M383.3 228.1h1.9a45 45 0 0 1-5.9 25.9l-2 .5c.2-.6.1-1.2.5-1.7 4.5-7.6 6-16 5.5-24.7Z"/><path class="ba088c80-c8d2-4ed7-aeff-90cc42bdaad3" d="M293.3 340.2c-.9 0-19-5.4-19.9-5.4H232l-12.4-1.7h-3.4c-.2-.1-1.1-2.2-1.3-2.2-13.6-.3-28.3 2.2-34.9 2.2-11.2 0-22.8 1.7-33.9 1.7a35 35 0 0 1-7-13.7l34.3.8c4.6.1 17-.7 21.6-.8 1.1 2.2 88.3 2.4 88.3 2.4 3.7 0 9.2 14.1 10 16.7Z"/><path class="bef8f20b-3493-4b14-9cb7-04cfcccb7963" d="m277.2 259.2-3.1 3.4-7.5 8h-44.5c-1.9 0-2.6-.5-2.5-2.5v-14c3.1-.5 5.1.8 6.8 3.3 2.8 4.1 3.9 4.2 8.3 2.2a4.8 4.8 0 0 1 1.4-.5 18.1 18.1 0 0 0 2.1 1.8c2.6 1.6 5.1 4 8 4.6 6.6 1.6 13.2.1 19.5-2.3l3.3-.8Z"/><path class="b55c002f-74f5-421f-9ad5-e53f8c594453" d="m204.6 318.6-.9-4.5a704 704 0 0 1-1.6-14.4l6.1-1.4a26.2 26.2 0 0 1-.1 2.8c-2.2.1-3.3 1.1-2.9 3.5.9 5.2 1.4 10.6 2.5 15.8s3 11.3 4.6 16.9c.3.9 1.3 1.7 2.2 2.9l1.7-3.2 1-.8a11.6 11.6 0 0 1 7.9-1.6c-3 1.3-5.3 3.2-5.9 6.5l-2.1 15.3-2.6 19.4-3.4 23.2-3.2 22.1-2.3 18.5-1.9-.4c-3.3-.7-3.5-1-2.9-4.3s.9-5.9 1.3-8.8l1.6-12.5 1-7 4.4-29.7a19.7 19.7 0 0 0 .2-4.2l-3.7-25.5h6.2c.6-.1 1.6-.7 1.7-1.2a16.8 16.8 0 0 0 .5-4c-2.8-.5-3.8-2.7-4.8-4.9s-1-2.6-1.5-3.9l-.9-2.9-.7-3.6Z"/><path class="be530cbd-f89a-4d06-a317-270ea9774daa" d="m118.5 232.5 4.6-3.9 10.6-1.2h3.2c18 0 36 .2 54-.1 6.2-.1 11.9 5.3 12.8 11.3 2.2 15 4.8 29.9 7.2 44.8.5 2.8.9 5.7 1.2 8.6a5.3 5.3 0 0 1-3.5 5.9l-2.2-17.2c-1-7.8-2.2-15.5-3.3-23.3-.8-5.8-1.6-11.6-2.6-17.4a12.8 12.8 0 0 0-12.2-10c-20 0-39.9-.1-59.9.1-3.3.1-6.6 1.6-9.9 2.4Z"/><path class="b55c002f-74f5-421f-9ad5-e53f8c594453" d="M139.7 340.8c-4.1.5-6-.4-7.2-4.4-1.9-6.5-3.4-13.1-4.7-19.8s-1.5-10.6-2.2-16l6.6 1.3-.1.7c-2.5 0-3.4 1.2-2.9 3.6l4 22.9c.4 1.9 1.2 3.8 1.8 5.7l2.2-3.8.6 1.1-.7 3.4Z"/><path class="be530cbd-f89a-4d06-a317-270ea9774daa" d="m117.7 233.1.9-.6Z"/><path class="b8236e27-06a1-4f6a-bcc9-bc9c6a2d7181" d="M219.2 298.2h45.6c11.1 0 17.5 4 21.8 14.3 3.5 8.5 5 17.4 6.2 26.4-2.7-3.4-6-6-10.3-6.9-2.4-.5-4.9-.8-7.4-1.1-.8-2.6-3.7-4.2-7.4-4.2h-55.1l-2.4-12.7c3.7-3.9 6.7-8.1 8.2-13.3Z"/><path d="M265.7 263.2a32.8 32.8 0 0 1-19.5 2.3c-2.9-.6-5.4-3-8-4.6a18.1 18.1 0 0 1-2.1-1.8l8.5-7c3.4-2.9 6.6-5.9 8.5-10 1.8 3.5 3.4 7.2 8.5 5.1v10.5c-.1 3.5-.3 4.7 3.2 4.8.3 0 .6.4.9.7Z" style="fill:#d19872"/><path class="b8fc6477-a209-4bb0-8907-6ca677f93554" d="m210.2 313.9 2.4 12.7 1.1 3.9 2.5 6.5-1.7 3.2c-.9-1.2-1.9-2-2.2-2.9-1.6-5.6-3.4-11.2-4.6-16.9s-1.6-10.6-2.5-15.8c-.4-2.4.7-3.4 2.9-3.5l1.5 9Z"/><path class="b918298f-d8cb-4393-88e8-4e8679bc12c1" d="m133.7 227.4-10.6 1.2 2.2-8.1 4.8-16.2.5-1.2 3.1 24.3ZM210.2 313.9l-.6-3.8 6.8-7.5 2-2a32.3 32.3 0 0 1-8.2 13.3Z"/><path class="a7cdb415-af27-42ee-8ba9-d794a5e65052" d="m236.6 209.1-5-10.5c2.2-30.9 4.1-61.9 6.6-92.8.1-.5 1.3-1.1 1.9-1.2h36.8l66.2-.5 52-.5c-1 22.7-3.5 45.3-4.5 68.1l-2.5 32.9c-.3 4.5-.4 4.5-5 4.5H236.6Zm133.5-54.5c4.5-.5 9.6 1.5 13-2.2a13.7 13.7 0 0 0-6.6-3.5c4-5.9 10.6-12.6 6.6-20.3l4-2.7-.4-2.2 3.4-.2c-.6-2.8 2.8-12.5-1.3-11.9h-95.6c-3.4-.2-3.4 0-3.6 3.3l-1 18.1-2.4 29.7c-.5 5.8-.7 11.6-1.1 17.3l-.9 8.7-.6 12.2h3.1c3.6 0 7.3.2 10.9 0a4.2 4.2 0 0 0 2.8-1.4c2.7-3.5 5.2-7.1 7.7-10.6l4-2.1c2.4 1.2 4.3 2.7 7.2 2 5.9-1 14.2-1.4 19.4 1.2-1.3 2.5 1.4 2.9 2.2 4.2 1.8 3.1 4.3 5.5 8.6 3.9s9.2 1.4 13.8-.6c.4-.2 1.1.3 1.7.3 5-.4 11.3 1.3 9.3-6.2-14.7-.2-7-12.8-15.2-6.6 0-.2-.1-.5 0 0s-.1-.2 0 0l-.3 1.6 1.9 1-2.2 3.3c-2.2-.6-2.7-1.8-1.7-2.9l-3.2-3.5c1.8-3.2-1.5-4-3.6-5.6 3.6-5.9 10.4-13 4.8-19.9 4-.3 2.6-4.6 4.6-6.6l2 1.5c.1-.8.4-1.4.2-1.8-1.8-4 3.6-2.8 5.7-4l-.3-1c-9.4 2.8-10.9-1.7-4.6-8.5-1.9-1-2.7-.5-3.5.9-1.2 2.9-5.8 5-3.6 8.5a2.3 2.3 0 0 1 .1 1.8c-2.7 1.8-2.3 7.5-6.7 6.6a41.8 41.8 0 0 1-.7-7.2c-6.6 5.3-7.5-2.2-3.8-5.7 9.1-2.3 11.5-16.9 21.9-14.5-3.7 7 1.1 13.6 4.2 19.7l-7 3.4c2.2 2.5 4.6 3.2 6.8 2.5Zm9.5 15.5-4.8 2.1 2.1 1.5-2.2 1.7c-1-2-2.9-5.4-4.9-2.6s-5.5 6.7-1.9 8.9c6-.3 11.8-2.7 18-1.8 1.6-5.2-2.9-4.1-5.8-6.5l-.4-3.3c-.1-1 1-.2.6-.7Zm-132.5 5.5c6.9 1 6.1-2.1 6.6-7.6s-4.3-2.5-6.9-2.9c-6.3-.7-4.6 1-5.6 6s1.8 4.4 5.9 4.5Zm-7 12.5c4-.7 9.6 1.6 11.9-1.5-.1-2.7 2.1-7.5-.9-8.9-11.7-.5-10.5-1.2-11 10.4Zm8.7-35.5c-7.6-1.2-6.2 2.8-6.7 8.5.1 4 6.9 1.1 9.7 2s2.4-.8 2.4-2.5c.1-6 2.7-8.8-5.4-8Zm12.8 10.5c7.9 1.1 5.8-3 6.5-8.8-.1-3.3-5.3-1.1-7.5-1.7-5.6-.8-4 2.8-4.9 6.8s2.4 3.5 5.9 3.7Zm6.5 12.5c4.1-.6 9.1 1.4 11.9-1.1.3-2.6.5-5.3.6-7.9a2 2 0 0 0-1.4-1.4c-11.8-.5-10.6-1.4-11.1 10.4Zm13.5-23h-10.5c-2.9 1.3-1.3 6.2-1.9 8.9 1.8 3.1 7.2.9 10.4 1.4.5 0 1.4-.7 1.4-1.1.3-2.9.4-5.8.6-9.2Zm-26.8 23c3.9-.6 8.9 1.4 11.7-1.1-.2-2.8 2.1-7.7-.8-9.3-11.5-.5-10.7-1.1-10.9 10.4Zm12.4 12.5c9.9-.6 12.9 3.3 12.4-8.9-1.7-3.1-6.9-1.2-9.8-1.5-3.7 1.6-1.8 6.8-2.6 10.4Zm-7.5 0c1.8-.2 4.9.8 5.9-1.3s2.5-9-1.3-9.2-10-2.2-10.2 2.7-1.6 8.8 5.6 7.8Zm18.5 11.8c-.6-3 2.6-10.2-1.6-10.3-10.8-.6-9.7.2-10.3 10.3Zm-33.3.2c1.9-.2 5.1.9 6.2-1.2s2.1-7.7-1-9.2c-3.1.3-8-1.5-10 1.4-.4 5.5-3.4 10.1 4.8 9Zm20.6-10.5c-3.3.6-9.9-1.5-11.8 1.3.4 2.6-2.6 9 1.3 9.2 11.5.4 9.6.6 10.5-10.5Zm16.6-49h-8.5c-.9-.1-2.5-.1-2.9.9.3 2.8-2.1 7.6 1 9a66.1 66.1 0 0 0 8.9 0 1.8 1.8 0 0 0 1.4-1.4c.2-2.7.1-5.4.1-8.5Zm-19.6 10c2.1-.4 6.6 1.4 6.1-2.1s1-6.4-.2-7.6-4-.3-6-.3-3.5-.4-4.7.3-.4 3.5-1 4.9c-1.4 5.4 1.5 4.8 5.8 4.8Zm-7.4-9.9h-11.4c.6 3-2.8 9.7 1.5 9.9 10.4.1 10.3 1 9.9-9.9Zm8.5-15.1h-17.4c-2.1 0-1.5 1.5-1.6 2.6-1.7 4.6 14 1.5 17.1 2.4s1.7-2.9 1.9-5Zm-.7 6.5h-16.8c-2.1-.1-2 1.1-2 2.5-1.1 4.8 11.8 1.6 15 2.5s4.3-.5 3.8-5Zm2.5-6.5c-.4 1.9-1.2 4 .6 4.9 5.4.1 10.8.2 16.2 0 2-.1 1.4-2 1.4-3.1s-.9-1.7-1.4-1.7Zm-.6 6.6c-.2 3.2-1.4 5.4 2.9 4.9h11.7c4 0 4.5-.8 3.3-4.9Z"/><path class="a73991b0-9b7d-4e3b-9339-1563b5b79e92" d="M269.6 209.1h32c-1 3.7-1.9 7.4-3.1 11a3.3 3.3 0 0 1-2.3 1.4h-27.6c-1.6 0-2-.6-1.5-2.2a254 254 0 0 0 2.5-10.2Z"/><path class="bb08cfde-e07b-4d05-b396-ddb020f41760" d="M194.6 133.5v4c.2 2.8 1 5.2 4.3 5.9l-.2.8-8.1-.6 2.7-11.3Z"/><path class="ab6f7853-cdb5-4c41-be82-2a0a7ade8076" d="M104.8 400h26.3l-1.5 8.3-3.5 17.7h-21c-.2-3.3-.4-6.5-.4-9.8v-13.6a24.4 24.4 0 0 1 .1-2.6Z"/><path class="b55c002f-74f5-421f-9ad5-e53f8c594453" d="m126.1 426.1 3.5-17.7 1.5-8.3 8.4-41.2 3.2-16.3 7.9 2.2a13.3 13.3 0 0 1-.5 1.9l-4 20.4c-3.7 0-3.8.1-4.4 3.7l-5.7 30.5-7.4 37.8h-3c-2.6-.3-1.5-2.2-1.3-3.4l1.8-9.6Z"/><path class="bb08cfde-e07b-4d05-b396-ddb020f41760" d="M265.7 263.2c-.3-.3-.6-.7-.9-.7-3.5-.1-3.2-2.5-3.2-4.8v-10.5l8.9-.6 18.2.5 3.9.5v7l-15.4 4.6-8.2 3.2Z"/><path class="b8fc6477-a209-4bb0-8907-6ca677f93554" d="M350.2 246.1c3.4 0 6.7.1 10-.1s2.6.7 2.5 2.6a41.3 41.3 0 0 0-.1 5h-23.4a7 7 0 0 1 0-2.5c.2-2.1-.7-2.8-2.7-2.5l-5.4.5v-.6a15.5 15.5 0 0 1 2.1-.4c1.6.1 2.1-.5 1.9-2h15.1Z"/><path class="a7cdb415-af27-42ee-8ba9-d794a5e65052" d="M383.3 228.1c.5 8.7-1 17.1-5.5 24.7-.4.5-.3 1.1-.5 1.7l-6.9-.7 2.3-4.7a45.9 45.9 0 0 0 3.5-21Z"/><path class="b918298f-d8cb-4393-88e8-4e8679bc12c1" d="m331.1 249.1 5.4-.5c2-.3 2.9.4 2.7 2.5a7 7 0 0 0 0 2.5 10.3 10.3 0 0 1-2.4.5h-28.2l.2-2.9Z"/><path class="e2e5ca3f-3bca-4288-88d2-626617b7e2c1" d="M292.6 254.6v-7l9.5.9 1 .2c2.2 1.2 2.2 3.3 2.1 5.4-1.7.1-3.4.4-5.1.4Z"/><path class="ef4ff7d1-b990-41ab-9922-588b011565b5" d="M305.2 254.1c.1-2.1.1-4.2-2.1-5.4v-.6l28 .4v.6l-22.3 2.1-.2 2.9Z"/><path class="b8236e27-06a1-4f6a-bcc9-bc9c6a2d7181" d="M376.2 228.1c.2 7.2-.4 14.3-3.5 21l-2.3 4.7-2.5.3a42.5 42.5 0 0 0 6.4-26Z"/><path class="ba088c80-c8d2-4ed7-aeff-90cc42bdaad3" d="m302.1 414.1-5.9 3-.4-1.4c-2.5 1-5.2 4.2-5.1 5.2-3.7 0-9.9-1.8-13.6-1.8l-2.2-5.6c-.7-1.9-.9-4.6-1.4-6.9a2.2 2.2 0 0 0 0-.8l-11.3-62.5a146.7 146.7 0 0 1 15.1 0c7 .3 14.2 5.1 16.8 4.9l5.5 41.7 2.3 16.8.2 7.4Z"/><path class="b8fc6477-a209-4bb0-8907-6ca677f93554" d="m286.6 348.6 2.7 20.9 6.4 45.4a22.5 22.5 0 0 0 .5 2.2 3.7 3.7 0 0 0-.1 1.1l1.2 3 .5 8.2c.2 2.7.6 3.7.9 5.6l.4 3.1-3 1-.4-1.2-2.5-18.9-5.1-37.1-5.5-38.3c-.6-4.7-2.1-6-6.8-6h-48c-3.4 0-4.8 1.2-5.5 4.5l-.6 5c-.4 2.8-1 5.7-1.3 8.6-1.1 8.8-3.1 17.5-1.4 26.7 2.4 12.3 3.9 24.7 5.8 37.1l1.9 14.4.4 3.7c.1 1.2-2.1 1.6-3.5 1.5-.3-3.3-.6-6.7-1.1-10.1l-4.9-33.3-1.3-7.8a26 26 0 0 0-1.5 6.7c-.4 3.1-.5 6.3-.7 9.5-.3.4-.9.8-.9 1.2l-4.1 32.3a14.6 14.6 0 0 1-.5 2h-3l2.3-18.5 3.2-22.1 3.4-23.2 2.6-19.4a448 448 0 0 1 2.1-15.3c.6-3.3 2.9-5.2 5.9-6.5h52.7c4 0 6.7 2.5 7.4 6.6l1.4 7.4Z"/><path class="ab6f7853-cdb5-4c41-be82-2a0a7ade8076" d="m203.7 413.6-1.6 12.5h-63.6c-1.1 0-2.3-.4-3.4-.5l2-12Z"/><path class="b8fc6477-a209-4bb0-8907-6ca677f93554" d="m137.1 413.6-2 12c-.7 4-1.7 6.8-2.3 10.2s-1.5 3.8-4.2 3.3l7.4-37.8 5.7-30.5c.6-3.6.7-3.7 4.4-3.7l-4.5 23.4-3 16.1Z"/><path class="b55c002f-74f5-421f-9ad5-e53f8c594453" d="M271.1 337.7h4.7c4.7 0 6.2 1.3 6.8 6l5.5 38.3 5.1 37.1 2.5 18.9.4 1.2-5.4-.6-.4-3.9-2.2-15.5-.7-5.7-7.3-51.9c-.7-5-1.6-10.1-2.5-15.2l-.5-4.2c-.2-1.4-.6-2.1-1.3-2.5a32.9 32.9 0 0 0-4.7-2ZM214.1 404.1c.2-3.2.3-6.4.7-9.5a26 26 0 0 1 1.5-6.7l1.3 7.8 4.9 33.3c.5 3.4.8 6.8 1.1 10.1h-1.2c-3.5 0-3.3 0-3.8-3.5l-3.2-20.9-1.3-10.6Z"/><path class="b918298f-d8cb-4393-88e8-4e8679bc12c1" d="m290.3 434.6.4 3.9c-4-.1-8.3.5-11.9-.7s-6.4-1.2-9.6-1.2l-42.1 1-.4-3.7c4.8.2 9.6.6 14.4.6 9.2-.1 18.4-.7 27.6-.7 7.2 0 14.4.5 21.6.8Z"/><path class="ab6f7853-cdb5-4c41-be82-2a0a7ade8076" d="m297.3 421.2-1.2-3 3.7-1a4 4 0 0 1-2.5 4Z"/><path class="b918298f-d8cb-4393-88e8-4e8679bc12c1" d="m300.1 235.1-1.1-7h34l.2 2.6c3.9.8 4.2.6 4.6-2.6h5.6l1.3 7h-44.6ZM350.2 246.1h-3.6l-2-11h4l1.6 11Z"/><path class="a7042157-827c-4a21-b283-89c1eff459ec" d="M337.8 228.1c-.4 3.2-.7 3.4-4.6 2.6l-.2-2.6c-.1-.9 1.5-1.5 2.7-1.6s2.1.1 2.1 1.6Z"/><path class="be530cbd-f89a-4d06-a317-270ea9774daa" d="m286.6 348.6-1.4-7.3c-.7-4.1-3.4-6.6-7.4-6.6h-52.7a11.6 11.6 0 0 0-7.9 1.6l-1.6-5.1h56.6l2.9-.2c2.5.3 5 .6 7.4 1.1 4.3.9 7.6 3.5 10.3 6.9a16 16 0 0 1 1.3 9.4Z"/><path class="a8c536b2-da67-4b35-9a5e-e62bd9a88cd1" d="m150.6 344.8-7.9-2.2-3-1.8-2.6-5.3c2.8.6 5.6 1.5 8.5 1.5 14.2 0 28.4-.2 42.6-.4a54.2 54.2 0 0 0 19.5-3.5l1.5 3.9c.6 1.3 2 4.4 4.8 4.9a16.8 16.8 0 0 1-.5 4c-.1.5-1.1 1.1-1.7 1.2h-12.9c-16.1 0-32.3.2-48.3-2.3Z"/><path class="b8236e27-06a1-4f6a-bcc9-bc9c6a2d7181" d="M206.1 326.6c-4.6-.2-9.1-.2-13.6-.6-2.6-.2-4.2-2-5.4-4.2 6-.3 11.9-1 17.5-3.2Z"/><path class="e2983fb7-a275-42f4-918d-8a6c0a0fbfbc" d="M138.6 406.6h66.1l-1 7h-66.6Z"/><path class="be530cbd-f89a-4d06-a317-270ea9774daa" d="M144 330.1h62.8l.9 2.9a54.2 54.2 0 0 1-19.5 3.5c-14.2.2-28.4.4-42.6.4-2.9 0-5.7-.9-8.5-1.5l.7-3.4Z"/><path class="a8c536b2-da67-4b35-9a5e-e62bd9a88cd1" d="m215.6 331.1 1.6 5.1-1 .8-2.5-6.5Z"/><path class="b8fc6477-a209-4bb0-8907-6ca677f93554" d="m132.1 302.6 2.5 15.6c.9 5.2 1.7 8.6 2.6 12.8l-2.2 3.8c-.6-1.9-1.4-3.8-1.8-5.7l-4-22.9c-.5-2.4.4-3.6 2.9-3.6Z"/><path class="b06b5fa4-a842-4fbb-b340-ec6d31bd6832" d="M366.1 129.1c-10.4-2.4-12.7 12.2-21.9 14.5-3.6 3.5-2.8 11 3.8 5.7l.3 5.3-2.1 1h-.1l.7-3.3c-3.6.9-3.8 1.2-3.6 5.7-1.5 1.7-4.4 1.7-5.9 2.9s-2.8 1.8-4.7 1.7l1.2-2.3-.8-4.7c8.3-.6 7.6-4.8-.3-4.3 3.7-3.9 7-8.2 8.2-13.7 1.9-8.2-8.2-12.3-14.2-7.8l-.3-2a4.3 4.3 0 0 0-2.6 5.8l-.5 1.5h-23.7l1-15.6c0-.6-.6-1.2-.9-1.9s-.9 1.3-1 1.9l-1.1 15.6h-6l1.6-23.4h95.6c4.1-.6.7 9.1 1.3 11.9l-3.4.2.4 2.2-4 2.7c-4.5-6.8-11.9-3.9-17 .4Z"/><path class="beee333e-4a6b-4c03-ba0b-3e9045311c25" d="M299.6 135.1h23.7l.1 4.9c-3.6 6.5-4.7 14.3-7.1 21.4l-2.7 10.2c-.9 3.4-2.8 4.5-3.6 6.9s-2 2.9-.4 4.5l-1.5 6c-2.5 3.5-5 7.1-7.7 10.6a4.2 4.2 0 0 1-2.8 1.4c-3.6.2-7.3 0-10.9 0l.5-8.4 1-14.3 1.9-24.7 1.5-18.5h6c.7 1.4 1.3 1.4 2 0Z"/><path class="b06b5fa4-a842-4fbb-b340-ec6d31bd6832" d="m308.1 189 1.5-6c1.3.1 2.5.2 2.7 2s.8 1 1.3 1a12.4 12.4 0 0 0 4.7 0c4.8-.5 5-5.7 9.3-6.1s1.8-4.6 5.7-2.7 5.5-3.9 8.5 3.3l-3.2 1.7c-2.5-.7-2.9 1.6-1.7 3.4l1.7-2c2.7 1.9 5.8 1.5 8.9 1.5.9 5.5-3.8 1.7-5.7 3.4l3.3 2.1c1.9-2 5.5-2.5 4.1-5.5l4.4-.5 3.2 3.5c-1 1.1-.5 2.3 1.7 2.9l2.2-3.3-1.9-1 .3-1.6c8.3-6.2.4 6.4 15.2 6.6 2 7.5-4.3 5.8-9.3 6.2-.6 0-1.3-.5-1.7-.3-4.6 2-9.3-1.1-13.8.6s-6.8-.8-8.6-3.9c-.8-1.3-3.5-1.7-2.2-4.2a35.3 35.3 0 0 0-19.4-1.2c-2.9.7-4.8-.8-7.2-2Z"/><path class="ab6f7853-cdb5-4c41-be82-2a0a7ade8076" d="m291.6 135.1-1.5 18.5-1.9 24.7a686.7 686.7 0 0 0-1.5 22.7h-3.1c.2-4.2.3-8.2.6-12.2s.7-5.8.9-8.7c.4-5.7.6-11.5 1.1-17.3l2.4-29.7 1-18.1c.2-3.3.2-3.5 3.6-3.3l-1.6 23.4Z"/><path class="b8236e27-06a1-4f6a-bcc9-bc9c6a2d7181" d="M366.1 129.1c5.1-4.3 12.5-7.2 17-.5 4.1 8.5-3.6 16.6-8.8 22.6h-2c-4.5-6.1-10-14.5-6.2-22.1Zm8.1 11.1c8.2.2 9.5-12.2.8-12.4s-9.7 12.6-.8 12.4Z"/><path d="M341 159.5c7.6-7 20.3.7 14.7 10.4-2.8 4.2-4.7 10.5-10.1 11.8-4.8-6.4-10.2-14.2-4.6-22.2Zm6.2 11.8c7.8.3 9.3-11.4 1-11.6s-9.1 11.5-1 11.6Z" style="fill:#faaf21"/><path class="b06b5fa4-a842-4fbb-b340-ec6d31bd6832" d="m379.7 170.1.4 3.3c2.9 2.4 7.4 1.3 5.8 6.5-6.2-.9-12 1.5-18 1.8-3.6-2.2.7-6.3 1.9-8.9s3.9.6 4.9 2.6l2.2-1.7-2.1-1.5 4.8-2.1Z"/><path class="e2983fb7-a275-42f4-918d-8a6c0a0fbfbc" d="M247.1 175.6c-5.7.3-7.2-.2-5.5-6.2-.3-4.7 1.2-4.5 5.2-4.3s7.7-1.6 6.9 2.9.4 8.6-6.6 7.6Z"/><path class="ef4ff7d1-b990-41ab-9922-588b011565b5" d="M240.1 188.1c.5-11.6-.7-10.9 11-10.4 3 1.4.8 6.2 1 8.9-2.3 3.1-8 .8-12 1.5Z"/><path class="ab6f7853-cdb5-4c41-be82-2a0a7ade8076" d="M248.8 152.6c3 .2 7.1-1 5.8 3.6-1 2.3 1 7.1-2.8 6.9s-9.6 2-9.7-2c.5-5.7-.9-9.6 6.7-8.5Z"/><path class="ef4ff7d1-b990-41ab-9922-588b011565b5" d="M261.6 163.1c-3.5-.3-7.1 1.3-5.9-3.7s-.7-7.6 4.9-6.8c2.2.6 7.4-1.6 7.5 1.7-.7 5.8 1.5 9.9-6.5 8.8Z"/><path class="ab6f7853-cdb5-4c41-be82-2a0a7ade8076" d="M268.1 175.6c.5-11.8-.6-10.9 11.1-10.4a2 2 0 0 1 1.4 1.4 105 105 0 0 1-.6 7.9c-2.8 2.5-7.8.5-11.9 1.1ZM281.6 152.6c-.2 3.4-.3 6.3-.6 9.3 0 .4-.9 1.1-1.4 1.1-3.1-.5-8.6 1.7-10.4-1.4.6-2.7-1-7.6 1.9-8.9ZM254.8 175.6c.8-3.4-1.3-9.1 2.2-10.4 3 .4 8.3-1.6 10.1 1.4.4 12.2-2.4 8.5-12.3 9Z"/><path class="e2983fb7-a275-42f4-918d-8a6c0a0fbfbc" d="M267.2 188.1c.8-3.6-1.1-8.8 2.6-10.4 2.9.3 8.1-1.6 9.8 1.5.4 12.4-2.4 8.2-12.4 8.9Z"/><path class="ab6f7853-cdb5-4c41-be82-2a0a7ade8076" d="M259.7 188.1c-7.2 1-6.1-2.3-5.5-7.8s6.9-1.9 10.1-2.7.9 6.6 1.3 9.2-4.1 1.1-5.9 1.3Z"/><path class="a73991b0-9b7d-4e3b-9339-1563b5b79e92" d="M278.2 199.9h-11.9c.6-10.1-.5-10.9 10.3-10.3 4.2.1 1 7.3 1.6 10.3Z"/><path class="ab6f7853-cdb5-4c41-be82-2a0a7ade8076" d="M244.9 200.1c-8.2 1.2-5.2-3.5-4.8-9 2-2.9 6.9-1.1 10-1.4 3.1 1.5.8 6.4 1 9.2s-4.3.9-6.2 1.2Z"/><path class="e2983fb7-a275-42f4-918d-8a6c0a0fbfbc" d="M265.5 189.6c-.9 11.1 1 10.9-10.5 10.5-3.9-.2-.9-6.6-1.3-9.2 1.9-2.8 8.5-.7 11.8-1.3Z"/><path class="ef4ff7d1-b990-41ab-9922-588b011565b5" d="M282.1 140.6c0 3.1.1 5.8-.1 8.5a1.8 1.8 0 0 1-1.4 1.4 66.1 66.1 0 0 1-8.9 0c-3.1-1.4-.7-6.2-1-9 .4-1 2-1 2.9-.9Z"/><path class="ab6f7853-cdb5-4c41-be82-2a0a7ade8076" d="M262.5 150.6c-4.3 0-7.2.6-5.8-4.8.6-1.4.1-4.3 1-4.9s3.1-.3 4.7-.3 4.7-.7 6 .3-.1 5.4.2 7.6-4 1.7-6.1 2.1Z"/><path class="e2983fb7-a275-42f4-918d-8a6c0a0fbfbc" d="M255.1 140.7c.4 10.9.5 10-9.9 9.9-4.3-.2-.9-6.9-1.5-9.9Z"/><path class="beee333e-4a6b-4c03-ba0b-3e9045311c25" d="m354.8 159.1-4.7-2.5c3.3-1 2.8-5 5.3-6.7a2.3 2.3 0 0 0-.1-1.8c-2.2-3.5 2.4-5.6 3.6-8.5.8-1.4 1.6-1.9 3.5-.9-6.3 6.8-4.8 11.3 4.6 8.5l.3 1c-2.1 1.2-7.5 0-5.7 4 .2.4-.1 1-.2 1.8l-2-1.5c-2 2-.6 6.3-4.6 6.6Z"/><path class="ab6f7853-cdb5-4c41-be82-2a0a7ade8076" d="M263.6 125.6c-.2 2.1.9 5-1.9 5h-15.5c-1.8 0-1.6-1.2-1.6-2.4s-.5-2.6 1.6-2.6ZM262.9 132.1c.5 4.5.1 5-3.8 5s-16.1 2.3-15-2.5c0-1.4-.1-2.6 2-2.5ZM265.4 125.6h16.8c.5 0 1.3 1 1.4 1.7s.6 3-1.4 3.1c-5.4.2-10.8.1-16.2 0-1.8-.8-1-2.9-.6-4.8ZM264.8 132.2h17.9c1.2 4.1.7 4.9-3.3 4.9h-11.7c-4.3.5-3.1-1.7-2.9-4.9Z"/><path class="b55c002f-74f5-421f-9ad5-e53f8c594453" d="m348.5 180.7 1.5-1.7c2.1 1.6 5.4 2.4 3.6 5.6-5 .3-10.5 1.7-15-1v-1.4l3.2-1.7.4.7c-.9 5.5 6.4 1.6 9.9 1.5Z"/><path class="bef8f20b-3493-4b14-9cb7-04cfcccb7963" d="m371.2 150 1.1 1.2-2.8 1.1c2.7 1.8 5.8 1.6 7.1-.3l-2.3-.8 1.2-1.2c1.8.4 3.4.7 4.6 2.3-3.1 3.3-10.4 3.5-13.4 0a9.7 9.7 0 0 1 4.5-2.3Z"/><path class="b2c3b7ce-9633-42f5-b733-894092155265" d="M376.1 154.6a7.3 7.3 0 0 0 4-2.3c-1.2-1.6-2.8-1.9-4.6-2.3a5.2 5.2 0 0 0 1-1.1 13.7 13.7 0 0 1 6.6 3.5 7.3 7.3 0 0 1-7 2.2Z"/><path class="e2983fb7-a275-42f4-918d-8a6c0a0fbfbc" d="m348.7 156.5-5.5 1.5c-.2-4.5 0-4.8 3.6-5.7-.4 1.2-.3 2.5-.9 3.5a17.9 17.9 0 0 1 2.4-1.2 10.6 10.6 0 0 0 .4 1.9Z"/><path class="b2c3b7ce-9633-42f5-b733-894092155265" d="M371.2 150a9.7 9.7 0 0 0-4.5 2.3 6.5 6.5 0 0 0 3.4 2.3c-2.2.7-4.6 0-6.8-2.4l7-3.4Z"/><path class="b06b5fa4-a842-4fbb-b340-ec6d31bd6832" d="m379.6 170.1.7-.7c.4.5-.3.5-.6.7ZM359.1 185.1c-.1-.5 0-.2 0 0Z"/><path class="b55c002f-74f5-421f-9ad5-e53f8c594453" d="M270.5 246.6a14.7 14.7 0 0 1 2.9-.5h61.7c.2 1.5-.3 2.1-1.9 2a15.5 15.5 0 0 0-2.1.4l-28-.4-1 .4-9.5-.9-3.9-.5Z"/><path class="ef4ff7d1-b990-41ab-9922-588b011565b5" d="M335.1 246.1h-33.5l-1.5-10.9h44.5l2 11Z"/><path class="b8fc6477-a209-4bb0-8907-6ca677f93554" d="m302.1 248.5 1-.4v.6Z"/><path class="a7042157-827c-4a21-b283-89c1eff459ec" d="m224.8 419.5 7-.4a20.1 20.1 0 0 0 3.3 1.6c4.3 1.8 7.2 0 7.7-4.7l2.7-2c1.6 1.2 3.3 2.2 4.8 3.5a21.6 21.6 0 0 0 10.2 4.9l16.1 2.7.5-6h11l2.2 15.5c-7.2-.3-14.4-.8-21.6-.8-9.2 0-18.4.6-27.6.7-4.8 0-9.6-.4-14.4-.6l-1.9-14.4Z"/><path class="a8c536b2-da67-4b35-9a5e-e62bd9a88cd1" d="M237.5 347.2h-15.8l.6-5h54.8l.5 4.2-14.6.9Z"/><path class="be530cbd-f89a-4d06-a317-270ea9774daa" d="M277.1 342.1h-54.8c.7-3.3 2.1-4.5 5.5-4.5h43.3a32.9 32.9 0 0 1 4.7 1.9c.7.5.9 1.7 1.3 2.6Z"/><path class="a7cdb415-af27-42ee-8ba9-d794a5e65052" d="M342.2 181.2c-3.6-8.1-3.1-2.5-8.9-4-3.9-1.9-2.6 1.9-5.7 2.7s-4.5 5.6-9.3 6.1a12.4 12.4 0 0 1-4.7 0c-.5 0-1.3-.6-1.3-1s-1.4-1.9-2.7-2 0-3.2.4-4.5 2.4-4.6 3.6-6.9c2.7.9 5.3 1.8 7.9 2.5 5 2 5.9-7.6 1.2-8.1l.8-1.3 3.7.7.9-1.2c2.4 1.2 3.8.7 4.5-1.6 3.5.7 4.9-2.9 8.4-3.1-5.4 7.6-.6 14.8 3.7 21.1l-1.7.8Z"/><path d="M323.4 140c-3.4-13.5 19.4-17.2 17.5-2.4-1.2 5.5-4.5 9.8-8.2 13.7s-7.1-8.9-9.3-11.3Zm8.3 2.1c7.6.3 8.8-11.3.7-11.3s-8.7 11.3-.7 11.3Z" style="fill:#d4156e"/><path class="a7cdb415-af27-42ee-8ba9-d794a5e65052" d="m333 155.6.8 4.7c.3 1.8-.8 1.6-1.2 2.3l-8-1 2.7-1.4-1.2-1.1c1-1.6 3.7-1.4 3.5-4l.5-.4h2.4Z"/><path class="bc8954a8-c259-4d35-8a54-f8ecedb9bd10" d="M299.6 135.1c-.7 1.4-1.3 1.4-2 0l1.1-15.6c.1-.6.7-1.2 1-1.9s.9 1.3.9 1.9l-1 15.6Z"/><path class="a7042157-827c-4a21-b283-89c1eff459ec" d="M332.5 154.8h-2.4l-.5.4-2.4-.5-.5-2.5 2.1-1.4c1.1 1.5 2.2 2.6 3.9.6h.8l3.1 2.4Z"/><path class="b55c002f-74f5-421f-9ad5-e53f8c594453" d="m332.5 154.8 4.1-1.2-3.1-2.4c8.1.3 6.4 3.9-.5 4.4Z"/><path class="e2983fb7-a275-42f4-918d-8a6c0a0fbfbc" d="m326.7 129.8-3 3.8a4.4 4.4 0 0 1 2.7-5.8Z"/><path class="b06b5fa4-a842-4fbb-b340-ec6d31bd6832" d="M328.8 150.7a16.1 16.1 0 0 1-4.7 2.4c-3-.6-2.9 2.7-4.8 3.6a4 4 0 0 0 6.8-1.6l1.1-.5 2.4.5c.2 2.6-2.5 2.4-3.5 4l1.2 1.1a19.9 19.9 0 0 0-2.9 1.6l.2-.2 8 1c-.7 2.3-2.1 2.8-4.5 1.6l-.9 1.2-3.7-.7-.8 1.3c4.7.5 3.8 10.1-1.2 8.1-2.6-.7-5.2-1.6-7.9-2.5l2.7-10.2c2.4-7.1 3.5-14.9 7.1-21.4Z"/><path class="b4a9f40b-d48c-407a-bdc5-705245616d39" d="M347.5 185.1h1.7c1.4 3-2.2 3.5-4.1 5.5l-3.3-2.1c1.9-1.7 6.6 2.1 5.7-3.4ZM338.6 182.2v1.4l-1.7 2c-1.2-1.8-.8-4.1 1.7-3.4Z"/><path class="a7cdb415-af27-42ee-8ba9-d794a5e65052" d="M374.2 140.2c-8.9.2-7.3-12.7.8-12.4s7.4 12.6-.8 12.4Z"/><path class="a7042157-827c-4a21-b283-89c1eff459ec" d="m374.3 151.2 2.3.8c-1.3 1.9-4.4 2.1-7.1.3 1.8-.8 3-1.3 4.8-1.1Z"/><path class="a7cdb415-af27-42ee-8ba9-d794a5e65052" d="M347.2 171.3c-8.1-.1-6.5-11.9 1-11.6s6.8 11.9-1 11.6Z"/><path class="a7042157-827c-4a21-b283-89c1eff459ec" d="M342.2 181.2a8.1 8.1 0 0 0 6.3-.5l3.6 2c-3.5.1-10.8 4-9.9-1.5Z"/><path class="b55c002f-74f5-421f-9ad5-e53f8c594453" d="m345.6 181.7-2.6-.3 1.7-.8Z"/><path class="b06b5fa4-a842-4fbb-b340-ec6d31bd6832" d="m346.2 155.6-.3.2.2-.2Z"/><path class="ef4ff7d1-b990-41ab-9922-588b011565b5" d="m274.9 413.5 2.2 5.6c.7 1.8-.3 4.1-.5 6l-16.1-2.7a21.6 21.6 0 0 1-10.2-4.9c-1.5-1.3-3.2-2.3-4.8-3.5a.5.5 0 0 1 .2-.4Z"/><path class="e2983fb7-a275-42f4-918d-8a6c0a0fbfbc" d="M274.9 413.5h-29.2l-.5-7h28.3l1.4 7Z"/><path class="eacf2f08-5062-4619-aee0-b8b4c6875889" d="M242.8 416c-.5 4.7-3.4 6.5-7.7 4.7a20.1 20.1 0 0 1-3.3-1.6Z"/><path class="a7cdb415-af27-42ee-8ba9-d794a5e65052" d="M331.7 142.1c-8 0-6.6-11.4.7-11.3s6.9 11.6-.7 11.3Z"/><path class="b06b5fa4-a842-4fbb-b340-ec6d31bd6832" d="m329.6 155.1.5-.4Z"/><path class="b8fc6477-a209-4bb0-8907-6ca677f93554" d="m324.1 153.1 2.6-1 .5 2.5-1.1.5Z"/><path class="bc8954a8-c259-4d35-8a54-f8ecedb9bd10" d="m324.1 153.1 2 2a4 4 0 0 1-6.8 1.6c1.9-.9 1.8-4.2 4.8-3.6Z"/><path class="a7cdb415-af27-42ee-8ba9-d794a5e65052" d="m324.6 161.6-.2.2c0-.2.1-.2.2-.2Z"/><text transform="matrix(1 0 -.16 .99 244.3 115)" style="font-size:7.68px;font-family:ArchivoBlack-Regular,Archivo Black;fill:#d4156e">G<tspan x="6.4" y="0" style="letter-spacing:-.02em">L</tspan><tspan x="11.4" y="0">O</tspan><tspan x="17.8" y="0" style="letter-spacing:-.02em">B</tspan><tspan x="23.6" y="0">AL</tspan><tspan x="0" y="7">MARKETS</tspan></text></svg>