<svg id="e80a3882-53aa-45d4-8a28-989ab79fac3d" data-name="Layer 1" xmlns="http://www.w3.org/2000/svg" viewBox="0 0 520.5 419.2"><defs><style>.ed20c0b3-bf2e-4580-bbee-9e8aca1b88c7{fill:#dce2ea}.b9ccf8b9-2e02-4ce8-99ca-24ceb4a657fc{fill:#e7ebf0}.bf09f70a-2978-40a6-8455-0e78f77cb275{fill:#eaeef2}.a3657323-b9a4-4f75-a961-41e048894f54{fill:#f1f3f5}.f918db69-2bb5-41fb-a4a4-8949d3495aac{fill:#f4f4f4}.f908efb3-5329-4495-8e16-535453a6b6b0{fill:#e6e9ed}.a5910e43-91db-4c1d-a4d9-f3446f86edfb{fill:#0fa1b3}.e58dc979-052d-4b8b-badc-9a45c1fdfe47{fill:#dde9eb}.e3932f1a-4bac-4912-8db1-30d2fc68ce8b{fill:#f1f2f2}.aa349120-d162-44d5-bb7c-bafa820c8d46{fill:#168990}.fa917253-35be-4881-954d-eaed752f5e25{fill:#d49d78}.e598ccf4-1b67-4ce1-a05d-3f6ca5edf6f6{fill:#57758b}.bcae1f35-223b-470f-a472-46a48474a696{fill:#d49b75}.ed331f95-4b5c-4154-a46e-1e8681ff9f04{fill:#6c1d1a}.a461a1e7-a995-413e-9e30-a81b6ab3baef{fill:#fefefe}.a415d071-7610-4f90-aac4-9c8f4a7d9a0e{fill:#dbdfe2}.e8494ef3-fa0a-45ef-9651-4d30b8e8931a{fill:#d8dfe7}.b6f31afd-9979-484a-922a-705c8a1a9ad9{fill:#ccc}.bb9d7ba1-f00a-454d-a460-1d3c8a771e30{fill:#ddac8b}.b4a5e524-1143-4b9b-a50e-08ce38e42aba{fill:#ed6536}</style></defs><path class="ed20c0b3-bf2e-4580-bbee-9e8aca1b88c7" d="M516.9 242.1c-25 90.8-110 178-203.9 127.6s-88.1-142.3-88.1-142.3L18.2 127.8c-2.5.2-3.9-1.5-4.8-2.2.7-37.3 30.8-95.3 55.9-105.2l1.7-.9A126.7 126.7 0 0 1 111.6 9c37.4-3.1 69.7 9.9 98.3 32.7a140.9 140.9 0 0 0 63.7 27.2c1.5.3 3.3.3 4.3 1.2v-.4s63.7 2.4 97.2-10.5c44.9-17.2 87 11.6 114.2 54.2l1 1.6a189 189 0 0 1 11.8 21.7l1.6 3.4a208.6 208.6 0 0 1 6.6 16.9 194.2 194.2 0 0 1 5.6 19.4l.8 3.3c4.9 22.2 5.3 44 .2 62.4Z" transform="translate(0 -.6)"/><path class="b9ccf8b9-2e02-4ce8-99ca-24ceb4a657fc" d="m451.3 213.3-12.4-27.9h-86.6c-2.6 0-2.5-4 0-4h84.8a21.4 21.4 0 0 0-1-2.2h-48.2a2 2 0 0 1 0-4h9.7a2 2 0 0 1-.6-2.1h-48.9a2 2 0 0 1 0-4h83.7l-3.2-7.4h-51a1.9 1.9 0 0 1-1.9-1.5h-7.9a2 2 0 0 1-1.9-2.5h-19.8a2 2 0 0 1 0-4h80l-1.5-4.5h-44.8c-2.5 0-2.5-4 0-4h43.4l-1.1-3.1h-10.7a1.9 1.9 0 0 1-1.7-.9h-10.4a2 2 0 0 1 0-4h21l-1.7-4.7-1.2-.5c-2.3-.8-4.7-1.4-7.2-2h-32.8a2 2 0 0 1-1.9-2.7h-43.3a.1.1 0 0 0-.1.1h-1.6l-.3-.2a2.2 2.2 0 0 1-1.1-1h-.1a4.1 4.1 0 0 1-.5-.9l-.1-.6a.8.8 0 0 1 .1-.4 1.9 1.9 0 0 1 1.7-2.9H366a2.1 2.1 0 0 1 0-3.6h-23.7a2 2 0 0 1-.9-3.8H338a2 2 0 0 1 0-4h66.4l1.4-.9h.2l.6-.4.9-1a6.7 6.7 0 0 0 1.1-1.4l-4-11.2-.8-.3a97.1 97.1 0 0 0-16.8-3 124.1 124.1 0 0 0-21.1-.7c-6.1.4-163.2-5-169.8-4-1.3.3 52.5 24.1 51.2 24.8 1.5 12.7 1.5 25.8 6.7 37.9 1.6 4 3.7 7.7 5.6 11.5 1.7-.4 3.3-1.2 5-1.2 4.4-.1-31.2 84.7-5.5 139.7 2 .2 78.8 5.8 80.9 5.8h.5a1.8 1.8 0 0 1 1.8-1.5 1.9 1.9 0 0 1 1.8-2.7h6.1a2 2 0 0 1 1.9-2.5h6a1.6 1.6 0 0 1-.3-.9c-2.5-.2-2.4-4 .1-4h42.5l8.1-8.5h-33.1a2 2 0 0 1 0-4h29.4a1.7 1.7 0 0 1-.1-.7 1 1 0 0 1 .2-.9h-1.1a2 2 0 0 1-1.9-1.4h-11.6c-2.5 0-2.5-4 0-4h28.6l4.9-5.1h-33.5c-2.5 0-2.5-4 0-4h35.1a1.9 1.9 0 0 1 .4-2.1l7.3-7.3H378c-2.5 0-2.5-4 0-4h34.7a2 2 0 0 1 0-4h26.6l.6-1.6.9-2h-54.5a2 2 0 0 1 0-4h48c.5-2.3.2-4.7.4-7a4.8 4.8 0 0 0-.8-1.6 1.4 1.4 0 0 1-.2-.6H393a2 2 0 0 1 0-4h36.1a2.1 2.1 0 0 1 .3-2.9h-17.1a2 2 0 0 1 0-4h37.9a18.1 18.1 0 0 0 .9-3.1 10.3 10.3 0 0 0 .4-3 .8.8 0 0 1-.2-.9Z" transform="translate(0 -.6)"/><path class="bf09f70a-2978-40a6-8455-0e78f77cb275" d="M503.8 140.1c-2.2.3-4.3.6-6.4.7s-5.1-.6-7.6.9a3.3 3.3 0 0 1-2.9.1c-3.5-1.8-7.1-.7-10.6-1h-6c-1.4 2.2-3.9.5-5.9 1.6s-4.5.4-6.7.4h-18c-1 0-2.2-.4-3 .1-2.7 1.7-5.9.1-8.5 1s-6.1.9-9.1.9-7.1.3-10.7-.8c-2-.7-4.6.4-7.3.7l-2.3-2.9c.2-.7.2-1.7.7-2.1l7.3-6.4c.4-.3 1-.2 1.3-.5s4.1-.4 5.7-1.9 3.7-.9 5.6-1.1a32.3 32.3 0 0 1 21.4-23.9h12.4a16.1 16.1 0 0 1 9.2 3.1c2.8 1.8 5.9 3.2 8 6.1 6.9-2.8 13.6-3.4 20-.1a189 189 0 0 1 11.8 21.7l1.6 3.4Z" transform="translate(0 -.6)"/><path class="a3657323-b9a4-4f75-a961-41e048894f54" d="m510.4 157-5 .6c-4.7 1-9.8-.6-14.6 1.2-7.7-.7-15.3 1.1-23 1s-16.7-.1-25 0c-3.1.1-6.3-.8-9.1 1-4.6-.5-9 1.3-13.6 1.1s-8.5-1.1-12.6.8a1.9 1.9 0 0 1-1.5 0c-2.1-.8-4-1.7-6.2 0-.4.3-1.4-.4-2.2-.6l-2.8-.3h-.5a24.7 24.7 0 0 1 3.6-19.6 2.5 2.5 0 0 1 .9-.4l2.3 2.9c2.7-.3 5.3-1.4 7.3-.7 3.6 1.1 7.1.7 10.7.8s6 .2 9.1-.9 5.8.7 8.5-1c.8-.5 2-.1 3-.1h18c2.2 0 4.9.5 6.7-.4s4.5.6 5.9-1.6h6c3.5.3 7.1-.8 10.6 1a3.3 3.3 0 0 0 2.9-.1c2.5-1.5 5.1-.7 7.6-.9l6.4-.7a208.6 208.6 0 0 1 6.6 16.9Z" transform="translate(0 -.6)"/><path d="M516.8 179.7a50 50 0 0 1-6.7.1c-7-.3-14.1-.8-21 .1s-14.3.6-21.5.8-14.7 0-22 0c-4.1 0-8.3-.1-12.5.1s-8 .9-12 .9-7.7-.7-11.9-1.2l-4.6-3.4c-4.4-3-4.1-3.2-7.1-8a14.2 14.2 0 0 1-2.7-7.3l2.8.3c.8.2 1.8.9 2.2.6 2.2-1.7 4.1-.8 6.2 0a1.9 1.9 0 0 0 1.5 0c4.1-1.9 8.4-1 12.6-.8s9-1.6 13.6-1.1c2.8-1.8 6-.9 9.1-1h25c8.4.1 15.3-1.7 23-1 4.8-1.8 9.9-.2 14.6-1.2l5-.6a194.2 194.2 0 0 1 5.6 19.4l.8 3.3Z" transform="translate(0 -.6)" style="fill:#f5f7f8"/><path class="bf09f70a-2978-40a6-8455-0e78f77cb275" d="M307.8 238.6v-2.4a15.5 15.5 0 0 1 9.8-5.8c.3-5.3 4.3-7.6 9.3-9.8a15.5 15.5 0 0 1 11.7 4.2c3-2.9 6.2.1 9.8-.2l1.5-1.9h8.3c2 1.8 4.1 3.6 4.6 6.2l7.1 4.7h7.6c.4 0 .8.6 1.3.9v1.6c-2.6.5-4.8 1.2-6.9 1.4-4.1.3-8.2-.5-12.1 1-9.6-.7-19 1.4-28.6 1h-11.5a7.3 7.3 0 0 0-3.2.6c-2.5 1.2-5.5.4-8.7-1.5Z" transform="translate(0 -.6)"/><path class="f918db69-2bb5-41fb-a4a4-8949d3495aac" d="M307.8 238.6c3.2 1.9 6.2 2.7 8.7 1.6a7.3 7.3 0 0 1 3.2-.6h11.5c9.6.4 19-1.7 28.6-1 3.9-1.5 8-.7 12.1-1 2.1-.2 4.3-.9 6.9-1.4v-1.6a2.4 2.4 0 0 1 2.8 1.4c1.3 2.9 3 5.7 2 9.3l-3 2.9c-5.2 2.3-10.7 1.1-16 1.4l-5.6.7c0-.1-1.4-1-2-.6-3 1.5-6.1.8-9.2.8-5.3.2-10.6 0-16 .1-3.5.1-7-.3-10.6.9s-6.7-.6-10.1-1.1l-3.2-3.2-1.1-7.3c0-.4.6-.9 1-1.3ZM342.8 116.9c1.2-1.4 2.7-1.4 4 0 3.2 5.1 4.4 11 4.8 16.8a191 191 0 0 1 .1 21.4c-.1 3-1.3 5.9-.9 9-2.1 1.8-.2 4.5-1.4 6.4s-.3 4.9-.6 7.2h-7a8.8 8.8 0 0 1-1-3c0-3.9-1.3-7.4-1.9-11.1a102.4 102.4 0 0 1-1.1-13.5c-.2-2.8.2-5.7-.1-8.5-.5-4.9 1.2-9.6 1.1-14.5a3.1 3.1 0 0 1 .5-1.2c1-2.7 1.5-5.7 3.4-8.1.2-.2.1-.6.1-.9Z" transform="translate(0 -.6)"/><path class="f908efb3-5329-4495-8e16-535453a6b6b0" d="M348.8 177.7c.3-2.3-.8-4.8.6-7.2s-.7-4.6 1.4-6.4c-.4-3.1.8-6 .9-9a191 191 0 0 0-.1-21.4 35.8 35.8 0 0 0-4.8-16.8h4a2.3 2.3 0 0 0 1 2.5 22 22 0 0 1 6 7.4c2.5 5.5 3.1 11.4 3.9 17.3.3 2-.5 4.1-.8 6.1a89.5 89.5 0 0 1-5.6 19.6c-.9 2.6-3 4.9-2.5 7.9ZM342.8 116.9c0 .3.1.7-.1.9-1.9 2.4-2.4 5.4-3.4 8.1a3.1 3.1 0 0 0-.5 1.2c.1 4.9-1.6 9.6-1.1 14.5.3 2.8-.1 5.7.1 8.5a102.4 102.4 0 0 0 1.1 13.5c.6 3.7 1.9 7.2 1.9 11.1a8.8 8.8 0 0 0 1 3h-5c.4-3.7-1.7-6.6-3.1-9.7s-2.4-7-3.7-10.4-1.2-7.6-1.2-11.5l-.1-6.9c0-4.1 1.4-7.7 2.6-11.4s3.3-5.5 5.7-7.7 2.2-1.6 1.8-3.2Z" transform="translate(0 -.6)"/><path class="bf09f70a-2978-40a6-8455-0e78f77cb275" d="M386.2 212.8H383l3.8 2.5-3.9.4v-2.5c-4.6-1.7-5.9-6.2-8.5-9.5s-1.9-5.3-1.5-8.9l4.3-5.1c5.7-3.1 10-1.9 13.8.9s2.7 6.6 2.8 10.8l-7.6 11.4Z" transform="translate(0 -.6)"/><path class="a3657323-b9a4-4f75-a961-41e048894f54" d="M338.8 116.9c.4 1.6-.9 2.3-1.8 3.2s-4.6 4.5-5.7 7.7-2.6 7.3-2.6 11.4l.1 6.9c0 3.9-.3 7.7 1.2 11.5s2.2 7 3.7 10.4 3.5 6 3.1 9.7h-3c0-.5.1-1.1-.1-1.4-2-3.5-4.3-6.9-6.2-10.4a47.3 47.3 0 0 1-6.8-21c-.2-2.2.9-4 1.1-6.1a24.3 24.3 0 0 1 4.3-12.1c1-1.4 3.2-2.5 2.7-4.8h3v-2c1.9-2 4.4-2.5 7-3ZM352.8 177.7c-.5-3 1.6-5.3 2.5-7.9 3-7.8 4.8-13.9 5.6-19.6.3-2 1.1-4.1.8-6.1-.8-5.9-1.4-11.8-3.9-17.3a22 22 0 0 0-6-7.4 2.3 2.3 0 0 1-1-2.5c2.5.5 5.1 1 7 3v1.6c.5.2 1.3.2 1.6.6 3 3.4 5.8 6.9 7.5 11.3.8 2.3.1 4.9 1 6.9 2.2 5.1.5 9.8-.7 14.4-1.8 6.8-5.8 12.5-9.4 18.4-.8 1.5-2.1 2.8-2 4.6Z" transform="translate(0 -.6)"/><path class="f908efb3-5329-4495-8e16-535453a6b6b0" d="M355.8 177.7c-.1-1.8 1.2-3.1 2-4.6 3.6-5.9 7.6-11.6 9.4-18.4 1.2-4.6 2.9-9.3.7-14.4-.9-2-.2-4.6-1-6.9a37.8 37.8 0 0 0-7.5-11.3c-.3-.4-1.1-.4-1.6-.6v-1.6h2c2.2 1.6 4.5 2.8 6 4.6 3.6 4.4 7.4 8.9 8 15.1.1 1.7 1.2 3.5.9 5-.9 4.1-1.5 8.2-3.3 12.1a72.9 72.9 0 0 1-10.9 16.9c-1.2 1.4-1.7 3.5-3.7 4.1ZM328.8 121.9c.5 2.3-1.7 3.4-2.7 4.8a24.3 24.3 0 0 0-4.3 12.1c-.2 2.1-1.3 3.9-1.1 6.1.4 7.6 3.1 14.5 6.8 21 1.9 3.5 4.2 6.9 6.2 10.4.2.3.1.9.1 1.4h-1a42.9 42.9 0 0 1-5.4-5.9c-3.3-4.5-6.8-8.9-8.7-14.3-.7-2.2-1.8-4.2-2.9-6.9s.1-3.6-.1-5.8a21.5 21.5 0 0 1 2.1-11.5c2.3-4.3 4.3-8.9 9.1-11.1a10.8 10.8 0 0 1 1.9-.3Z" transform="translate(0 -.6)"/><path d="M332.8 177.7h24a26.7 26.7 0 0 1-2.2 3.6 6.2 6.2 0 0 1-5.3 2.4h-10.2l-.7 1.9Z" transform="translate(0 -.6)" style="fill:#d3dce4"/><path d="M348.8 193v5.4l-3.9 2.4-2.9-1.4a7.5 7.5 0 0 1-1-6.4Z" transform="translate(0 -.6)" style="fill:#c6d2db"/><path class="f908efb3-5329-4495-8e16-535453a6b6b0" d="M331.8 119.9v2h-3c.3-1.6 1.4-2.2 3-2Z" transform="translate(0 -.6)"/><path class="a5910e43-91db-4c1d-a4d9-f3446f86edfb" d="m304.6 338.3-1 8c-.3 2.7-.5 2.6-.7 4s-.1 5.3-.2 8a36.4 36.4 0 0 1-1.4 4.7c-2.8 8.3-10 12.4-18.5 10-4.3-1.2-8.4-3.6-13.5-5.8l11 36.3-17.6 6.3c-3.6-7.3-67.1 2.1-101.7 3.5-5.1.2-9.6.2-13.1 0l-8.8-2.6c-7.5-2.5-14.4-5.4-18.3-6.8s-3.3-2.1-2.8-4.7l3-18c.4-.8-.7-10.6-1.9-20.5l-.2.6-5.6 7.3c-7.1 9.4-14.1 10.1-21.3.9-5.3-6.7-13.3-22.3-17.8-29.7 15 .3 22.7-23.2 29.6-36.8l-1-.9c4.6-9 9.1-18 9.9-28.3a10 10 0 0 1 1.6-5.2c3.2-4-2.5-14.8-5.5-19 2.9-7.2 7.2-16.8 10.1-24 3.5-9.8 15.4-17.2 25.4-20.8.4 2.2 11.5-2.3 11.7 0 2 0 7.8 6 11.5 8.5l-15.8.3c0 .3 6.8.4 16.8.4l-1-.7c27.9-.5 91.1-8.6 92.3-8.5s45.6 12.4 48 13.2c0-.2-24.6 7.9-22.9 9.6s3 23.3 7.6 35l7.6 44.9Z" transform="translate(0 -.6)"/><path class="a5910e43-91db-4c1d-a4d9-f3446f86edfb" d="M161 413.3a11 11 0 0 1-7.1 1.2l-6-1.2c3.5.2 8 .2 13.1 0ZM168.5 214c-10 0-16.8-.1-16.8-.4l15.8-.3Z" transform="translate(0 -.6)"/><path d="m141.7 189.1 6.2 23-4.9 1.7a32.1 32.1 0 0 0-19.6 20.9l-13.4 3.8a2359 2359 0 0 1-11.6-28.1c-1.6-4.2-2.9-8.5-4.4-12.8l-2-3v-1c-2.2-6.6-43.2 13.6-46.2 14.9l-3.8-8.9a102.6 102.6 0 0 1-26.2-48.8c-1.8-9.5-1.5-17.5-2.4-27.2.9.7 12.6 4.6 15.6-.8a51.5 51.5 0 0 0 2.3-5.4c3.3-8.3 9-14 17.9-15.4 3-.4 3.8-1.7 4.7-4 1.7-4.1 2.5-8.8 7.1-10.8v-.5c2.6-7.6 16.2-9.6 18.9-9.8a30 30 0 0 1 20.6 6.9c1.3 1 3.4 1.1 5.1 1.2 4.8.2 9.8-.3 14.4.7 2.9.6 4.6.9 7-1.2a17.5 17.5 0 0 1 21.9-1.6c-4.3 8.4-9.4 16.5-12.6 25.2a167.5 167.5 0 0 1-21.1 41 20.2 20.2 0 0 0-4 10.1c-.6 8.9-.3 17.8-.2 26.8a4.2 4.2 0 0 0 1.4 2.8c3.3 2.3 6.8 4.4 10.9 6.9l-1.1-6.9 1.5-1c1.3 10.6 9.3 14.5 17.1 19.4v-18.1Z" transform="translate(0 -.6)" style="fill:#e9edf1"/><path class="a5910e43-91db-4c1d-a4d9-f3446f86edfb" d="m286.7 327.3-1-1-.4-.2.4.3a4.7 4.7 0 0 1 1 1 .5.5 0 0 1 .4.2Zm0 0-1-1-.4-.2.4.3a4.7 4.7 0 0 1 1 1 .5.5 0 0 1 .4.2Z" transform="translate(0 -.6)"/><path class="a5910e43-91db-4c1d-a4d9-f3446f86edfb" d="M286.7 327.4a4.7 4.7 0 0 0-1-1l-.4-.3.4.2 1 1 .4.3a.5.5 0 0 0-.4-.2ZM252.4 269Zm-84.9-55.7-15.8.3c0 .3 6.8.4 16.8.4Zm-19.6 200-8.8-2.6c.7 1.4 3.9 2.2 8.8 2.6Z" transform="translate(0 -.6)"/><path d="m139.8 410.8 8.1-23.6 6.3-12.3c10.6 1.4 21.3 3.5 31.9 4.2 17.2 1.1 33.9-2.6 50.7-5.7l5.1 18.1 5.9 22.4-24.9 4.5-9-15.6a3.1 3.1 0 0 0-1 .5l2.9 15.8-19 .7v-26.4c-.1-1.4-1.1-2.7-1.7-4-.8 1.3-2.1 2.7-2.1 4-.3 8.7-.2 17.3-.2 25.9a198.3 198.3 0 0 1-53-8.5Z" transform="translate(0 -.6)" style="fill:#6b7e9e"/><path class="e58dc979-052d-4b8b-badc-9a45c1fdfe47" d="M84.9 187.8c1.3-.7 9.7 25.6 15.1 37.9l-23 10.1-53.4 23-9.5-18.8-7-12.4-1-3-1-5 1-1c11.8-5.1 23.7-10.1 35.4-15.4.9-.3 39.8-13.6 43.4-15.4Z" transform="translate(0 -.6)"/><path d="M292.8 177.3c.3 1.2 1.4 2.9 2.4 3.1" transform="translate(0 -.6)" style="fill:#52778c"/><path class="e3932f1a-4bac-4912-8db1-30d2fc68ce8b" d="M259.6 161c1.7-.4 3.3-1.2 5-1.2 6.4-.2 4.1-1.7 19.1-.1s29.5 15.3 30.4 25c1.1 11.6 1.2 35.9-9.5 42.9s-23.3-4-28.9-4l-6-5.8-4.9-3-2-1.2-4-12-.3-1.4-.7-2.6-3.1-10.6 1.2-.8a62 62 0 0 1 16.3 17.5 44.1 44.1 0 0 0 0-8.9c-1.6-12.2-7.3-22.9-12.6-33.8Z" transform="translate(0 -.6)"/><path class="aa349120-d162-44d5-bb7c-bafa820c8d46" d="m102.8 302.1 3.5 3.5c1.2 1.2 3.1 2.4 3.5 4a142.6 142.6 0 0 1 3.5 19.9l-3.6-6.2c-7.4 12.4-14.7 24.5-31.2 24.3-5.5-.6-9.3-3.7-9.6-9-.4-8.6.2-17.3.5-26 0-.6 1-1.2 1.6-1.8.4 2.9 2.1 3.8 4.9 3.5a26.1 26.1 0 0 0 18-9.3c.9-1.1.7-3 1-4.5 3.7-4.8 5.3.8 7.9 1.6Z" transform="translate(0 -.6)"/><path class="ed20c0b3-bf2e-4580-bbee-9e8aca1b88c7" d="M283.7 104.8c-10.9 1.6-21.8 3.1-32.6 4.8-1.3.2-2.5 1.3-3.8 2A55.9 55.9 0 0 0 229 77.3c8.2-.5 16.5-1.2 24.7-1.4 10-.2 19.9 0 29.9 0l.1 10.9c-3.6-.1-7-.1-7.7 5.6l7.7.5Z" transform="translate(0 -.6)"/><path class="fa917253-35be-4881-954d-eaed752f5e25" d="M94.9 300.5c-.3 1.5-.1 3.4-1 4.5a26.1 26.1 0 0 1-18 9.3c-2.8.3-4.5-.6-4.9-3.5l-6.9-39.5a61.8 61.8 0 0 0 5.3-3.6 7.8 7.8 0 0 0 2.5-3.2c1.2-3.7 2-7.6 3-11.3l6.6-11.8c1.8-3.4 4.1-6.1 8.6-4.4l-3.8 10.5-.9 6.1v4.9l-3.7 13.1a4.1 4.1 0 0 0 .2 2.7l13 26.2Z" transform="translate(0 -.6)"/><path class="e598ccf4-1b67-4ce1-a05d-3f6ca5edf6f6" d="m247.8 413.9-5.9-22.4-5.1-18.1v-.3l5.1-.9 6 8 14.9 29.6Z" transform="translate(0 -.6)"/><path class="aa349120-d162-44d5-bb7c-bafa820c8d46" d="M118.9 361.3c2-5.4 3.7-10.9 6-16.1a370.7 370.7 0 0 1 16.1-33.7l-4 15.1-13.9 49.6a53.2 53.2 0 0 1-2.1 5Z" transform="translate(0 -.6)"/><path class="e3932f1a-4bac-4912-8db1-30d2fc68ce8b" d="m5.1 219.6 1 5c.3 1.7-1.8 3.2-1.5 4.6a60.8 60.8 0 0 0 3.5 10.7c4.4 10.3 8.8 20.7 13.7 30.8 3.6 7.5 8.3 9.4 15.8 6.7s13.5-5.5 20.2-8.4c1-.5 1.5-1.9 2.2-2.9l3.1 4.4c-6.7 2.8-13.3 5.9-20.2 8.4a34.8 34.8 0 0 1-13.3 3c-6.5-.3-9.5-5.9-11.9-11.4-5-11-9.9-22-14.6-33.2-1.9-4.5-4.3-9.2-1.6-14.2.7-1.4 2.4-2.4 3.6-3.5Z" transform="translate(0 -.6)"/><path class="bcae1f35-223b-470f-a472-46a48474a696" d="m63.1 270.5-3.1-4.4h-.5l-.3-1.6-1.2-4 16.9-7.3c-1 3.7-1.8 7.6-3 11.3a7.8 7.8 0 0 1-2.5 3.2 61.8 61.8 0 0 1-5.3 3.6Z" transform="translate(0 -.6)"/><path class="e598ccf4-1b67-4ce1-a05d-3f6ca5edf6f6" d="M192.8 419.3c0-8.6-.1-17.2.2-25.9 0-1.3 1.3-2.7 2.1-4 .6 1.3 1.6 2.6 1.7 4v26.4Z" transform="translate(0 -.6)"/><path class="e3932f1a-4bac-4912-8db1-30d2fc68ce8b" d="M88.3 183.8c-.5 1.3 1.9 2.2 1.1 2.6L.3 225.7c-1.1-5.7 1.2-6 1.6-6.1 13.6-6.2 33.7-14.9 41.5-18.5.4 0 44.6-17.3 44.9-17.3Z" transform="translate(0 -.6)"/><path class="e598ccf4-1b67-4ce1-a05d-3f6ca5edf6f6" d="m215.8 419.1-2.9-15.8a3.1 3.1 0 0 1 1-.5l9 15.6Z" transform="translate(0 -.6)"/><path class="e3932f1a-4bac-4912-8db1-30d2fc68ce8b" d="m283.7 92.9-7.7-.5c.7-5.7 4.1-5.7 7.7-5.6ZM283.7 123.8l-1.5-1.2 1.5-.8Z" transform="translate(0 -.6)"/><path class="ed331f95-4b5c-4154-a46e-1e8681ff9f04" d="M229 77.3c10.8 8.9 15.7 21 18.3 34.3s1.5 25.8 6.7 37.9c1.6 4 3.7 7.7 5.6 11.5 5.3 10.9 11 21.6 12.6 33.8a44.1 44.1 0 0 1 0 8.9 62 62 0 0 0-16.3-17.5l-1.2.8 3.1 10.6.7 2.6.3 1.4v4.5l-22.7 3.9-4.2-11.6-1.2 12.2c-1.8-.7-4.2-.9-5.2-2.2-2.6-3.5-6-7.3-6.6-11.3-1.8-10.4-2.2-20.9-3.2-31.4.9-3.2 1.1-7 2.9-9.6 3.1-4.5 7.9-8 10.7-12.7 1.9-3.1 2.3-7.5 2-11.3-.1-1.8-3.1-3.5-4.9-5.2-2.3 2.2-6.7 4.8-6.5 6.8 1.1 9.7-3.4 17.2-7.8 25a21.9 21.9 0 0 1 .3-5.1c1.1-8.6 4.4-17.2.2-25.9l-5.4-6.1a51.6 51.6 0 0 1-13.9-31.7l.3.2-37.9 25.5c6.8 1.4 8 2.2 8.8 5.8-9.6-2.2-9.6-2.2-12.6-.5-.9.2-2.1 1-2.6.6-3.9-3-3.9-3-5.2 2-1.4 1.2-4.4 2.7-4.2 3.5 1.5 7.1.7 15.2 8.1 19.8.9 8.5 3.2 16.4 8.7 23.2 2.6 3.2 5.3 6.3 7.8 9.6 4.5 6.2 9.6 11.3 18.2 10.4-.2 3.4-.6 6.9-.5 10.3 0 5.7-2.8 9.3-7.8 10.9-3.4 1-7.2 1.1-10.8 1.7h-14.7l-1-.6-6.2-23h-.9v18.1c-7.8-4.9-15.8-8.8-17.1-19.4l-1.5 1 1.1 6.9c-4.1-2.5-7.6-4.6-10.9-6.9a4.2 4.2 0 0 1-1.4-3c-.1-9-.4-17.9.2-26.8a20.2 20.2 0 0 1 4-10.1 167.5 167.5 0 0 0 21.1-41c3.2-8.7 8.3-16.8 12.6-25.2 8.4-10 20-13.9 32.3-15.3 16.9-2 33.5-1.6 47.8 9.7Z" transform="translate(0 -.6)"/><path class="a461a1e7-a995-413e-9e30-a81b6ab3baef" d="M156.9 212.8h6.7c3.1 3.4 5.9 7.2 9.4 10.1a40.6 40.6 0 0 0 61.7-10.4l12.1-1-.8 2.9c-1.7 6.9-4.4 13.7-5 20.6-1 14-.9 28-1.2 42a16.8 16.8 0 0 1-.9 3.2c-6.1-7.6-12.7-14.9-18.1-23-8.1-12-21-14.6-33.8-19.1.9 5.8 4.9 7.1 8.5 9l11 6.1a4.9 4.9 0 0 1-3.1 1.3c-8.3 1.6-16.5 3.2-21.3 11.2-1.2 2.1-3.3 4.7 1.7 4.6l.3.3-2.2 6.7c-1.7 4.5.9 4.5 3.9 3.5s5.7-2.3 8.5-3.4l-3.7 7.2 1.7 1.2 7.7-6.4a10 10 0 0 1 12.9-.2l1.8 1.2a16.9 16.9 0 0 0 .5 2.4c3.9 6.7 8.4 13 11.5 20.1 4.1 9 11.6 17.2 9.2 28.4a4.5 4.5 0 0 0 .5 1.9c1.4 5 3.2 10 4.3 15.1s1.4 9.1 2.1 13.7l-1.2.3a328 328 0 0 0-85.7 2.2 367 367 0 0 0 6-75.5c-.2-15.5.1-30.9-.1-46.4a207 207 0 0 0-1.1-20.8c-.2-2.3-2.4-4.3-3.6-6.5Z" transform="translate(0 -.6)"/><path class="a415d071-7610-4f90-aac4-9c8f4a7d9a0e" d="M157.1 215.5c1.2 2.2 3.4 4.2 3.6 6.5a207 207 0 0 1 1.1 20.8c.2 15.5-.1 30.9.1 46.4a367 367 0 0 1-6 75.5l-2 .8h-4c.1-5.2 0-10.4.3-15.5 1.5-21.9 3.4-43.7 4.5-65.5s1.6-45.9 2.4-69Z" transform="translate(0 -.6)"/><path class="aa349120-d162-44d5-bb7c-bafa820c8d46" d="m147.9 212.1 1 .6v71.4h-1.5c-.5-5.5-1.2-11-1.4-16.5-.8-15.6-1.4-31.3-2.1-47-.1-2.3-.6-4.5-.9-6.8Z" transform="translate(0 -.6)"/><path class="e8494ef3-fa0a-45ef-9651-4d30b8e8931a" d="m114.8 256.5-6.9-7.9v-1l2.1-9.1 13.4-3.8-8.6 21.8Z" transform="translate(0 -.6)"/><path class="aa349120-d162-44d5-bb7c-bafa820c8d46" d="M149.9 365.6h4l.2 3.8.1 5.6-6.3 12.3 2-21.7Z" transform="translate(0 -.6)"/><path class="a415d071-7610-4f90-aac4-9c8f4a7d9a0e" d="m110 238.5-2.1 9.1-3.1-2.3-19.4 8.3.9-6.1 14.5-6.3c5.3-2.4 5.5-4.4 1-8.8l-1.8-6.7-15.7-36a1.3 1.3 0 0 1 .6-1.7l2.1-1.2a1.9 1.9 0 0 1 2.7.7c2 3.2 3.7 9.3 4.3 10.1 1.5 4.3 2.8 8.6 4.4 12.8a2359 2359 0 0 0 11.6 28.1Z" transform="translate(0 -.6)"/><path class="e58dc979-052d-4b8b-badc-9a45c1fdfe47" d="m94 197.6-2-3Z" transform="translate(0 -.6)"/><path class="fa917253-35be-4881-954d-eaed752f5e25" d="M183.8 270.4c-5 .1-2.9-2.5-1.7-4.6 4.8-8 13-9.6 21.3-11.2a4.9 4.9 0 0 0 3.1-1.3c-3.6-2.1-7.3-4.2-11-6.1s-7.6-3.2-8.5-9c12.8 4.5 25.7 7.1 33.8 19.1 5.4 8.1 12 15.4 18.1 23l5.1 6.2 3.8 4.9c4.4 4.3 4.9 9.5 4.1 15.3-1.2 7.8-2 15.5-6.1 23.2l-6-9.6c-5.3-10.4-10.4-20.9-16.2-31-2-3.5-5.9-5.9-8.9-8.7l-1.8-1.2a10 10 0 0 0-12.9.2l-7.7 6.4-1.7-1.2 3.7-7.2 9.8-8c-9.3-.1-9.2 0-16.5 5.7-1.6 1.2-3.8 1.5-5.7 2.2l2.1-6.7.4-.8Z" transform="translate(0 -.6)"/><path class="aa349120-d162-44d5-bb7c-bafa820c8d46" d="m239.8 320.3 6 9.6c4.1-7.7 4.9-15.4 6.1-23.2.8-5.8.3-11-4.1-15.3 2 .6 4.4.5 5.9 1.7s3.6 4.3 5.4 6.4l1.4-.9-.9-13.8.8-.3c1.7 5.2 3.3 10.3 5.1 15.4.5 1.5.9 3.9 2 4.4 7.5 2.9 7.4 12.1 13.6 16.1.2.2.1.9.3 2.1l-6.1-3.9c-1.5 6.5-2.8 12.7-4.6 18.7-1.3 4.2-2.8 8.7-5.3 12.2s-2.4 5.4-.4 8.3c.7 1.1 1 2.4 1.8 4-4.6 0-6.1-8.3-11.7-3.1l-9.2-12.4a23.9 23.9 0 0 1-6.4-23.1l.3-2.9Z" transform="translate(0 -.6)"/><path class="e3932f1a-4bac-4912-8db1-30d2fc68ce8b" d="m292.5 262.6-13.8-35h14.9" transform="translate(0 -.6)"/><path class="a415d071-7610-4f90-aac4-9c8f4a7d9a0e" d="m239.8 320.3-.3 2.9c-2.2 8.9.3 16.5 6.4 23.1l.8 15.8h-3.9c-.7-4.6-1.1-9.2-2.1-13.7s-2.9-10.1-4.3-15.1a4.5 4.5 0 0 1-.5-1.9c2.4-11.2-5.1-19.4-9.2-28.4-3.1-7.1-7.6-13.4-11.5-20.1a16.9 16.9 0 0 1-.5-2.4c3 2.8 6.9 5.2 8.9 8.7 5.8 10.2 10.9 20.7 16.2 31.1ZM244 286.5l-5.1-6.2a16.8 16.8 0 0 0 .9-3.2c.3-14 .2-28 1.2-42 .6-6.9 3.3-13.7 5-20.6-.7 16.5-1.5 33.1-2 49.7-.3 7.4 0 14.9 0 22.3Z" transform="translate(0 -.6)"/><path class="aa349120-d162-44d5-bb7c-bafa820c8d46" d="M258.8 213.6c-2.1 10.2-4.9 20.2-6.2 30.5-1 8.3-.2 16.8-.2 25.3h-1.6c-.7-4.8-2.1-9.6-1.9-14.3.6-12.6 1.8-25.3 2.7-37.9a51.5 51.5 0 0 0 .2-5.5Z" transform="translate(0 -.6)"/><path class="a415d071-7610-4f90-aac4-9c8f4a7d9a0e" d="M258.8 213.6c-2.3-.6-10.3-1.9-12-2l-12.1 1-4-2 1.2-12.2 4.2 11.6 22.7-3.9v-4.5l4 12Z" transform="translate(0 -.6)"/><path class="aa349120-d162-44d5-bb7c-bafa820c8d46" d="m264.8 214.8 4.9 3-5.4 29.9-1.1-.2 1.6-32.7ZM242.8 362.2h3.9l1.1 18.1-6-8-.2-9.7Z" transform="translate(0 -.6)"/><path class="e8494ef3-fa0a-45ef-9651-4d30b8e8931a" d="M293.6 227.6h-14.9l-3-4h16.7Z" transform="translate(0 -.6)"/><path class="aa349120-d162-44d5-bb7c-bafa820c8d46" d="m285.7 326.3-.4-.2.4.3ZM286.7 327.3l-1-1a4.7 4.7 0 0 1 1 1ZM286.7 327.4l.4.2-.4-.3Z" transform="translate(0 -.6)"/><path d="m154.2 374.9-.1-5.6a373.8 373.8 0 0 1 81.2-1.8l1.4 5.6v.3c-16.8 3.1-33.5 6.8-50.7 5.7-10.5-.7-21.2-2.8-31.8-4.2Z" transform="translate(0 -.6)" style="fill:#edba93"/><path class="a5910e43-91db-4c1d-a4d9-f3446f86edfb" d="m100 225.7 1.8 6.7-11.7 4.6c-4.5-1.7-6.8 1-8.6 4.4l-55.4 24-2.5-6.6 53.4-23Zm-31 16.2.6 1.6 9.9-4-.6-1.5Z" transform="translate(0 -.6)"/><path class="a415d071-7610-4f90-aac4-9c8f4a7d9a0e" d="m23.6 258.8 2.5 6.6c.9 2.2-.5 7.2 5 6.1 1.3 3.4 3.6 1.8 5.6 1.1l22.5-8.2.3 1.7c-6.8 2.8-13.6 6.1-20.6 8.3-8.8 2.8-12.3 1.2-15.1-5.4s-6.7-12.5-9.3-19.1-5-14.9-7.4-22.3l7 12.4Z" transform="translate(0 -.6)"/><path class="b9ccf8b9-2e02-4ce8-99ca-24ceb4a657fc" d="M7.1 227.6c2.4 7.4 4.5 15 7.4 22.3s6.5 12.7 9.3 19.1 6.3 8.2 15.1 5.4c7-2.2 13.8-5.5 20.6-8.3h.5s-1.2 2.4-2.2 2.9c-6.7 2.9-13.3 5.9-20.2 8.4s-12.2.8-15.8-6.7c-4.9-10.1-9.3-20.5-13.7-30.8a60.8 60.8 0 0 1-3.5-10.7c-.3-1.4.9-3.1 1.5-4.6Z" transform="translate(0 -.6)"/><path class="a415d071-7610-4f90-aac4-9c8f4a7d9a0e" d="m258.5 200.2-.7-2.6Z" transform="translate(0 -.6)"/><path class="e58dc979-052d-4b8b-badc-9a45c1fdfe47" d="M31.1 271.5c-5.5 1.1-4.1-3.4-5-6.1l55.4-24-6.6 11.8-16.9 7.3ZM90.1 237l11.7-4.6c4.5 4.4 4.3 6.4-1 8.8l-14.5 6.3 3.8-10.5Z" transform="translate(0 -.6)"/><path class="e3932f1a-4bac-4912-8db1-30d2fc68ce8b" d="m85.4 253.6 19.4-8.3 3.1 2.3v1l-22.5 9.9Z" transform="translate(0 -.6)"/><path class="bcae1f35-223b-470f-a472-46a48474a696" d="m236.7 373.1-1.4-5.6a373.8 373.8 0 0 0-81.2 1.8l-.2-3.8 2-.8a328 328 0 0 1 85.7-2.2l.2 9.7Z" transform="translate(0 -.6)"/><path class="b6f31afd-9979-484a-922a-705c8a1a9ad9" d="m31.1 271.5 26.9-11 1.2 3.9-22.5 8.2c-2 .7-4.3 2.3-5.6-1.1Z" transform="translate(0 -.6)"/><path class="bcae1f35-223b-470f-a472-46a48474a696" d="m230.7 210.6 4 2A40.6 40.6 0 0 1 173 223c-3.5-2.9-6.3-6.7-9.4-10.1 3.6-.6 7.4-.7 10.8-1.7 5-1.6 7.8-5.2 7.8-10.9-.1-3.4.3-6.9.5-10.3 4.8-2.7 9.9-4.9 14.1-8.1 6.6-5 12.6-10.8 18.9-16.2 1 10.5 1.4 21 3.2 31.4.6 4 4 7.8 6.6 11.3 1 1.3 3.4 1.5 5.2 2.2Z" transform="translate(0 -.6)"/><path class="bb9d7ba1-f00a-454d-a460-1d3c8a771e30" d="M215.7 165.7c-6.3 5.4-12.3 11.2-18.9 16.2-4.2 3.2-9.3 5.4-14.1 8.1-8.6.9-13.7-4.2-18.2-10.4-2.5-3.3-5.2-6.4-7.8-9.6l6.6-5.4c.9 1.2 1.7 2.5 2.7 3.6 3.6 4.3 8.5 4.1 13.2 3s7.9-4.4 8.4-9.8h-19.8l8.5-9.3c-8.4-.9-8.4-.9-8.5-8.9l-.1-.9c.9-3.1 1.6-6.1 2.7-9.1a4.1 4.1 0 0 1 2.6-2.4 4 4 0 0 1 3 1.8c1 1.7 1.3 3.8 2.1 5.6 2.1 5.5 7.7 8 15.4 7s10.5-3.4 11.1-10.2.7-7 8-7.3c4.2 8.7.9 17.3-.2 25.9a21.9 21.9 0 0 0-.3 5.1c4.4-7.8 8.9-15.3 7.8-25-.2-2 4.2-4.6 6.5-6.8 1.8 1.7 4.8 3.4 4.9 5.2.3 3.8-.1 8.2-2 11.3-2.8 4.7-7.6 8.2-10.7 12.7-1.8 2.6-2 6.4-2.9 9.6Zm9.1-22.2c3.5-2.3 5.7-5.3 4.8-9.7-.3-1.1-1.8-1.9-2.8-2.8-.7 1-1.8 2-1.9 3.1-.2 3-.1 6.1-.1 9.4ZM151.9 120.9c3-1.7 3-1.7 12.6.5-.8-3.6-2-4.4-8.8-5.8l37.9-25.5-.3-.2a51.6 51.6 0 0 0 13.9 31.7c-6.9-.2-14.4-2.2-20.6-.1-11.8 3.9-23.1 1.8-34.7.6Zm49.4-1.9c-2.2-5.1-8.1-7.2-13.9-5.8s-8.7 3.7-8.8 7.9c7.2-6.3 14.6-7.5 22.7-2.1Z" transform="translate(0 -.6)"/><path class="aa349120-d162-44d5-bb7c-bafa820c8d46" d="M151.9 122.1c11.6 1.2 22.9 3.3 34.7-.6 6.2-2.1 13.7-.1 20.6.1l5.4 6.1c-7.3.3-7.3.3-8 7.3s-3 9-11.1 10.2-13.3-1.5-15.4-7c-.8-1.8-1.1-3.9-2.1-5.6a4 4 0 0 0-3-1.8 4.1 4.1 0 0 0-2.6 2.4c-1.1 3-1.8 6-2.7 9.1-5.6 5.4-12.8 4.6-19.7 4.5-7.4-4.6-6.6-12.7-8.1-19.8-.2-.8 2.8-2.3 4.2-3.5Zm50.7 11.4c-.8-3.4-.8-5.5-1.8-7.1-2.7-4.1-18.4-3.2-21.1 1.1-.3.4-.6 1-.5 1.3 1.5 3.9 2.1 8.7 4.8 11.5s9.6 3.1 13.9.6c2.5-1.4 3.5-5.3 4.7-7.4Zm-47.7-7.9c-3.8.1-8.4-.3-9.9 4.4-2.5 8.2 2.3 14.2 10.9 14.2l2.5-.2c6-.6 8.2-3.8 8.8-11s-3.5-6.5-7.6-7.1c-1.5-.2-3-.2-4.7-.3Z" transform="translate(0 -.6)"/><path class="bcae1f35-223b-470f-a472-46a48474a696" d="M148 146.8c6.9.1 14.1.9 19.7-4.5l.1.9c.1 8 .1 8 8.5 8.9l-8.5 9.3c-1.6.9-5.5-1.2-4.5 3.2l-6.6 5.4a42.6 42.6 0 0 1-8.7-23.2ZM151.9 122.1l-7.8 1.4c1.3-5 1.3-5 5.2-2 .5.4 1.7-.4 2.6-.6Z" transform="translate(0 -.6)"/><path class="a415d071-7610-4f90-aac4-9c8f4a7d9a0e" d="M181.9 277.4c1.9-.7 4.1-1 5.7-2.2 7.3-5.7 7.2-5.8 16.5-5.7l-9.8 8c-2.8 1.1-5.6 2.5-8.5 3.4s-5.6 1-3.9-3.5ZM212.9 279.3l1.8 1.2Z" transform="translate(0 -.6)"/><path class="a461a1e7-a995-413e-9e30-a81b6ab3baef" d="m183.8 270.4.6-.5-.4.8-.2-.3Z" transform="translate(0 -.6)"/><path d="m69 241.9 9.9-3.9.6 1.5-9.9 4Z" transform="translate(0 -.6)" style="fill:#6bc5cc"/><path class="b9ccf8b9-2e02-4ce8-99ca-24ceb4a657fc" d="M163.3 164.6c-1-4.4 2.9-2.3 4.5-3.2h19.8c-.5 5.4-3.5 8.6-8.4 9.8s-9.6 1.3-13.2-3c-1-1.1-1.8-2.4-2.7-3.6Z" transform="translate(0 -.6)"/><path class="fa917253-35be-4881-954d-eaed752f5e25" d="M224.8 143.5c0-3.3-.1-6.4.1-9.4.1-1.1 1.2-2.1 1.9-3.1 1 .9 2.5 1.7 2.8 2.8.9 4.4-1.3 7.4-4.8 9.7Z" transform="translate(0 -.6)"/><path class="ed331f95-4b5c-4154-a46e-1e8681ff9f04" d="M201.3 119c-8.1-5.4-15.5-4.2-22.7 2.1.1-4.2 3.1-6.6 8.8-7.9s11.7.7 13.9 5.8Z" transform="translate(0 -.6)"/><path class="bb9d7ba1-f00a-454d-a460-1d3c8a771e30" d="M202.6 133.5c-1.2 2.1-2.2 6-4.7 7.4-4.3 2.5-10.1 3.4-13.9-.6s-3.3-7.6-4.8-11.5c-.1-.3.2-.9.5-1.3 2.7-4.3 18.4-5.2 21.1-1.1 1 1.6 1 3.7 1.8 7.1Zm-6.5-3.2c-2.1-1.6-3.4-3.4-4.4-3.2s-2.5 2-3.7 3.1c1.1 1.2 2.1 3.1 3.2 3.2s2.7-1.6 4.9-3.1Z" transform="translate(0 -.6)"/><path class="bcae1f35-223b-470f-a472-46a48474a696" d="M154.9 125.6c1.7.1 3.2.1 4.7.3 4.1.6 8.2.9 7.6 7.1s-2.8 10.4-8.8 11l-2.5.2c-8.6 0-13.4-6-10.9-14.2 1.5-4.7 6.1-4.3 9.9-4.4Zm3.5 2.3c-1.4 1.8-3.3 3.1-3.1 4.1s2 2.5 3.1 3.7c1.1-1.2 2.9-2.3 3.1-3.7s-1.6-2.3-3.1-4.1Z" transform="translate(0 -.6)"/><path class="ed331f95-4b5c-4154-a46e-1e8681ff9f04" d="M196.1 130.3c-2.2 1.5-3.6 3.1-4.9 3.1s-2.1-2-3.2-3.2c1.2-1.1 2.3-2.8 3.7-3.1s2.3 1.6 4.4 3.2ZM158.4 127.9c1.5 1.8 3.3 3.2 3.1 4.1s-2 2.5-3.1 3.7c-1.1-1.2-2.8-2.3-3.1-3.7s1.7-2.3 3.1-4.1Z" transform="translate(0 -.6)"/><ellipse class="b6f31afd-9979-484a-922a-705c8a1a9ad9" cx="69.3" cy="192" rx="35.9" ry="31.7" transform="rotate(-46.8 68.4 191.5)"/><ellipse cx="63.4" cy="188.5" rx="35.9" ry="31.7" transform="rotate(-46.8 62.7 188)" style="stroke:#fff;fill:#13aa8d;stroke-miterlimit:10;stroke-width:3px"/><path style="fill:none;stroke-linecap:round;stroke-linejoin:round;stroke-width:11px;stroke:#fff" d="m47.6 185.4 17 15 35.4-50.7"/><path class="b4a5e524-1143-4b9b-a50e-08ce38e42aba" d="M402.1 339.7a21 21 0 0 1-21.1-21.3 21.8 21.8 0 0 1 21.8-21.3 21 21 0 0 1 21.1 21.3 21.7 21.7 0 0 1-21.8 21.3Zm.5-27.7a6.5 6.5 0 0 0-6.5 6.4 6.3 6.3 0 0 0 6.3 6.4 6.6 6.6 0 0 0 6.5-6.4 6.4 6.4 0 0 0-6.3-6.4ZM363.1 287.7a35.9 35.9 0 0 1-35.9-36.4 37.1 37.1 0 0 1 37.2-36.2 35.8 35.8 0 0 1 35.9 36.3c-.3 20-17 36.3-37.2 36.3Zm1.1-62.7a26.9 26.9 0 0 0-26.9 26.3 25.8 25.8 0 0 0 26 26.4 27.1 27.1 0 0 0 27-26.3 26.1 26.1 0 0 0-26.1-26.4ZM421.6 227.7a37.2 37.2 0 0 1-37.4-37.7 38.7 38.7 0 0 1 38.7-37.8 37.2 37.2 0 0 1 37.3 37.8 38.6 38.6 0 0 1-38.6 37.7Zm1-62.5a25.4 25.4 0 0 0-25.3 24.8 24.4 24.4 0 0 0 24.5 24.8 25.4 25.4 0 0 0 25.4-24.8 24.4 24.4 0 0 0-24.6-24.8ZM343.3 157.5a31.3 31.3 0 0 1-31.5-31.8 32.6 32.6 0 0 1 32.6-31.8 31.4 31.4 0 0 1 31.5 31.8 32.5 32.5 0 0 1-32.6 31.8Zm1-56.6a25.5 25.5 0 0 0-25.5 24.8 24.5 24.5 0 0 0 24.6 24.9 25.5 25.5 0 0 0 25.4-24.9 24.4 24.4 0 0 0-24.5-24.8ZM423.4 116.9a57.2 57.2 0 0 1-57.5-58.2A59.5 59.5 0 0 1 425.4.6 57.3 57.3 0 0 1 483 58.8a59.5 59.5 0 0 1-59.6 58.1Zm1.8-102.4a45.3 45.3 0 0 0-45.3 44.2 43.6 43.6 0 0 0 43.8 44.3 45.3 45.3 0 0 0 45.2-44.2 43.5 43.5 0 0 0-43.7-44.3ZM434.7 270.2v5.2h-17.6c-.4-6.1-.2-5.3 5.5-5.2v-10.6c-3.9-.3-6.3 1.6-5.5-3.9a24.8 24.8 0 0 0 10-3.7c4.7-3.1 1.3 17.3 2.3 18.2ZM438.3 275.4c-.4-8.1-.4-6.8 7.2-6.7.4 8.1.3 6.7-7.2 6.7ZM455.9 257.8l-.3 3.5c6.9-5.1 16.9 2.8 12 10.5s-19.1 5.1-18.8-3.9h6c-.1 4.4 7.6 4.3 7.3-.2s-5.3-4.7-6.9-1.8l-5.3-.8.9-13.1H467v5.8ZM492.7 275.4c-7.5.2-7.7 1.1-11.4-5.6-3.1 6.5-4.3 5.8-11 5.6 6.9-9.6 8.9-8 .7-17.9 6.4.1 7.7-1.7 10.9 4.7 2.6-6 4.8-4.7 10.4-4.7-8.1 9.9-6.6 8.2.4 17.9Z" transform="translate(0 -.6)"/></svg>