<svg id="a0ac446a-db74-4c58-b4b8-add174709ca5" data-name="Layer 1" xmlns="http://www.w3.org/2000/svg" viewBox="0 0 608 448.4"><defs><style>.f36ee7ca-23f4-4f09-ac1b-f9a97e7a2e65{fill:#15897d}.a476ebca-5666-4566-99b6-c3359fdcc6aa{fill:#d5dde5}.a12714b2-0ee4-4c06-8b39-867c614d1f64{fill:#cad4de}.a0255291-8d10-40b6-a956-1129ba16427f{fill:#93a8bd}.a339ba0b-78c2-49aa-90b3-967e8edf6894{fill:#e8edf1}.ef04f4a5-4bed-426a-acaa-0c1c67c1fd8f{fill:#e0e6ec}.b77754ca-534b-49b7-86d0-4c973ef1efed{fill:#eaeef2}.a1450683-34f5-4dd6-be69-014758de9374{fill:#e9edf1}.a5401794-5c6b-4884-8c2f-24fc738cabd0{fill:#f3f5f7}.f6b6058e-7168-4430-b94e-d5d491596344{fill:#e4e9ee}.a084b208-d4b1-445a-be9f-f875edb01f38{fill:#95a9be}.f6db0eec-b90b-4f65-91d2-87978d4c11eb{fill:#01a891}.e5a2231f-e51e-4f2c-9125-82dcd1fadec8{fill:#fafdfc}.bcea6ea7-37d9-4889-a232-49f11b3dfce0{fill:#179c8b}.e981e1e3-10e1-417a-95ca-59c90afc13b5{fill:#159586}.b07033e1-2ac1-420a-9c58-bdb9ae0df99b{fill:#eff1f5}.f654ab78-c7d7-4467-a609-ad6ed6c5f3ce{fill:#fadb73}.a2c1561f-e837-421b-926b-816daa08b895{fill:#187f7f}.a6664949-09ec-4954-9615-d6f2cfbf5a65{fill:#159787}.aed17be5-bc91-459c-a191-d9ea4a3c4024{fill:#f8ba69}.a8939f73-f9c0-40dd-a69e-e22eeac86116{fill:#106f64}.a08a0030-5422-4671-9781-51e4a44fcbe1{fill:#3bc9a2}.ff8b9a53-1eb4-4fcf-b5fd-6af0a5f12a09{fill:#33c49e}.fb0677e9-3e4b-480a-bf6e-8ec0703b5f40{fill:#02a988}.f378f4a1-97da-4786-8dd5-b2398ffe6a0b{fill:#08ac8a}.bae83652-adc0-4e96-9df4-b6dc3c0e7131{fill:#158e80}.a960b5a1-8408-4811-8181-a77345a95696{fill:#1cb793}.f7948a60-b631-4e98-9b45-0c054d77d769{fill:#23bb96}.b4b5ab29-0a2f-4a6d-80df-9f0cb3ad2c26{fill:#2abf99}.a9ec3bac-7c3b-47b6-b492-a15ce0cf132d{fill:#f9c76c}.e118b3a7-67b2-4eec-acb7-6ff24be37cb0{fill:#138074}.e1a08926-d5c2-444b-accd-e477ed126f67{fill:#178e72}.bdb3941a-c82e-4b34-b1f6-ec0bcc102b91{fill:#11796d}.afb9a7f9-f7fa-4a1d-926e-c3387ad61f63{fill:#10766a}.a6ea2372-1d1c-46ff-925b-4dbfca88617b{fill:#1a997b}.b524e83b-b862-4193-98d7-46596cac28bf{fill:#159c8b}.a867734a-98eb-45f4-94ed-3932d7c0f5e3{fill:#10b08e}</style></defs><path class="f36ee7ca-23f4-4f09-ac1b-f9a97e7a2e65" d="m136.7 54.4 28-27.7c1.1-1.2 16.7 11.2 17.5 11.5s108.7 66.4 110.1 66.6-43.4 50.3-43.9 50c-4.1-2.4-71.6-72.7-75.7-75.1s-32.9-23.5-36-25.3Z"/><path d="M157.1 145.2c-1.6 1.6-30.8-11.7-32.3-10-3.5-2.2-14.3-10.6-17.8-12.7l-14.6-8.7-6.2-3.7-.8-.5-.7-.4h-.2l-.6-.3-.3-.2-.7-.4-.4-.2-.6-.4h-.3l-1.5-.8H80l-5.4-3.2-.3-.2c-3.6-2.1-36.6-22.6-40.2-24.8l49.8-54.3c0-.6 72.7 43.2 72.7 43.1l61 37.7c6.8 4-62.1 39-60.5 40Z" style="fill:#10675d"/><path class="a476ebca-5666-4566-99b6-c3359fdcc6aa" d="M450.5 337.4a4.4 4.4 0 0 1-1 4.5c-.4 0-.9-.2-1.2 0l-13.4 7.6-47.4 27.4-40.7 23.6-31.9 18.4c-2.4 1.4-4.7 3.6-7.8 2.9a24.5 24.5 0 0 1-6.8-2.6l-42.8-24.5-36.3-21.2-33.6-19.3-29.9-17.3-24.4-14-25.6-14.9-29.1-16.8-8.6-4.3c-2.9-1.4-1.2-4 1.7-5.6l12-6.8a11.5 11.5 0 0 0 2.3-2.1c3.5-1.8 7.1-3.5 10.6-5.4l34.3-19.8 12.1-7.3 21.5-12.5 12.7-7c2.5-1.4 4.9-3 7.3-4.5s3.8-2 5.6-3.1l15.9-9.4c2.9-1.3 5.8-2.6 9.1-2l40.2 23.1 62.4 36 71.4 41.3Zm-193 1c-.5-.9-.8-2.2-1.6-2.7-4.2-2.6-8.6-5.1-12.9-7.6l-34.6-20c-4.2-2.5-8.2-4.1-13-1.2s-10.7 6.2-16.1 9.3l-17.1 10.1c-.9.5-2.3 1-1.2 2.6s.7 1.7 1.4 2.1l49.6 28.9a10 10 0 0 0 10.8-.2l28.8-16.7c2.1-1.3 3.9-3.1 5.9-4.6Zm154.5-2 1.9-1.2a17.7 17.7 0 0 0-1.2-1.7 8.8 8.8 0 0 0-1.9-1.2l-29.5-16.9-43.4-25.1-43-25-45.1-25.9-27.6-16a5.9 5.9 0 0 0-6.4-.2l-8.5 5-22.1 12.7-22.1 12.9-13.8 8a2.8 2.8 0 0 0-1.2 1.9c0 .3.9.8 1.4 1.2a19.9 19.9 0 0 0 2.1 2l25.6 14.8 30 17.1 23 13.4 30.6 17.7 21.7 12.7 32.4 18.5c8.5 4.9 16.9 10 25.5 14.7a5.3 5.3 0 0 0 4.6-.1c7.5-4 14.7-8.3 22-12.6l42.7-24.6a15.1 15.1 0 0 0 2.3-2.1Z"/><path d="m486.9 258.8-10.4 10.8 1.5 1.1 26.2 19.1 2.2 1.6c3.5 3 3.6 7.7.2 11.2l-17 16.9-1.6 1.9c-3.1 3-6.6 3.7-10.5 1.5l-1.8-2.2-13.1-18-2.6-3.4-5.6-8.1-2.4 2.5-9.8 9.6c-4.6 4.6-10.7 3.2-12.8-2.9l-25.3-76c-.6-1.7-.7-3.3.6-4.7s3.2-1.1 4.9-.5l26 8.7 26.3 8.6 8 2.7 3.1 1c4.3 1.5 8.7 2.9 12.9 4.5s6.7 7.9 2.8 12.1Z" style="fill:#f7971f"/><path class="a12714b2-0ee4-4c06-8b39-867c614d1f64" d="m70 286.9 8.6 4.3 29.1 16.8 25.6 14.9 24.4 14 29.9 17.3 33.6 19.3 36.3 21.2 42.8 24.5a24.5 24.5 0 0 0 6.8 2.6c3.1.7 5.4-1.5 7.8-2.9l31.9-18.4 40.7-23.6 47.4-27.4 13.4-7.6c.3-.2.8 0 1.2 0-1.1 3.3-2.1 6.6-3.5 9.8a5.8 5.8 0 0 1-2.7 2.4L422 366.4l-39 22.5-12.5 7.2-9.5 5.8c-2 1-3.9 2-5.9 3.2-13.6 7.8-27.2 15.5-40.7 23.6-5.2 3.1-9.8 4.3-15.4.8-9.7-6-19.7-11.5-29.5-17.2l-29.9-17.4-14.6-8a2.7 2.7 0 0 0-1.1-1l-22.8-13.2-31.4-18.2-29.3-16.9-29.3-16.9-10.1-5.8c-8.1-4.7-16.3-9.3-24.3-14.2a9.6 9.6 0 0 1-3.3-4.3c-1.4-2.9-2.3-6-3.4-9Zm302.1 101.9c-3 1.7-6 3.3-8.7 5.2-.7.4-.7 2-1 3.1l.8.5c2.4-1.4 4.7-2.9 7.2-4.1s2.5-2.3 1.7-4.7Zm-13.5 7.9a74.2 74.2 0 0 0-7.9 4.5c-.9.6-1 2.2-1.4 3.3l.9.6a75.1 75.1 0 0 1 6.8-3.9c2-.9 2.4-2.2 1.6-4.5Z"/><path class="a0255291-8d10-40b6-a956-1129ba16427f" d="m452 293.7 2.4-2.5 5.6 8.1-.5 1.3-3.5 20.7-2.4 15.1-3.1 1-61.4-35.6-71.4-41.3-62.4-36-40.2-23.1c-2.4-2.6-2.1-5.6-1.5-8.7s.6-4.2.9-6.3 1.3-6.4 2-9.5l7.5 4-1.9 12.5c-.9 1.6-.4 2.6 1.3 3.5l7.8 4.4 49.5 28.7 53.4 30.8 49 28.4 53.2 30.7 10.4 5.9 2.6-15.1Z"/><path class="a339ba0b-78c2-49aa-90b3-967e8edf6894" d="m225 386.9 14.6 8c10 5.8 19.9 11.7 29.9 17.4s19.8 11.2 29.5 17.2c5.6 3.5 10.2 2.3 15.4-.8 13.5-8.1 27.1-15.8 40.7-23.6 2-1.2 3.9-2.2 5.9-3.2l8.4 4.6 5.6 3.8c-2.8 1.8-5.6 3.6-8.4 5.2-9.7 5.8-19.4 11.5-29.2 17.1-7.9 4.6-15.9 9.3-24 13.7-5.9 3.3-11.7 2.5-17.4-.9a2115 2115 0 0 0-32.6-18.8l-52.3-30.2-1.1-1c.4-.1 1-.5 1.3-.3 2.7 2.1 4.1.5 6-1.5a82.1 82.1 0 0 1 7.7-6.7Z"/><path class="a0255291-8d10-40b6-a956-1129ba16427f" d="m469.9 239.2-8-2.7 4.3-26 5.1-30.2 3.1-17.4c.4-1.9-.6-2.5-1.9-3.2l-32.4-18.8L367.5 99l-69-39.9a36.4 36.4 0 0 0-4.9-2.2l.9-9 3.2 1.3L330.3 68l57.2 33.1 39.9 23.1q20.3 11.5 40.4 23.4c5 2.9 9.8 6.2 14.6 9.3a38.8 38.8 0 0 1 .2 5.9l-2.1 13-5.7 34-4.9 29.4Z"/><path class="ef04f4a5-4bed-426a-acaa-0c1c67c1fd8f" d="M225 386.9a82.1 82.1 0 0 0-7.7 6.7c-1.9 2-3.3 3.6-6 1.5-.3-.2-.9.2-1.3.3l-1-.5c-1-1.9-4-3.7-6-3.5L182.9 380l-28.7-16.5-30.4-17.6-31.5-18.1-2.1-1.3-2.6-2.4a22.1 22.1 0 0 1 2.9-2.2l9.4-5.5c.5-.3.7-1 1.1-1.5l10.1 5.8 29.3 16.9 29.3 16.9 31.4 18.2 22.8 13.2a2.7 2.7 0 0 1 1.1 1Z"/><path d="M164.5 227.4 143 239.9c-3.5-2.2-7.1-4.5-10.7-6.6l-42.1-24.8-11.2-6.4a15.8 15.8 0 0 1-1.5-1.2l-1.1-2.7c3.9-2.1 7.7-4.1 11.3-6.4s6.6-4.3 10.8-2.9l14.3 8 34.6 20.2Z" style="fill:#e1e7ed"/><path class="ef04f4a5-4bed-426a-acaa-0c1c67c1fd8f" d="m486.9 258.8 1.8-2c3.9-4.2 2.6-10.2-2.8-12.1l-12.9-4.5.5-2.8 2-10.5 25.2 14.6 34.1 20 7.2 4.4c-.5.8-.9 2-1.6 2.5-3 1.8-6.1 3.3-9.1 5.1l-8.8 5.4-14-7.9-19.3-11.3a21.8 21.8 0 0 0-2.3-.9Z"/><path d="m206 203.4-15.9 9.4-5.6 3.1c-6.7-4-13.3-8.1-20-12l-28.1-16.6-.9-.4c.8-1 1.3-2.3 2.3-2.9l17.7-10.1 24.1 13.8 25 14.7Z" style="fill:#e6eaef"/><path d="M155.5 173.9 137.8 184c-1 .6-1.5 1.9-2.3 2.9-13-7.5-26.3-14.7-38.7-23.5l.7-1c5.7-3.3 11.4-6.4 17-9.8 2.5-1.6 4.6.2 6.2 1.1 11.6 6.4 23 13.2 34.5 19.8Z" style="fill:#f2f4f7"/><path class="b77754ca-534b-49b7-86d0-4c973ef1efed" d="M98.5 188.9c-4.2-1.4-7.4.9-10.8 2.9l-11.3 6.4 1.1 2.7-11.1-6.1L41 179.9l-.5-.5a7.7 7.7 0 0 1 1.1-3 37.1 37.1 0 0 1 4-3.9l9.4-9.1 13.7 7.6L97 187.6l1.5 1.3Z"/><path class="a1450683-34f5-4dd6-be69-014758de9374" d="M522.5 278.9c2.9-1.8 5.8-3.7 8.8-5.4s6.1-3.3 9.1-5.1c.7-.5 1.1-1.7 1.6-2.5l14.8 8.5 23.2 13.5c-.5.7-.9 1.8-1.7 2.2-5 3.1-10.1 6-15.2 9l-3.1 1.8-10-5.5-26.2-15.4a6.9 6.9 0 0 1-1.3-1.1ZM120 82.9 94.9 68.2c-2.4-1.3-4.6-2.9-6.9-4.3.2-1.1.1-2.6.7-3.2 2.5-2.6 5.3-4.9 8-7.3l5.8-5.5 9.3 5.1 26 15.3a11.2 11.2 0 0 1 2.2 1.6 47 47 0 0 0-6.3 2.2c-3.8 2-7.3 4.5-11.1 6.4-2 1-3 2.1-2.6 4.4Z"/><path class="a476ebca-5666-4566-99b6-c3359fdcc6aa" d="M482.4 156.9c-4.8-3.1-9.6-6.4-14.6-9.3q-20.1-11.8-40.4-23.4l-39.9-23.1L330.3 68l-32.6-18.8-3.2-1.3v-4.7c2.7 1.5 5 2.7 7.2 4.1l42.9 24.8c10.4 6.1 20.9 12 31.3 18l31 18 35.2 20.3 33.6 19.4a78.5 78.5 0 0 1 7.3 4.4 24.9 24.9 0 0 1 3.5 3.7Z"/><path d="M420.5 411.9c4.2 2.2 8.3 4.4 12.4 6.8s10.8 6.2 16.1 9.5a41.2 41.2 0 0 1 4.5 3.7c-1.4.9-2.3 1.6-3.3 2.1-4 2.4-8.2 4.5-12 7.1s-6.9 1.6-10.2-.3l-13-7.4-13.7-8.1a7.3 7.3 0 0 1-.8-.9 12.5 12.5 0 0 0 2.5-.9c4.5-2.5 9-5 13.4-7.8a36.2 36.2 0 0 0 4.1-3.8Z" style="fill:#f0f3f5"/><path class="a5401794-5c6b-4884-8c2f-24fc738cabd0" d="m102.5 47.9-5.8 5.5c-2.7 2.4-5.5 4.7-8 7.3-.6.6-.5 2.1-.7 3.2L77.4 58 59.9 47.6l-1.6-1.2c-3.7-2.6-3.8-2.3.1-6 2-1.8 3.8-3.8 5.7-5.7s3.1-3.3 5-4.4 4.5.4 6.4 1.5c8.6 4.8 17 9.9 25.5 14.8l1.5 1.3ZM55 163.4l-9.4 9.1a37.1 37.1 0 0 0-4 3.9 7.7 7.7 0 0 0-1.1 3l-10.4-5.8-18.3-11.1c-2.2-1.3-2.3-2-.4-3.8l10.9-10.9a3.7 3.7 0 0 1 5.1-.7l27 15.5ZM560 300.9l3.1-1.8c5.1-3 10.2-5.9 15.2-9 .8-.4 1.2-1.5 1.7-2.2l23.2 13.6a60.5 60.5 0 0 1 4.8 3.8l-5.6 3.5c-4.1 2.3-8 4.8-12.2 6.9a5.6 5.6 0 0 1-4.4.2c-8.7-4.9-17.2-10-25.8-15Z"/><path class="f6b6058e-7168-4430-b94e-d5d491596344" d="M120 82.9c-.4-2.3.6-3.4 2.6-4.4 3.8-1.9 7.3-4.4 11.1-6.4a47 47 0 0 1 6.3-2.2l13.2 7.4a40 40 0 0 0 4.2 2L154 100l-.6 1.9-12.6-7Z"/><path d="m383 388.9 39-22.5 5.7 4.1 5.8 3.4c2 1.2 1.9 1.9-.1 3l-35.9 21-1-.5-10.1-5.9a27.8 27.8 0 0 1-3.4-2.6Z" style="fill:#edf0f3"/><path class="a339ba0b-78c2-49aa-90b3-967e8edf6894" d="m396.5 397.4 1 .5 21.5 12.7 1.5 1.3a36.2 36.2 0 0 1-4.1 3.8c-4.4 2.8-8.9 5.3-13.4 7.8a12.5 12.5 0 0 1-2.5.9l-24-14a5 5 0 0 1 1.2-1.3l17.3-10a8.3 8.3 0 0 0 1.5-1.7Z"/><path class="a5401794-5c6b-4884-8c2f-24fc738cabd0" d="M70 286.9v.5l-12.4-6.8c-4-2.3-6.6-4-9.7-6.1s-2.4-2.4 0-3.8c4.9-3 9.9-5.8 14.8-8.7a5.3 5.3 0 0 1 5.4-.3L86 272.4a11.5 11.5 0 0 1-2.3 2.1l-12 6.8c-2.9 1.6-3.2 2.7-1.7 5.6ZM477.5 322.9c3.9 2.2 7.4 1.5 10.5-1.5l11.3 7.1c5.7 3.4 5.8 3.6.4 6.9s-8.7 5.3-13.2 7.5a6.2 6.2 0 0 1-5-.1c-6.5-3.5-12.7-7.2-19.1-10.8-.2-.1-.3-.4-.4-.6l4-1.9Z"/><path d="M396.5 397.4a8.3 8.3 0 0 1-1.5 1.7l-17.3 10a5 5 0 0 0-1.2 1.3H375l-5.6-3.8-8.4-4.6 9.5-5.8L383 389a27.8 27.8 0 0 0 3.4 2.6Z" style="fill:#dbe2e9"/><path class="a12714b2-0ee4-4c06-8b39-867c614d1f64" d="m482.4 156.9 4.1-1c-.3 3.1-.2 6.2-.7 9.3l-5.8 34.7a2575 2575 0 0 0-4.3 24.7 9 9 0 0 0-.2 2.3l-2 10.5-.5 2.8-3.1-1 4.9-29.4 5.7-34 2.1-13a38.8 38.8 0 0 0-.2-5.9Z"/><path class="a5401794-5c6b-4884-8c2f-24fc738cabd0" d="m216.5 176.9-2 9.5c-1.5-.7-3.2-1.3-4.7-2.1l-17.6-10.6a12.6 12.6 0 0 1-3.4-3.1c-.4-.5 0-1.7.3-2.5a3.2 3.2 0 0 1 1.3-.7c2.3-.7 3.5-2 2.6-4.5l12.3 7 2.2 1 2.4 1.7Z"/><path class="b77754ca-534b-49b7-86d0-4c973ef1efed" d="m477.5 322.9-11.5 6.6-4 1.9-4-1.5 1.5-8.7 3.1-18.5 13.1 18Z"/><path class="a12714b2-0ee4-4c06-8b39-867c614d1f64" d="m462.6 302.7-3.1 18.5-1.5 8.7c-.6 2.8-.4 6.1-4.4 6.5l2.4-15.1 3.5-20.7.5-1.3Z"/><path class="a339ba0b-78c2-49aa-90b3-967e8edf6894" d="M203 391.4c2-.2 5 1.6 6 3.5Z"/><path d="M412 336.4a15.1 15.1 0 0 1-2.3 2.1L367 363.1c-7.3 4.3-14.5 8.6-22 12.6a5.3 5.3 0 0 1-4.6.1c-8.6-4.7-17-9.8-25.5-14.7l-32.4-18.5-21.7-12.7-30.6-17.7-23-13.4-30-17.1-25.6-14.8a19.9 19.9 0 0 1-2.1-2l17.7-10 49.5-28.8a5.5 5.5 0 0 1 4-.1 63.8 63.8 0 0 1 6.7 3.8l28.9 16.6 29.3 17 28.3 16.3 29.3 17 31.3 18Zm-62.2 29.7L327.4 353l-43.7-25.2-43.4-25.1-46.7-26.9-25.9-15c-.9-.5-2.2-1.1-3-.8a56.4 56.4 0 0 0-6.6 3.7l1.6 1.2 20.3 11.7 47.8 27.6 46.9 27.1 39.3 22.8 26.2 15.1c.8.4 2.1 1 2.8.7 2.2-1 4.2-2.3 6.8-3.8Zm23.4-13.6-2.3-1.6-57.2-33.2-65.9-38-57.2-33.1a3.8 3.8 0 0 0-1.8-.6l-7.1 4 2.8 1.8 22.7 13.1 78.8 45.5 78.2 45.3a3.3 3.3 0 0 0 2.5.4c2.2-1 4.2-2.3 6.5-3.6ZM170.1 257a8.8 8.8 0 0 0 1.7 1.2l21 12.1 43.4 25.1 46 26.6 46.6 26.9c7.9 4.6 15.7 9.2 23.6 13.6a3.4 3.4 0 0 0 2.9.3 57.9 57.9 0 0 0 6.2-3.6l-2.3-1.5-62.3-35.9-69.7-40.4c-14.5-8.3-29-16.6-43.4-25.1-6.8-3.9-6.7-4-13.4.3l-.3.4Zm41.7-24.4 2.2 1.5 11.2 6.4 68 39.4 83.4 48.2c.8.4 1.9.9 2.5.6 2.3-1 4.4-2.3 6.8-3.6a13.3 13.3 0 0 0-1.7-1.4c-9.2-5.3-18.5-10.5-27.7-15.9l-65.6-38-47.3-27.4-22.9-13.1a3.2 3.2 0 0 0-2.5-.3c-2 1-4 2.2-6.4 3.6Zm145.7 96.9-3.3-2-28.1-16.3-45.8-26.4L241 262l-38.9-22.4a2.4 2.4 0 0 0-1.8-.3l-6.8 3.9 1.3.8 33.3 19.3 46.5 26.8q23.5 13.8 47.3 27.4l26.1 15.1a4.2 4.2 0 0 0 3 .6c2.1-.9 4-2.3 6.5-3.7Zm27.5 16.3-.6-.8-13.3-7.8a2.1 2.1 0 0 0-1.9-.1l-6.3 3.6.6.8 13.4 7.8a1.9 1.9 0 0 0 1.8.1l6.3-3.6Zm18.4-10.5c-5.3-4.9-10.3-4.9-14.2.1l6 3.4a1.9 1.9 0 0 0 1.8 0l6.4-3.5Z" style="fill:#e2e8ed"/><path class="f6b6058e-7168-4430-b94e-d5d491596344" d="M257.5 338.4c-2 1.5-3.8 3.3-5.9 4.6l-28.8 16.7a10 10 0 0 1-10.8.2L162.4 331c-.7-.4-1-1.4-1.4-2.1l8.3-5 27.5-16a7.3 7.3 0 0 1 7.8 0l12.6 7.1Z"/><path class="a12714b2-0ee4-4c06-8b39-867c614d1f64" d="m412 336.4-37.5-21.7-31.3-18-29.3-17-28.3-16.3-29.3-17-28.9-16.6a63.8 63.8 0 0 0-6.7-3.8 5.5 5.5 0 0 0-4 .1l-49.5 28.8-17.7 10c-.5-.4-1.4-.9-1.4-1.2a2.8 2.8 0 0 1 1.2-1.9l13.8-8 22.1-12.9 22.1-12.7 8.5-5a5.9 5.9 0 0 1 6.4.2l27.6 16 45.1 25.9 43 25 43.4 25.1 29.5 16.9a8.8 8.8 0 0 1 1.9 1.2 17.7 17.7 0 0 1 1.2 1.7ZM257.5 338.4 217.2 315l-12.6-7.1a7.3 7.3 0 0 0-7.8 0l-27.5 16-8.3 5c-1.1-1.6.3-2.1 1.2-2.6l17.1-10.1c5.4-3.1 10.8-6.1 16.1-9.3s8.8-1.3 13 1.2l34.6 20c4.3 2.5 8.7 5 12.9 7.6.8.5 1.1 1.8 1.6 2.7Z"/><path d="M473 173.9c-1.7 10-5.1 26.5-6.8 36.6l-4.3 26-26.3-8.6-26-8.7c-1.7-.6-3.5-1-4.9.5s-1.2 3-.6 4.7q12.8 37.9 25.3 76c2.1 6.1 8.2 7.5 12.8 2.9l9.8-9.6-2.7 17-2.6 15.1-10.4-5.9-53.2-30.7-49-28.4-53.4-30.8-49.5-28.7c-2.6-1.5-5.1-3.1-7.8-4.4s-2.2-1.9-1.3-3.5a16.6 16.6 0 0 0 3.1-1.2c3-1.8 5.9-3.8 8.8-5.7l11.5 6.4 1 .7c12.7 7.3-47.4-51.9-34.7-44.6 7.3 4.3 63.7-47.1 77.6-77.7 2.2-4.8 76.1 41.8 79.3 43.7 10.3 6.1 20 10.3 30.4 16.3 16 9.3 30.3 19.3 46.4 28.5 9.3 5.3 18.3 8.8 27.5 14.1Zm-27.8 19.4c1.1-.8 2.6-1.4 3.4-2.4s1-5.2-2.1-7l-35.9-21.1-44.2-25.8c-2.8-1.6-5.6-1.1-7 1.3s-.4 5.1 2.3 6.7l79.7 46.7a39.8 39.8 0 0 0 3.8 1.6Zm.3 17.1c.1-2.7-1.9-3.7-3.7-4.8l-60-35.1-19.6-11.4a4.8 4.8 0 0 0-5.4 0 4 4 0 0 0-1.6 4.9 9.1 9.1 0 0 0 3.5 3.8q27.9 16.5 56 32.8l23.3 13.6c3.7 2.1 7.6.1 7.5-3.8Zm-35.4 61.1.5-.4c-1.2-3.4-2.2-6.9-3.6-10.3a7.2 7.2 0 0 0-2.8-3.4c-13.5-8.1-27.1-16-40.6-23.9l-13.6-7.9a4.6 4.6 0 0 0-4.7 8l1.5.9 43.3 25.3ZM399.9 241l.5-.4c-1.2-3.5-2.2-7-3.5-10.4a7 7 0 0 0-2.7-3.2c-7-4.3-14.2-8.4-21.3-12.6l-18.7-10.9a4.6 4.6 0 0 0-6.5 1.5c-1.4 2.3-.7 4.9 1.7 6.5l1.5.9 39.4 23Zm6.1-31.7c.2.2.1 0 0 0l-47.9-28a4.5 4.5 0 0 0-6.5 1.5c-1.4 2.3-.6 5 2 6.6l8 4.6 35 20.5Z" style="fill:#17ae9d"/><path class="a084b208-d4b1-445a-be9f-f875edb01f38" d="M372.1 388.8c.8 2.4.4 3.7-1.7 4.7s-4.8 2.7-7.2 4.1l-.8-.5c.3-1.1.3-2.7 1-3.1 2.7-1.9 5.7-3.5 8.7-5.2ZM358.6 396.7c.8 2.3.4 3.6-1.6 4.5a75.1 75.1 0 0 0-6.8 3.9l-.9-.6c.4-1.1.5-2.7 1.4-3.3a74.2 74.2 0 0 1 7.9-4.5Z"/><path d="m173.9 126.3.2-.9.7.4Z" style="fill:#a8b8ca"/><path class="f6db0eec-b90b-4f65-91d2-87978d4c11eb" d="m224 180.9 10 5.6c-2.9 1.9-5.8 3.9-8.8 5.7a16.6 16.6 0 0 1-3.1 1.2l1.9-12.5Z"/><path class="a084b208-d4b1-445a-be9f-f875edb01f38" d="M349.8 366.1c-2.6 1.5-4.6 2.8-6.8 3.8-.7.3-2-.3-2.8-.7L314 354.1l-39.3-22.8-46.9-27.1-47.8-27.6-20.3-11.7-1.6-1.2a56.4 56.4 0 0 1 6.6-3.7c.8-.3 2.1.3 3 .8l25.9 15 46.7 26.9 43.4 25.1 43.7 25.2ZM373.2 352.5c-2.3 1.3-4.3 2.6-6.5 3.6a3.3 3.3 0 0 1-2.5-.4L286 310.4l-78.8-45.5-22.7-13.1-2.8-1.8 7.1-4a3.8 3.8 0 0 1 1.8.6l57.2 33.1 65.9 38 57.2 33.2ZM170.1 257l.3-.4c6.7-4.3 6.6-4.2 13.4-.3a3754 3754 0 0 0 43.4 25.1l69.7 40.4 62.3 35.9 2.3 1.5a57.9 57.9 0 0 1-6.2 3.6 3.4 3.4 0 0 1-2.9-.3c-7.9-4.4-15.7-9-23.6-13.6L282.2 322l-46-26.6-43.4-25.1-21-12.1a8.8 8.8 0 0 1-1.7-1.2ZM211.8 232.6c2.4-1.4 4.4-2.6 6.4-3.6a3.2 3.2 0 0 1 2.5.3l22.9 13.1 47.3 27.4 65.6 38c9.2 5.4 18.5 10.6 27.7 15.9a13.3 13.3 0 0 1 1.7 1.4c-2.4 1.3-4.5 2.6-6.8 3.6-.6.3-1.7-.2-2.5-.6l-83.4-48.2-68-39.4-11.2-6.4ZM357.5 329.5c-2.5 1.4-4.4 2.8-6.5 3.7a4.2 4.2 0 0 1-3-.6l-26.1-15.1-47.3-27.4-46.5-26.8-33.3-19.3-1.3-.8 6.8-3.9a2.4 2.4 0 0 1 1.8.3L241 262l39.3 22.8 45.8 26.4 28.1 16.3ZM385 345.8l-6.3 3.6a1.9 1.9 0 0 1-1.8-.1l-13.4-7.8c-.2-.1-.2-.4-.6-.8l6.3-3.6a2.1 2.1 0 0 1 1.9.1l13.3 7.8c.2.1.3.4.6.8ZM403.4 335.3l-6.4 3.5a1.9 1.9 0 0 1-1.8 0l-6-3.4c3.9-5 8.9-5 14.2-.1Z"/><path class="e5a2231f-e51e-4f2c-9125-82dcd1fadec8" d="M445.2 193.3a39.8 39.8 0 0 1-3.8-1.6L361.7 145c-2.7-1.6-3.6-4.3-2.3-6.7s4.2-2.9 7-1.3l44.2 25.8 35.9 21.1c3.1 1.8 4 4.7 2.1 7s-2.3 1.6-3.4 2.4ZM445.5 210.4c.1 3.9-3.8 5.9-7.5 3.8l-23.3-13.6q-28.1-16.3-56-32.8a9.1 9.1 0 0 1-3.5-3.8 4 4 0 0 1 1.6-4.9 4.8 4.8 0 0 1 5.4 0l19.6 11.4 60 35.1c1.8 1.1 3.8 2.1 3.7 4.8ZM410.1 271.5l-20-11.7-43.3-25.3-1.5-.9a4.6 4.6 0 0 1 4.7-8l13.6 7.9c13.5 7.9 27.1 15.8 40.6 23.9a7.2 7.2 0 0 1 2.8 3.4c1.4 3.4 2.4 6.9 3.6 10.3ZM399.9 241l-9.6-5.6-39.4-23-1.5-.9c-2.4-1.6-3.1-4.2-1.7-6.5a4.6 4.6 0 0 1 6.5-1.5l18.7 10.9c7.1 4.2 14.3 8.3 21.3 12.6a7 7 0 0 1 2.7 3.2c1.3 3.4 2.3 6.9 3.5 10.4ZM406 209.3l-9.4 5.2-35-20.5-8-4.6c-2.6-1.6-3.4-4.3-2-6.6a4.5 4.5 0 0 1 6.5-1.5l47.9 28c.1 0 .2.2 0 0Z"/><path class="f6db0eec-b90b-4f65-91d2-87978d4c11eb" d="M290.4 68.7c1.5-3.8 2.2-7.9 3.2-11.8a36.4 36.4 0 0 1 4.9 2.2l69 39.9 72.6 41.9 32.4 18.8c1.3.7 2.3 1.3 1.9 3.2l-3.1 17.4-27.8-15.9-48.3-27.7c-10.4-6-20.7-12.2-31.1-18.3-3.2-1.8-68.6-40.2-76-44.4-1.4.7-2.9 8.2 2.3-5.3Z"/><path class="bcea6ea7-37d9-4889-a232-49f11b3dfce0" d="M298.7 104.8a3.7 3.7 0 0 1-.5 1.1l-32.3 34.9-16 17.5-1 1.1-8.4-5.1-17.6-10.5 4.3-5 8.9 5.1 11 6.7a1.4 1.4 0 0 0 2.1-.2c4.7-5.3 9.5-10.7 14.4-15.9l24.5-26.5a10.9 10.9 0 0 0 1-1.1l-3.7-2.2-12.4-7.2-4.5-3 4.4-4.8 15.9 9.3ZM279.4 181.8l-.6 1-29.4 31.9-19 20.7c-.5.6-.9.9-1.8.3L203.7 221l-.2-.2 3.5-3.8a5.8 5.8 0 0 0 .5-1.4l1.4.7 4.1 2.3 2.4 1.3 12.3 7.6a1.4 1.4 0 0 0 2.2-.3q11.1-12.3 22.5-24.6l16.2-17.4 1.2-1.4-15.9-9.2-4.6-3.1 4.4-4.7 14.2 8.3Z"/><path class="f36ee7ca-23f4-4f09-ac1b-f9a97e7a2e65" d="M63.4 96.5 52 89.9l-16.7-10-.7-.4c.1-.4.2-.9.5-1.1l9.1-10.3L74 35.7l8.9-9.7c.9-1 1.6-.9 2.7-.2l13.2 7.8 4.6 3-3.6 5.5-1.1-.8L86 33.7c-1-.6-1.5-.6-2.2.2L64.5 55.1 44.8 76.2l-1 1.1 8.9 5.1 7.6 4.7 7.5 4.6ZM108.1 164.2l-12.6-7.5c-.5-.3-1.3-.4-.9-1.3l1.4-1.1 33.9-36.5c4.4-4.7 8.8-9.6 13.1-14.5.2-.2.4-.3.5-.6s1.1-.9 2-.4c3.8 2.4 7.7 4.6 11.5 6.9l14 8.4-4.5 4.9-5.3-3.1-7.7-4.4-1.4-1c-1.9-1.1-3.8-2.1-5.6-3.3a1.6 1.6 0 0 0-2.4.2l-27.9 30.4-10.9 11.8-.9 1 .7.5 8.9 5.5Z"/><path class="e981e1e3-10e1-417a-95ca-59c90afc13b5" d="M207.5 215.6a5.8 5.8 0 0 1-.5 1.4l-3.5 3.8-17-10-35.3-21a11.8 11.8 0 0 0-1.9-1.1l1.4-7 9.5 5.7 6.6 3.8 12.6 7.4 5.9 3.7 11.6 6.8 3 1.9Z"/><path class="b07033e1-2ac1-420a-9c58-bdb9ae0df99b" d="M107.3 132.1a20.3 20.3 0 0 1-2 2.1 1.3 1.3 0 0 1-1.2-.1l-14.6-8.8-14.8-8.8L55.8 105 35 92.5l-18.1-11c-3.8-2.3-7.4-4.9-11.2-7.3-1.4-1-.1-1.6-.2-2.4s1.1-.2 1.5 0l26.1 15.3 24.3 14.7 34.3 20.8 15 9Z"/><path class="f654ab78-c7d7-4467-a609-ad6ed6c5f3ce" d="M106.1 34.3a21.6 21.6 0 0 1 8.1-3.8l8.1.6a28.6 28.6 0 0 1 9.4 5.7l6.2 7.9 2 4.1a6.5 6.5 0 0 1 .4 1.3l1.7 7.3v2.1l-.5 7.2a10.9 10.9 0 0 0-.5 1.7 18.9 18.9 0 0 1-11.4 12.7h-.9c-4.3 1.2-8.6.4-12.9-1.7a28.9 28.9 0 0 1-9-7.7 34.5 34.5 0 0 1-5.9-11.7 31.4 31.4 0 0 1-1.2-10.5 24.1 24.1 0 0 1 3.7-11.6ZM138.7 54c-.8-2.1-1.4-4.3-2.3-6.4a25.4 25.4 0 0 0-11.9-12.7c-5.7-2.9-12.8-2-16.7 2.1a18.9 18.9 0 0 0-5.3 13.2c-.1 2.7.6 5.5.9 8.2v.6a28.1 28.1 0 0 0 11.2 16.5 14.9 14.9 0 0 0 5.6 2.5 20.3 20.3 0 0 0 5.5 0c4.4-.4 8.3-1.7 10.6-5.5 3.2-5.5 4-11.7 2.4-18.5ZM108.1 164.2l5.9-4.1 8.9-2.4c2.5.2 4.9.2 7.4.6s6.2 2 9.1 3.7l3.7 3.2a9.4 9.4 0 0 0 .9 1.2 19.8 19.8 0 0 1 4.3 8.7c1.6 7.2-.4 13.1-4.4 18.1a23.9 23.9 0 0 1-9.6 7 24.7 24.7 0 0 1-17.2.8c-1.8-.6-3.6-1.4-5.3-2.1l-.8-.5a21.1 21.1 0 0 1-9.9-21.4 20.9 20.9 0 0 1 7-12.8Zm9.8-2.4a20.9 20.9 0 0 0-11.7 9.3 17.7 17.7 0 0 0-2.4 13.1 19.3 19.3 0 0 0 13 14.1 24 24 0 0 0 12.7.5 22.3 22.3 0 0 0 9-4.4 45.8 45.8 0 0 0 4.2-4.6 17.2 17.2 0 0 0 3.2-13.2c-.4-2.9-1.9-5.5-3.4-8a15.2 15.2 0 0 0-3.8-3.8 20.3 20.3 0 0 0-8.6-3.9 21.8 21.8 0 0 0-12.2.9Z"/><path class="a2c1561f-e837-421b-926b-816daa08b895" d="m171 117.6-14-8.4c-3.8-2.3-7.7-4.5-11.5-6.9-.9-.5-1.7-.7-2 .4s-.3.4-.5.6c-4.3 4.9-8.7 9.8-13.1 14.5L96 154.3l-1.4 1.1c-.7-.7-.3-1 .1-1.4l4.8-5.2 18.2-19.9 4.5-4.9 6.9-7.4a6.7 6.7 0 0 0 .7-1.1l1.3-1 6.8-7.8a4.5 4.5 0 0 0 1.3-1l4.1-4.8c.5-.6.9-.7 1.7-.2l8.8 5.3 7.9 4.5.4.4 12.2 7.3 10.9 6.3 5 3.1 5.5 2.9 1.1 1 57.6 34.2 23.7 14c.9.6 1.4 1.1 1.3 2.1l-11.5-6.7-14.2-8.3c-.2-.2-.4-.5-.7-.6l-32.8-19.5-13.8-8.1-19.7-11.7ZM140.3 50.1a6.5 6.5 0 0 0-.4-1.3l15.4-16.7 8.1-8.8 9.2 5.6 5.7 3.2 6.4 3.8 10.5 6.2 66.5 39.5 35.4 21c.8.5 1.8 1 1.6 2.2l-9.9-5.8-15.9-9.3-16.7-10-20.7-12.3-9.6-5.5-4.8-3-30.9-18.4-3.4-2.2L165 25.5a1.4 1.4 0 0 0-2 .2c-6.1 6.9-12.9 13.2-18.4 20.6l-4.3 3.8Z"/><path class="b07033e1-2ac1-420a-9c58-bdb9ae0df99b" d="m55.2 45.8-2 2.1c-.7.6-1.1 0-1.5-.2l-10.6-6.4L9.1 22l-6.6-4a8.1 8.1 0 0 1-1.9-1.8c-.4-.5-.8-1.5-.5-1.8s1.2-1.3 2.2-.3a1 1 0 0 0 .5.4l18.7 10.8 27 16.2 5.9 3.6ZM98.6 141.5c-.6 1.2-1.5.9-2.8.1l-27.3-16.4-18.8-11.4a15.7 15.7 0 0 1-2.5-2c-.8-.7-.8-1.5-.3-2a2.3 2.3 0 0 1 1.8-.3c2.7 1.4 5.5 2.9 8.1 4.5 4.1 2.3 8.1 4.8 12.2 7.2l21 12.7 8.2 4.9c1.9 1.1 1.9 1.1.4 2.7Z"/><path class="a6664949-09ec-4954-9615-d6f2cfbf5a65" d="m227.2 138.8-4.3 5-25.3-15a38.5 38.5 0 0 0 2.7-3 2.9 2.9 0 0 0 .5-1.3l1.2-.9 4.4 2.8 10.4 6Z"/><path class="b07033e1-2ac1-420a-9c58-bdb9ae0df99b" d="m122.3 31.1-8.1-.6-7.3-4.6L90 15.5C85.9 13 81.7 10.6 77.7 8a30.3 30.3 0 0 1-4.3-3 2 2 0 0 1-.5-1.8c.2-.4 1.1-.6 1.7-.5s1.1.6 1.6.9c5.7 3.3 11.5 6.5 17.2 9.9l22.1 13.4 5.6 3.3ZM63.7 36.6a14.9 14.9 0 0 1-2.1 2.2 1.5 1.5 0 0 1-1.3 0l-11.4-6.9-17-10.2-6-3.7a15 15 0 0 1-2.4-2c-.2-.3 0-1.1.2-1.5a1.2 1.2 0 0 1 1.9-.6l8 4.6 17.8 10.7 10 5.9ZM147.5 34.5a22.8 22.8 0 0 1-2.2 2.2 1.3 1.3 0 0 1-1.2 0l-22.5-13.6-11.7-7.1a8.3 8.3 0 0 1-2.3-1.9 2 2 0 0 1-.2-1.7 1.6 1.6 0 0 1 1.6-.5l3.9 1.8L138.4 29ZM45.7 56c-.5 1.2-1.5.9-2.8.1-6.8-4.3-13.7-8.4-20.6-12.6l-12.1-7.3a14.3 14.3 0 0 1-2.4-1.9c-.6-.4-1.5-.8-1-1.7s1.4-1 2.5-.6c4 1.6 7.7 4.2 11.5 6.5 8.2 4.8 16.3 9.8 24.5 14.7 2 1.2 2 1.1.4 2.8ZM92.2 148.3a22.3 22.3 0 0 1-2.1 2.2c-.2.2-.9.1-1.2-.1l-12.2-7.3-15.3-9.3c-1.2-.7-2.3-1.7-3.5-2.5a1.8 1.8 0 0 1-.5-2.7 2.3 2.3 0 0 1 2.1.2l16.4 9.5 15.1 9.1ZM98.2 167.9a20.7 20.7 0 0 1-2.1 2.1 1.2 1.2 0 0 1-1.4-.1l-13.9-8.5-14.8-8.9a10.8 10.8 0 0 1-2.4-1.8c-.3-.3-.5-1.1-.3-1.3s.4-1.9 1.7-1.2l5.9 3.1 26.3 15.8Z"/><path class="a2c1561f-e837-421b-926b-816daa08b895" d="m103.4 36.6-4.6-3-13.2-7.8c-1.1-.7-1.8-.8-2.7.2L74 35.7 44.2 68.1l-9.1 10.3c-.3.2-.4.7-.5 1.1s-1.1-1.6-.3-2.4l5.7-6.4 28-30.4 14.7-16 .9-1 20.7 12.3Z"/><path class="aed17be5-bc91-459c-a191-d9ea4a3c4024" d="M111.8 198.9c1.7.7 3.5 1.5 5.3 2.1a24.7 24.7 0 0 0 17.2-.8 23.9 23.9 0 0 0 9.6-7c4-5 6-10.9 4.4-18.1a19.8 19.8 0 0 0-4.3-8.7 9.4 9.4 0 0 1-.9-1.2l3.6 3.7a22.5 22.5 0 0 1 4 12.8l-1.4 7a22.8 22.8 0 0 1-7.7 9.9A25.3 25.3 0 0 1 115 201a29.2 29.2 0 0 1-3.2-2.1ZM103.4 36.6l.9-1 1.8-1.3-2.7 3.6a24.1 24.1 0 0 0-3.7 11.6 31.4 31.4 0 0 0 1.2 10.5 34.5 34.5 0 0 0 6.1 11.7 28.9 28.9 0 0 0 9 7.7c4.3 2.1 8.6 2.9 12.9 1.7h.9v.2l-2.2.8a18.8 18.8 0 0 1-11.2-.7 27.8 27.8 0 0 1-8.6-5.8 33.1 33.1 0 0 1-8.3-13.9 32.3 32.3 0 0 1-1.3-13l1.7-6.6Z"/><path class="a8939f73-f9c0-40dd-a69e-e22eeac86116" d="M200.8 124.5a2.9 2.9 0 0 1-.5 1.3 38.5 38.5 0 0 1-2.7 3l-1.9 1.7-5.5-2.9 5.9-6.4.2-.1 2.4 1.4a19.9 19.9 0 0 1 2.1 2Z"/><path class="b07033e1-2ac1-420a-9c58-bdb9ae0df99b" d="m137.9 44.7-6.2-7.9 8.8 5.2Z"/><path class="a8939f73-f9c0-40dd-a69e-e22eeac86116" d="m85.4 109.6.8.5ZM84.7 109.2l.7.4ZM82.9 108.1l.7.4Z"/><path class="aed17be5-bc91-459c-a191-d9ea4a3c4024" d="m111 198.4.8.5Z"/><path class="a8939f73-f9c0-40dd-a69e-e22eeac86116" d="m83.9 108.7.5.3ZM81.9 107.5l.6.4Z"/><path class="a08a0030-5422-4671-9781-51e4a44fcbe1" d="m273 97.5 12.4 7.2 3.7 2.2a10.9 10.9 0 0 1-1 1.1l-24.5 26.5c-4.9 5.2-9.7 10.6-14.4 15.9a1.4 1.4 0 0 1-2.1.2l-11-6.7c1.3-1.4-.9-2.4-1.1-3.9l2.4 1.6c.5-.8.3-1.3-.4-1.9l-.9-1 1.2-.5h.5l.9 1.9 1.7-1.2c1.1.8 1.9.7 2.6-.3a4.7 4.7 0 0 1 1.9-1.2 7.3 7.3 0 0 1 6.6-.1c1 .5 1.4.3 1.9-.3l12.8-14.1 7.2-7.8.9-1c-3.5-2.7-3.6-3.7-1.1-8.8l-4.9-3.1c.1-.3.2-.6.4-.7Z"/><path class="e981e1e3-10e1-417a-95ca-59c90afc13b5" d="m225.9 61.9 9.6 5.5 20.7 12.3 16.7 10-4.4 4.8a26.9 26.9 0 0 1-2.9-1.6L253 85.5l-9.3-5.5c-3.4-2.1-6.9-4-10.3-6l-12-7.2Z"/><path class="ff8b9a53-1eb4-4fcf-b5fd-6af0a5f12a09" d="m253 85.5 12.6 7.4a26.9 26.9 0 0 0 2.9 1.6l4.5 3-4.3 4c-.2.1-.3.4-.4.7l-3.4-1.9-7.6-4.3-1-.8-7.9-4.7ZM240.4 138.9l-1.7 1.2-.9-1.9h-.5l-1.2.5.9 1c.7.6.9 1.1.4 1.9L235 140c.2 1.5 2.4 2.5 1.1 3.9l-8.9-5.1-10.4-6.4a7.3 7.3 0 0 1 .5-.9l3.5-4.2 4.9 2.7a28.2 28.2 0 0 0 2.9 1.8Z"/><path class="a08a0030-5422-4671-9781-51e4a44fcbe1" d="m253.9 174.6 15.9 9.2-1.2 1.4-16.2 17.4q-11.4 12.3-22.5 24.6a1.4 1.4 0 0 1-2.2.3l-12.3-7.6-2.4-1.3a8.5 8.5 0 0 1 .9-2.2 29.4 29.4 0 0 1 3.1-3l5.2 3.1a43.5 43.5 0 0 1 3.9-2.3 6 6 0 0 1 5.8 0 1.7 1.7 0 0 0 2.3-.4l11-12.3 8.8-9.4.9-1c-1.6-1.3-3.1-2.5-2.7-4.4a26.9 26.9 0 0 1 1.4-4.6l-4.7-3c.6-.9.4-2.7 2.7-1.5l-.6-.8a1.8 1.8 0 0 1 .5-.7c.8.6.9 0 1.3-.5a5.2 5.2 0 0 1 1.1-1Z"/><path class="e981e1e3-10e1-417a-95ca-59c90afc13b5" d="m206.4 138.6 13.8 8.1 32.8 19.5c.3.1.5.4.7.6a97.8 97.8 0 0 1-4.4 4.7h-.5l-10.8-6.6-4.6-2.7-13.1-7.6-12.8-7.6-5.7-3.5 4.6-4.9Z"/><path class="ff8b9a53-1eb4-4fcf-b5fd-6af0a5f12a09" d="m238 164.9 10.8 6.5h.5l4.6 3.1a5.2 5.2 0 0 0-1.1 1c-.4.5-.5 1.1-1.3.5a1.8 1.8 0 0 0-.5.7l.6.8c-2.3-1.2-2.1.6-2.7 1.5l-1.3-.7-9.6-5.5-4.6-3.1a11.3 11.3 0 0 1 1-1.3ZM217 213.4a29.4 29.4 0 0 0-3.1 3 8.5 8.5 0 0 0-.9 2.2l-4.1-2.3-1.4-.7-7.6-4.6-3-1.9a10.4 10.4 0 0 1 1.2-1.7l3.1-3.4 5.1 2.9 4 2.5Z"/><path class="fb0677e9-3e4b-480a-bf6e-8ec0703b5f40" d="m99.8 42.1-1.7 6.6-5.7-3.4a1.5 1.5 0 0 0-2.3.2 7.9 7.9 0 0 1-9.5 1L58.9 69.8l2.4 3.4-1 .6-7.1 7.7a2 2 0 0 0-.5.9l-8.9-5.1 1-1.1 19.7-21.1 19.3-21.2c.7-.8 1.2-.8 2.2-.2l12.7 7.6Z"/><path class="f378f4a1-97da-4786-8dd5-b2398ffe6a0b" d="M52.7 82.4a2 2 0 0 1 .5-.9l7.1-7.7 1-.6c.7 2.4-.4 4-1.7 5.7l12.9 7.7-4.5 4.9-.2.2-7.5-4.6-7.6-4.7Z"/><path class="fb0677e9-3e4b-480a-bf6e-8ec0703b5f40" d="m122.9 157.7-8.9 2.4-8.9-5.5-.7-.5.9-1 10.9-11.8 27.9-30.4a1.6 1.6 0 0 1 2.4-.2c1.8 1.2 3.7 2.2 5.6 3.3l1.4 1-7.3 8a2.9 2.9 0 0 0-.5 1.4c-1.3-.2-2.5-.3-3.7-.6s-1.3-.4-1.8.2l-20.5 22.4-.4.6c3.3 2.9 3.4 4 1 8.7Z"/><path class="bae83652-adc0-4e96-9df4-b6dc3c0e7131" d="m206.4 138.6-4.6 4.9-9.3-5.6-7.3-4.1c-.3-.2-.5-.5-.8-.6l-13.2-7.8-4.7-2.9 4.5-4.9 15.7 9.3Z"/><path class="f378f4a1-97da-4786-8dd5-b2398ffe6a0b" d="m166.5 122.5 4.7 2.9c-.9.3-1.8.5-2.6-.6h-.9l-.6.6c-1 1.1-2.3 1.9-2.4 3.6a13.6 13.6 0 0 1-2.1-1l-9.7-5.8a1.6 1.6 0 0 0-2.3.1 7.1 7.1 0 0 1-4.9 2.1 2.9 2.9 0 0 1 .5-1.4l7.3-8 7.7 4.4Z"/><path class="a960b5a1-8408-4811-8181-a77345a95696" d="m185.2 133.8 7.3 4.1 9.3 5.6 5.7 3.5-39.8 42.9a4.3 4.3 0 0 0-.9 1.3l-6.6-3.8-9.5-5.7a22.5 22.5 0 0 0-4-12.8 3.4 3.4 0 0 1 4.1 0l6 3.5 9.4 5.5.2-.4a18.4 18.4 0 0 1 2.6-9.6 33.2 33.2 0 0 1 7.6-9.5 37.5 37.5 0 0 1 9.9-6.2l4.6-1.8-6.7-4.2-6.9-4.2 1.8-2 5.9-6.2Z"/><path class="f7948a60-b631-4e98-9b45-0c054d77d769" d="M166.8 191.2a4.3 4.3 0 0 1 .9-1.3l39.8-42.9 12.8 7.6-6.7 7.3a4.1 4.1 0 0 0-.7 1.1l-4.9-2.7c-2.4 15.1-12.1 22.8-25.2 27.4l4.2 2.7-7.6 8.2Z"/><path class="b4b5ab29-0a2f-4a6d-80df-9f0cb3ad2c26" d="m179.4 198.6 7.6-8.2 11.3 6.6a2.1 2.1 0 0 1 .6 3.2l-1.4 1.5 3.7 2.3-3.1 3.4a10.4 10.4 0 0 0-1.2 1.7l-11.6-6.8Z"/><path class="aed17be5-bc91-459c-a191-d9ea4a3c4024" d="M103.4 58.4c-.3-2.7-1-5.5-.9-8.2a18.9 18.9 0 0 1 5.3-13.2c3.9-4.1 11-5 16.7-2.1a25.4 25.4 0 0 1 11.9 12.7c.9 2.1 1.5 4.3 2.3 6.4-.6.3-1 .9-1.6.9l-8 .9-22.1 2.7a14.5 14.5 0 0 1-3.6-.1Z"/><path class="a9ec3bac-7c3b-47b6-b492-a15ce0cf132d" d="M103.4 58.4a14.5 14.5 0 0 0 3.6.1l22.1-2.7 8-.9c.6 0 1-.6 1.6-.9 1.6 6.8.8 13-2.4 18.5-2.3 3.8-6.2 5.1-10.6 5.5a20.3 20.3 0 0 1-5.5 0 14.9 14.9 0 0 1-5.6-2.5A28.1 28.1 0 0 1 103.4 59Z"/><path class="e981e1e3-10e1-417a-95ca-59c90afc13b5" d="m141.7 66.7.5-7.2 1 .5 12.1 7.2 11.9 7 18.2 10.9 7.6 4.7-4.4 4.7-11.2-6.4-.4-.4-17.1-10.1-14.3-8.5Z"/><path class="f7948a60-b631-4e98-9b45-0c054d77d769" d="m141.7 66.7 3.9 2.4 14.3 8.5-7.7 8.4-4.5-2.5-2.1 7.5-15.9-9.7v-.2c5.8-2.3 9.5-6.6 11.4-12.7a10.9 10.9 0 0 1 .6-1.7Z"/><path class="fb0677e9-3e4b-480a-bf6e-8ec0703b5f40" d="M142.1 58.2a2.2 2.2 0 0 0-.1-.8l2.5-2.9 5.2-5.7 14.1-15c.2-.3.9-.7 1.2-.5l8.2 4.9-7.4 8c-.3.3-.3.9-.4 1.3a30.7 30.7 0 0 1-4.2-.7c-.8-.2-1.2-.3-1.7.3l-3.3 3.6-8.6 9.2-.7.8Z"/><path class="a2c1561f-e837-421b-926b-816daa08b895" d="m142.1 58.2 4.8 2.5 7.4 4.6 14.7 8.6L190.9 87l10.2 6 7.7 4.5 2.3 1.3 6.1 3.5 1.1 1.1a5.7 5.7 0 0 1 .4 1.4l-17.6-10.4-8.1-4.6-7.6-4.7-18.2-10.9-11.9-7-12.1-7.2-1-.5Z"/><path class="e118b3a7-67b2-4eec-acb7-6ff24be37cb0" d="m149.7 48.8-5.2 5.7-2.5 2.9-1.7-7.3 4.3-3.8 1.7.9Z"/><path class="f36ee7ca-23f4-4f09-ac1b-f9a97e7a2e65" d="M145.7 124.4a7.1 7.1 0 0 0 4.9-2.1 1.6 1.6 0 0 1 2.3-.1l9.7 5.8a13.6 13.6 0 0 0 2.1 1l3.3 2.3-28.6 30.7c-2.9-1.7-5.9-3.3-9.1-3.7s-4.9-.4-7.4-.6l-2.6-2c2.4-4.7 2.3-5.8-1-8.7l.4-.6 20.5-22.4c.5-.6 1-.5 1.8-.2s2.4.4 3.7.6Z"/><path class="bae83652-adc0-4e96-9df4-b6dc3c0e7131" d="m139.4 162 28.6-30.7 8.6 5a10.7 10.7 0 0 0-1.5 1.7 1.9 1.9 0 0 0 .3 2.8 14.3 14.3 0 0 0 2.1 1.2l6.9 4.2 6.7 4.2-4.6 1.8a37.5 37.5 0 0 0-9.9 6.2 33.2 33.2 0 0 0-7.6 9.5 18.4 18.4 0 0 0-2.6 9.6l-.2.4-9.4-5.5-6-3.5a3.4 3.4 0 0 0-4.1 0l-3.6-3.7Z"/><path class="aed17be5-bc91-459c-a191-d9ea4a3c4024" d="M138.5 194.4a22.3 22.3 0 0 1-9 4.4 24 24 0 0 1-12.7-.5 19.3 19.3 0 0 1-13-14.1 17.7 17.7 0 0 1 2.4-13.1 20.9 20.9 0 0 1 11.7-9.3l.8.9 5.8 9.1 6 9.6Z"/><path class="a9ec3bac-7c3b-47b6-b492-a15ce0cf132d" d="m138.5 194.4-8-13-6-9.6-5.8-9.1-.8-.9a21.8 21.8 0 0 1 12.2-.9 20.3 20.3 0 0 1 8.6 3.9 15.2 15.2 0 0 1 3.8 3.8c1.5 2.5 3 5.1 3.4 8a17.2 17.2 0 0 1-3.2 13.2 45.8 45.8 0 0 1-4.2 4.6Z"/><path class="e1a08926-d5c2-444b-accd-e477ed126f67" d="m68 91.5 4.5-4.9.2-.2 1.2 1 8.9 5.3c1.8 1 1.7 1 3.1-.3a3.2 3.2 0 0 1 4.3-.6l12.3 7.4 3.3 1.8.7-4.8c.3.3.7.6.8.9s1 1.3 1.9 1.6l3.2 1.3a35.2 35.2 0 0 0 4.3 1.3 6.5 6.5 0 0 1 3.5 1.3 3 3 0 0 0 1 .7l6 1.5a19.5 19.5 0 0 0 2.2.8h3.6a31 31 0 0 1-10.9 5l2 1.2 5.7 3.6a6.7 6.7 0 0 1-.7 1.1l-6.9 7.4-4.8-3.1-10.9-6.4-8.3-4.9L69 92.3a3.9 3.9 0 0 1-1-.8Z"/><path class="bdb3941a-c82e-4b34-b1f6-ec0bcc102b91" d="m161.7 110.5-7.9-4.5-8.8-5.3c-.8-.5-1.2-.4-1.7.2l-4.1 4.8a4.5 4.5 0 0 1-1.3 1L134 105l7.8-7a8.8 8.8 0 0 0 2.2 1l8.1 1.7c1.1.2 2.5.1 3 .8s1.9 1.2 3.1 1.4a14.1 14.1 0 0 1 4.1.7 9.4 9.4 0 0 0 5.9.7l.5.3 18.3 10.9c-.4 0-.8.2-1.2.1l-4.9-1.4c-1.3-.3-2.5-.3-3.7-.5l-4.1-1c-.9-.2-1.9 0-2.6-.5a12 12 0 0 0-4.8-1.1 4.2 4.2 0 0 1-1.9-.6c-.8-.5-1.5-.7-2.1 0Z"/><path class="afb9a7f9-f7fa-4a1d-926e-c3387ad61f63" d="M161.7 110.5c.6-.7 1.3-.5 2.1 0a4.2 4.2 0 0 0 1.9.6 12 12 0 0 1 4.8 1.1c.7.5 1.7.3 2.6.5l4.1 1c1.2.2 2.4.2 3.7.5l4.9 1.4c.4.1.8-.1 1.2-.1l1.8 1.4.6.2 1.3.6v.4l-5.6 6.4-10.9-6.3-12.2-7.3Z"/><path class="a8939f73-f9c0-40dd-a69e-e22eeac86116" d="m134 105 3.9 1.7-6.8 7.8-1.3 1-5.7-3.6-2-1.2a31 31 0 0 0 10.9-5Z"/><path class="a6ea2372-1d1c-46ff-925b-4dbfca88617b" d="m185.2 124.5 5.6-6.4v-.2l.2-.2 1.2 1 3.8 2.5-5.9 6.4Z"/><path class="f36ee7ca-23f4-4f09-ac1b-f9a97e7a2e65" d="m149.7 48.8-3.4-1.6-1.7-.9c5.5-7.4 12.3-13.7 18.4-20.6a1.4 1.4 0 0 1 2-.2l21.8 12.8 3.4 2.2-4.6 4.9-12.4-7.2-8.2-4.9c-.3-.2-1 .2-1.2.5Z"/><path class="bae83652-adc0-4e96-9df4-b6dc3c0e7131" d="m185.6 45.4 4.6-4.9 30.9 18.4 4.8 3-4.5 4.9-5.3-3.2-11.4-6.9-14.4-8.4Z"/><path class="b524e83b-b862-4193-98d7-46596cac28bf" d="m193 89.8 8.1 4.6 17.6 10.4a3.6 3.6 0 0 1-.4.9l-8.5 9.5-7.8 8.4-1.2.9a19.9 19.9 0 0 0-2.1-2l-2.4-1.4 13.1-14.1-12.1-7.2-.7-.4-8-4.9Z"/><path class="b4b5ab29-0a2f-4a6d-80df-9f0cb3ad2c26" d="m202 123.6 7.8-8.4 1 .8 6.5 3.9c1.8 1.1 2 2.3.8 3.6l-1.2 1.3 3.9 2.5-3.5 4.2a7.3 7.3 0 0 0-.5.9l-10.4-6Z"/><path class="f36ee7ca-23f4-4f09-ac1b-f9a97e7a2e65" d="m72.7 86.4-.2.2-12.9-7.7c1.3-1.7 2.4-3.3 1.7-5.7l-2.4-3.4 21.7-23.3a7.9 7.9 0 0 0 9.5-1 1.5 1.5 0 0 1 2.3-.2l5.7 3.4a32.3 32.3 0 0 0 1.3 13 33.1 33.1 0 0 0 8.3 13.9c-1.4.3-2.6.4-3.8-1a2.7 2.7 0 0 0-1.3-.7c-2.6-.6-5.2-1.2-7.9-1.6a4.6 4.6 0 0 1-3.2-1.5c-.1-.2-.5-.3-.7-.3a4.6 4.6 0 0 0-4.9 1.4c-2.1 2-4 4.2-6 6.4a5.3 5.3 0 0 0-.6 1 20 20 0 0 0-1.6 1.4l-5 5.7Z"/><path class="e118b3a7-67b2-4eec-acb7-6ff24be37cb0" d="M79.3 79.3a5.3 5.3 0 0 1 .6-1c2-2.2 3.9-4.4 6-6.4a4.6 4.6 0 0 1 4.9-1.4c.2 0 .6.1.7.3a4.6 4.6 0 0 0 3.2 1.5c2.7.4 5.3 1 7.9 1.6a2.7 2.7 0 0 1 1.3.7c1.2 1.4 2.4 1.3 3.8 1a27.8 27.8 0 0 0 8.6 5.8l-4.6 4.9-1.3 1.5a10.8 10.8 0 0 0-5-1.8c-2.2-.3-4.3-.8-6.4-1.3s-2.3-.1-2.6-.7-2.4-1.3-3.7-1.5a34.7 34.7 0 0 1-5.5-.8c-2-.5-3.9-1.3-5.8-1.9a16 16 0 0 0-2.1-.5Z"/><path d="m111.7 86.3 4.6-4.9a18.8 18.8 0 0 0 11.2.7l2.2-.8 15.9 9.7.2.2-4.2 6.6-2.4-1c-.8-.3-2 .1-2.3-1.4s-.5-.2-.7-.2h-1.1c-1.8-.7-3.8-.8-5.5-2.3a1.2 1.2 0 0 0-1-.4l-12.7-2.6c.2-1.1-.3-1.2-1.2-1.6s-2.4-.5-3-2Z" style="fill:#1ca383"/><path class="a08a0030-5422-4671-9781-51e4a44fcbe1" d="m197.3 99.8 12.1 7.2-13.1 14.1-.2.1-3.8-2.5-1.2-1 3.4-3.5c-2.8-2.2-3.4-3.7-2.5-6.2a4 4 0 0 1 1-1.8c.5-.6.3-1-.3-1.5s-1.7-1.5-1.8-2.6l3-1.7.6 1.3Zm-3.6 2.8-.3-.5h-.4a.7.7 0 0 0 .1.5Z"/><path class="b524e83b-b862-4193-98d7-46596cac28bf" d="m240.4 138.9-11.8-7.1a28.2 28.2 0 0 1-2.9-1.8l31.6-34 7.6 4.3 3.4 1.9 4.9 3.1c-2.5 5.1-2.4 6.1 1.1 8.8l-.9 1-7.2 7.8-12.8 14.1c-.5.6-.9.8-1.9.3a7.3 7.3 0 0 0-6.6.1 4.7 4.7 0 0 0-1.9 1.2c-.7 1-1.5 1.1-2.6.3Z"/><path class="a960b5a1-8408-4811-8181-a77345a95696" d="m204.7 56.7 11.4 6.9 5.3 3.2 12 7.2-21.7 23.3a6.7 6.7 0 0 0-.6 1.5l-2.3-1.3 8.3-8.6c.9-.9.6-2-.6-2.7l-14.8-8.7 8.7-4.2-1.3-.9-12.2-7.3Z"/><path d="M211.1 98.8a6.7 6.7 0 0 1 .6-1.5L233.4 74c3.4 2 6.9 3.9 10.3 6l9.3 5.5-4.6 5-1 1.1c-1.7 1.7-3 1.9-5.3.5l-11.6-7-3.3-1.9-.2.5a19.2 19.2 0 0 1-2.7 9.8 29 29 0 0 1-7.1 8.8Z" style="fill:#26bd98"/><path class="a6664949-09ec-4954-9615-d6f2cfbf5a65" d="M217.2 102.3a29 29 0 0 0 7.1-8.8 19.2 19.2 0 0 0 2.7-9.8l.2-.5 3.3 1.9 11.6 7c2.3 1.4 3.6 1.2 5.3-.5l1-1.1 7.9 4.7 1 .8-31.6 34-4.9-2.7-3.9-2.5 1.2-1.3c1.2-1.3 1-2.5-.8-3.6l-6.5-3.9-1-.8 8.5-9.5a3.6 3.6 0 0 0 .4-.9 5.7 5.7 0 0 0-.4-1.4Z"/><path class="b524e83b-b862-4193-98d7-46596cac28bf" d="m217 213.4-6.7-4-4-2.5 31.7-34 9.6 5.5 1.3.7 4.7 3a26.9 26.9 0 0 0-1.4 4.6c-.4 1.9 1.1 3.1 2.7 4.4l-.9 1-8.8 9.4-11 12.3a1.7 1.7 0 0 1-2.3.4 6 6 0 0 0-5.8 0 43.5 43.5 0 0 0-3.9 2.3Z"/><path class="b4b5ab29-0a2f-4a6d-80df-9f0cb3ad2c26" d="M212.9 163a4.1 4.1 0 0 1 .7-1.1l6.7-7.3 13.1 7.6 4.6 2.7-3.6 3.6a11.3 11.3 0 0 0-1 1.3 13.8 13.8 0 0 1-2.7-1.4c-1.2-.9-2.2-.9-2.9.3l-.1.2a3.4 3.4 0 0 1-4.5.3l-3.9-2.2Z"/><path class="a6664949-09ec-4954-9615-d6f2cfbf5a65" d="m212.9 163 6.4 4 3.9 2.2a3.4 3.4 0 0 0 4.5-.3l.1-.2c0-.1 1.7-1.2 2.9-.3a13.8 13.8 0 0 0 2.7 1.4l4.6 3.1-31.7 34-5.1-2.9-3.7-2.3 1.4-1.5a2.1 2.1 0 0 0-.6-3.2l-11.3-6.6-4.2-2.7c13.1-4.6 22.8-12.3 25.2-27.4Z"/><path class="a867734a-98eb-45f4-94ed-3932d7c0f5e3" d="M177.5 142a14.3 14.3 0 0 1-2.1-1.2 1.9 1.9 0 0 1-.3-2.8 10.7 10.7 0 0 1 1.5-1.7l-8.6-5-3.3-2.3c.1-1.7 1.4-2.5 2.4-3.6l.6-.6h.9c.8 1.1 1.7.9 2.6.6l13.2 7.8.8.6-5.9 6.2Z"/><path class="bae83652-adc0-4e96-9df4-b6dc3c0e7131" d="M191.1 150.4Z"/><path class="b4b5ab29-0a2f-4a6d-80df-9f0cb3ad2c26" d="m152.2 86 7.7-8.4L177 87.7l.4.4-4.3 5.1-3.5-2c-.8-.5-1.2-.6-1.7.2s-3.4 2.1-5.3.9l-4.4-2.6Z"/><path class="ff8b9a53-1eb4-4fcf-b5fd-6af0a5f12a09" d="m173.1 93.2 4.3-5.1 11.2 6.4 8 4.9.7.4-2.8 1.9-.6-1.3-3 1.7c.1 1.1 2.3 1 1.8 2.6l-8.6-4.9Z"/><path d="m173.1 93.2 11 6.6 8.6 4.9c.6.5.8.9.3 1.5a4 4 0 0 0-1 1.8c-.9 2.5-.3 4 2.5 6.2l-3.4 3.5-.2.2-.2-.2-1.3-.6-.6-.2-1.8-1.4-18.3-10.9-.5-.3-.6-.4-16.5-9.8-5.3-2.9-.2-.2 2.1-7.5 4.5 2.5 6 3.7 4.4 2.6c1.9 1.2 4.2.9 5.3-.9s.9-.7 1.7-.2Z" style="fill:#159988"/><path class="afb9a7f9-f7fa-4a1d-926e-c3387ad61f63" d="M190.9 87 169 73.9l-14.7-8.6-7.4-4.6.7-.8.6.4c1.3.5 3-.3 4 1.6h.4l2.7.3a46.7 46.7 0 0 1 5.2.8c1.9.4 3.9 1.1 5.8 1.6s2.7 0 3.7 1.5l.7.2 3.3.4a36.2 36.2 0 0 1 7.9 1.8c1.9.6 3.8.4 5.7.6l8 4.7 5.8 3.5-7.7 6.2a29.7 29.7 0 0 0-2.8 3.5Z"/><path class="e118b3a7-67b2-4eec-acb7-6ff24be37cb0" d="m156.2 50.7 9.1 5.4 12.3 7.2 1.3.6 1.3.9 7.4 4.4c-1.9-.2-3.8 0-5.7-.6a36.2 36.2 0 0 0-7.9-1.8l-3.3-.4-.7-.2c-1-1.5-2.4-1.1-3.7-1.5s-3.9-1.2-5.8-1.6a46.7 46.7 0 0 0-5.2-.8l-2.7-.3h-.4c-1-1.9-2.7-1.1-4-1.6l-.6-.4Z"/><path class="f378f4a1-97da-4786-8dd5-b2398ffe6a0b" d="M183.2 51.7c-2.9-1.7-5.9-3.2-8.7-5.1s-4-2.3-5.9-.3-2.1.8-3.2 1.2.1-1 .4-1.3l7.4-8 12.4 7.2 4.7 2.9c-.5.7-1.1.4-1.6-.2a1.2 1.2 0 0 0-2-.1Z"/><path class="e1a08926-d5c2-444b-accd-e477ed126f67" d="M190.9 87a29.7 29.7 0 0 1 2.8-3.4l7.7-6.2h.3l14.8 8.7c1.2.7 1.5 1.8.6 2.7l-8.3 8.6-7.7-4.4Z"/><path class="bdb3941a-c82e-4b34-b1f6-ec0bcc102b91" d="M79.3 79.3a16 16 0 0 1 2.1.5c1.9.6 3.8 1.4 5.8 1.9a34.7 34.7 0 0 0 5.5.8c1.3.2 2.6 0 3.7 1.5s1.7.5 2.6.7 4.2 1 6.4 1.3a10.8 10.8 0 0 1 5 1.8 6 6 0 0 0-.6 1.1l-3.3 7.3-.7 4.8-3.3-1.8-12.3-7.4a3.2 3.2 0 0 0-4.3.6c-1.4 1.3-1.3 1.3-3.1.3l-8.9-5.3-1.2-1 5-5.7a20 20 0 0 1 1.6-1.4Z"/><path class="a6ea2372-1d1c-46ff-925b-4dbfca88617b" d="m106.5 96.2 3.3-7.3a6 6 0 0 1 .6-1.1l1.3-1.5c.6 1.5 2 1.4 3 1.9s1.4.5 1.2 1.6l12.7 2.6a1.2 1.2 0 0 1 1 .4c1.7 1.5 3.7 1.6 5.5 2.3h1.1l.7.2c0 .1 1.5 1.1 2.3 1.4l2.4 1 .2.2-7.8 7-1 .7h-3.6a19.5 19.5 0 0 1-2.2-.8l-6-1.5a3 3 0 0 1-1-.7 6.5 6.5 0 0 0-3.5-1.3 35.2 35.2 0 0 1-4.3-1.3c-1.1-.4-2.1-1-3.2-1.3s-1.6-.5-1.9-1.6-.5-.6-.8-.9Z"/><path class="e118b3a7-67b2-4eec-acb7-6ff24be37cb0" d="m141.8 98-.2-.2 4.2-6.6 5.3 2.9 16.5 9.8.6.4a9.4 9.4 0 0 1-5.9-.7 14.1 14.1 0 0 0-4.1-.7c-1.2-.2-2.1-.2-3.1-1.4s-1.9-.6-3-.8L144 99a8.8 8.8 0 0 1-2.2-1Z"/><path class="bdb3941a-c82e-4b34-b1f6-ec0bcc102b91" d="m188.8 116.9.6.2ZM190.7 117.7l.2.2v-.2Z"/><path class="a867734a-98eb-45f4-94ed-3932d7c0f5e3" d="m183.2 51.7 3.5-3.7a1.2 1.2 0 0 1 2 .1c.5.6 1.1.9 1.6.2l14.4 8.4-7.8 8.4c-.9-.7-2.2-1.1-2.7-2s.9-2.4 1.6-3.9l-8.4-4.8Z"/><path class="ff8b9a53-1eb4-4fcf-b5fd-6af0a5f12a09" d="M193.7 102.6h-.6a.7.7 0 0 1-.1-.5h.4l.3.5Z"/><path class="bae83652-adc0-4e96-9df4-b6dc3c0e7131" d="m187.4 54.4 8.4 4.8c-.7 1.5-2.6 2.1-1.6 3.9s1.8 1.3 2.7 2l12.2 7.3 1.3.9-8.7 4.2h-.3l-5.8-3.5-8-4.7-7.4-4.4-1.3-.9.9-1.4Z"/><path d="M214.1 51.7a54.5 54.5 0 0 1 18.7-40.5C251.3-5 276.3-.4 288.1 21.3s6.4 52.2-12.4 68.2-43.1 11.4-55.1-9.9a55.1 55.1 0 0 1-6.5-27.9Zm34.6 3.6-6.3-11.2c-2.1-3.6-6.1-3.8-8.7-.6a7.8 7.8 0 0 0-.8 9.1c2.7 5.3 5.6 10.4 8.5 15.6s5.6 5.1 9.6 1.7l24.2-20.5a39.2 39.2 0 0 0 3.7-3.4c2.7-2.9 2.7-7.9.1-10.4s-4.9-2-8.6 1.2l-.3.3Z" style="fill:#47b656"/><path d="M251.5 100a30.5 30.5 0 0 1-6-.6 37.2 37.2 0 0 1-25.8-19.3 55.8 55.8 0 0 1-6.6-28.4 55.8 55.8 0 0 1 19-41.2C241.3 2.4 252.3-.9 263 1s20.1 9 26 19.8a58.3 58.3 0 0 1-12.6 69.4 38.5 38.5 0 0 1-24.9 9.8Zm-36.4-48.3c0 11.1 2 19.6 6.4 27.4 5.6 10 14.3 16.6 24.3 18.4s20.5-1.3 29.3-8.8a56.5 56.5 0 0 0 12.2-67C281.7 11.5 272.9 4.8 262.7 3s-20.6 1.3-29.3 8.9a53.9 53.9 0 0 0-18.3 39.8Zm22.8-9.4a4.4 4.4 0 0 0-3.4 1.9 6.8 6.8 0 0 0-.8 8l6.6 11.9 2 3.6c1.1 2 2.3 3.1 3.5 3.4s2.8-.4 4.6-1.9l3.7-3.2 20.4-17.4.9-.7 2.8-2.5c2.3-2.6 2.3-6.9.1-9.1s-3.5-2-7.2 1.2l-.4.4-22.3 18.9-.6-1-2-3.6-4.2-7.6a4.5 4.5 0 0 0-3.4-2.3Z" style="fill:#fff;stroke:#fff;stroke-miterlimit:10"/></svg>