<svg id="bbf7dfd8-c736-40da-8c52-487dc92d378e" data-name="Layer 1" xmlns="http://www.w3.org/2000/svg" viewBox="0 0 523 456.2"><defs><style>.e7908330-85c7-46b3-bcbe-46f2e0fe66ab{fill:#e2e7ed}.b1f9a4f3-f449-49f5-acc4-cdb4621703cb{fill:#e8edf1}.e5e2ef16-459d-4ff7-9830-3e42b2a82324{fill:#edf1f4}.e2b7b7be-148c-4cc4-8b5c-0a2c4fc3d1da{fill:#f9f9f9}.b758460e-5560-40ed-b152-991bece7b2df{fill:#e9b490}.adf26742-458b-4bf0-9628-bb0d0a9f8870{fill:#dca581}.aff31243-7cf2-48d7-97ac-091dbd456251{fill:#6d1012}.edbedb32-23a2-461a-bfe7-adbd8ef4957b{fill:#f4f6f8}.aeb6d0e2-2aaa-4864-90de-d73adf6cc7d1{fill:#f9c26c}.a256a124-15d7-4251-a16b-97be829ca75f{fill:#b5c1cb}.b05cef1b-a63a-4921-9e39-b11cc11ac086{fill:#d83b58}.e09089a7-a26c-48cf-a183-0036bd066541{fill:#c93956}.ad733e39-1c56-4a0c-b4c4-9b719b4acb8e{fill:#dee4eb}.a4adda12-d824-4798-add1-ca6cfd920a6d{fill:#f8b668}.b84899c8-35f9-42f4-a075-4323396c8249{fill:#d13a58}.a172f468-3552-4710-b67f-caa48b016f5b{fill:#ec3e5a}.a0682fda-c403-4739-977b-4d588c2bc3ce{fill:#d49c78}.f0bb4ddc-115d-4497-a1a1-7765451d9c18{fill:#face70}.fdccb9d0-c222-4a54-85ac-d7e006204e60{fill:#dbe1e9}.e56c385c-79da-4806-af0f-bf2f6bf8d45f{fill:#f7a764}.b812531f-464a-446a-bd01-fae37e2851bf{fill:#de3c58}.ae52e57d-3b1d-49f1-bd00-955310113461{fill:#edb894}.bc3220c8-3743-4b02-bd33-d06deeb4b8bf{fill:#e5e9ee}</style></defs><path class="e7908330-85c7-46b3-bcbe-46f2e0fe66ab" d="M401.3 437c-.7 2.9-1.2 6-2.2 8.9s-2.1 2.8-3.2 4.2h-153a5.7 5.7 0 0 0-1.5 1.2 5 5 0 0 1 .2-1.2H202c-.4-.2-.8-.7-1.3-.8s-3.7 0-5.6 0h-48.3c-3 0-6 .2-8.9 0s-3.9-1.8-4.4-4.2l-.8-3.7c-.2-1.3-.3-3.2 1-4.4Z"/><path class="b1f9a4f3-f449-49f5-acc4-cdb4621703cb" d="M411.8 437H226.5a15.9 15.9 0 0 1 .7-2l-.7-4.6h188.2c-1 2.1-2 4.3-2.9 6.6Z"/><path class="e7908330-85c7-46b3-bcbe-46f2e0fe66ab" d="m321.9 368.7.9 10.3h-29.3l1.5-10.7ZM274.7 379.1l-42.1.2c-.1-.4-4.3-10.2-4.4-11.2h49.9c0 4.1 5.4 12.1-3.4 11ZM367.7 436.5l-2 3.4-16.2-4.6 2-6.9 3.5.2h.8a2.8 2.8 0 0 1 2.5 2.1h.2a1.2 1.2 0 0 1 1.4.6.1.1 0 0 1 .1.1l.1.2.2.6c.2.4 1.4.7 1.4.7 1.5-.5 2.3 0 2.6 1.6.1 0 .7.8.9.8Z"/><path class="e7908330-85c7-46b3-bcbe-46f2e0fe66ab" d="m360.3 432.2-.2-.6a1.1 1.1 0 0 1 .2.6Z"/><rect class="e5e2ef16-459d-4ff7-9830-3e42b2a82324" x="178" y="66" width="166" height="240" rx="1.8"/><rect class="e5e2ef16-459d-4ff7-9830-3e42b2a82324" x="357" y="66" width="166" height="240" rx="1.8"/><rect class="e2b7b7be-148c-4cc4-8b5c-0a2c4fc3d1da" y="66" width="166" height="240" rx="1.8"/><path class="e5e2ef16-459d-4ff7-9830-3e42b2a82324" d="M164.2 66H1.8A1.8 1.8 0 0 0 0 67.8v32.6a54.6 54.6 0 0 1 6.9-1 15.9 15.9 0 0 1 11.3 3.7l3.4 2.9a2 2 0 0 0 2.5.5c3.5-1.9 7.1-1.8 10.8-.9a23.9 23.9 0 0 1 4.4 1.8c1.1.5 1.6 0 2.2-.6 2.3-2.5 5-4.6 8.4-4.9s5.7.3 8.6.4l2.3 1.7a13.2 13.2 0 0 1 6.4 7.7 4.7 4.7 0 0 1 .6 1.5c0 1.6.5 2.5 2.4 2.7A10.9 10.9 0 0 1 79 122c.6 1 1 1.2 2.2.8a17.5 17.5 0 0 1 17 1.6c2.6 1.7 5 3.8 6.1 6.9-.5 1.4.3 2.3 1.4 3l.3.4v.3a23.8 23.8 0 0 1-.3 9.2c-1.9 6.7-8 11.3-14.3 12.4a28.3 28.3 0 0 1-5.8.4H50c-2.8 0-5.5.3-8.3.3l-6-.2c-1.2-.1-2.3.2-3.4.2-4.3-.1-8.7-.3-13.1-.3l-12 .3a14.3 14.3 0 0 1-2.2-.4l-.7-.2-4.3.5v147a1.8 1.8 0 0 0 1.8 1.8h162.4a1.8 1.8 0 0 0 1.8-1.8V67.8a1.8 1.8 0 0 0-1.8-1.8Z"/><path class="b758460e-5560-40ed-b152-991bece7b2df" d="M329.4 33.2a4.9 4.9 0 0 1-4.8 2.6l-.4-3.5c-1.3-4.9-.2-6.5-.3-7.8 1.8-.3 5.1.5 4.7 2.7s.7 4.3.8 6Z"/><path d="M350.6 309.3c-1.4 23.3-4.2 46.6-5.2 70a284 284 0 0 0-.5 36.9c.1 3.5-18.3 1.9-20.8.7s-1.8-.8-1.9-2.2c-1-12.1-2.1-24.1-2.9-36.1-2.2-34.1-2.1-68.5-5.5-102.5-3.7 34.8-13 69-16 104l-2.1 36.5c-.1 2.9-.2 2.2-5.2 2.9s-17.1 1.4-15.5-3.1c-.3-48.7 1-97.5 2.6-146.1l1.5-33.2c1-13.3 3.7-22.3 5.7-33.1 19.4 3.6 39.7 4.4 58.5-2.1 3 35.8 4.7 71.6 7.3 107.4Z" style="fill:#31373d"/><path class="adf26742-458b-4bf0-9628-bb0d0a9f8870" d="M236 370.9c-.3.5 6.9 37.8 6.6 37.8s-2.3 21.9-16-13.7c-2 4.3-1.4 6.2-2.2 11.8-.7 1.6-10.8 1.3-10.9-.4-.5-8.6-1-16.4-2.5-32.5-.6-4.1-2.9-20.9-3.6-25a21.3 21.3 0 0 0-1.1-3.3l-7-16.6-3-6.7-2-5.1 8 .5 5.2.3 14.2-.6h2.9l1.8 5 1.9 9c.7 3 .8 4.5 1.3 6.8l2.1 10.5 3.7 18.6.3.8Z"/><path class="aff31243-7cf2-48d7-97ac-091dbd456251" d="M241.7 66a43.1 43.1 0 0 1-1.2 14.3c-2 7.5-6.8 13.1-12.6 17.9-2 1.6-4.1 3-6.2 4.5l-1.6 1-6.4 3.3a11.9 11.9 0 0 1 .8-2 46.9 46.9 0 0 0 5.1-13c1.5-5.8 1-11.3-2.3-16.4a8.7 8.7 0 0 1 .5-2.2c.8-2.1.3-3.3-1.9-3.8s-3.5-.4-5.2-.6-2.5-2.6-4.6-1.7c-.2.1-.7-.1-.9-.2a1.1 1.1 0 0 1 .1-.8c1.4-.9.4-1.3-.2-1.9-3.6-2.9-7-5.9-7.8-10.8 0-.2-.7-.5-.9-.4-2.9 1.2-5.6 2.8-6.6 6.1a22.4 22.4 0 0 0-1 9.3l-4.1.4-.7-3c-.6-4-.5-7.9 1.4-11.5 3.1-6.3 8-10 15-11a13.4 13.4 0 0 0 2.6-.9c2.4-.7 4.7-1.7 7.1-2 6.7-.8 13.2 0 19.1 3.6s10.7 11.1 12.1 19.2a20.2 20.2 0 0 1 .4 2.6Z"/><path class="edbedb32-23a2-461a-bfe7-adbd8ef4957b" d="m202 449.9-1.5.5a7.2 7.2 0 0 0-4.5 5.2h-57.5c-3.7 0-7.3.3-11 .2l-17.5-.2c-2.5-.1-5 .2-7.5.2H75l-14.3-.2-40.5-.2c-2.7 0-5.4.4-8-.3-4.3-1.1-2.8-16.6-.6-17.3 8.5-2.9 48.2-1 63.4-1h4l.3.5a1 1 0 0 1 .4-.5h53l.4.7a6.6 6.6 0 0 0-.4 3.7l.8 3.6a4.7 4.7 0 0 0 4.4 4.1c2.9.2 5.9 0 8.9 0h53.9c1.9.1.9.7 1.3 1Z"/><path d="m210.2 367.9.8 6 .3 5.1H107.7v-8.8a8.6 8.6 0 0 1 .7-2.1Z" style="fill:#e3e8ee"/><path class="e7908330-85c7-46b3-bcbe-46f2e0fe66ab" d="M395.3 368.3c10.9 1 12.4 1.7 12.3 5.2a12 12 0 0 1-.3 2.5 6.7 6.7 0 0 1-2.8 2.2 11.7 11.7 0 0 1-3.8.4h-52.9a5.8 5.8 0 0 0-2.1.7l.7-12a8.3 8.3 0 0 0 2.1.6c10.9-.1 21.9-.3 32.9-.3 4.6 0 9.3.4 13.9.7Z"/><path class="aeb6d0e2-2aaa-4864-90de-d73adf6cc7d1" d="m176.7 127.4 10.6-6.5c1.9-1 4-1.7 6-2.6v.3l-12.5 25.8-.5 1.6-.6.6c-2.7.6-4.2 2.6-5.7 4.7l-3.7.7-5 1.3h-.6c.8-.4-10.3.1-11.4-1s5.3-9.8 6.1-11.8 3-2.5 3.3-3.1l1.3-1.1 3.4-2.6 1.3-.9Z"/><path d="M108.4 368c-2.5-.1-93.5-.9-97.5 1.3-2.1 1.2-2.4 9.3 2.5 9.6s48.7.4 54 .4l40.3-.4v-8.8a8.6 8.6 0 0 1 .7-2.1Z" style="fill:#ebeff2"/><path class="a256a124-15d7-4251-a16b-97be829ca75f" d="m351.5 448.6-16.9-.7c-2.9-.1-5.8-.4-8.7-.7s-3.9-2.4-3-4.9l.8-3.3c.2-.6 51.4 2.7 57 1.9 2.1.7 1.5 2.5 1.6 4s-.9 1.7-1.9 1.9-5.1.8-7.6 1.5c-6.5 1.8-20.8.3-21.3.3Z"/><path class="b758460e-5560-40ed-b152-991bece7b2df" d="M328.9 26.1c-3.2-1.8-6-1.5-8.6 1.1a1.9 1.9 0 0 1-1.3.2 5.2 5.2 0 0 0-5.6.7 1.6 1.6 0 0 1-1.2-.1c-4.2-2.9-7.7-2.3-10.6 1.7-.5.8-4.1 1.5-4.7.9a2 2 0 0 1-.5-1.5 24.8 24.8 0 0 0-2.4-10.4 11.8 11.8 0 0 1-.4-4.2c-.1-1.3.5-1.3 1.5-.7a22 22 0 0 0 15.5 3.7 99.6 99.6 0 0 0 13.1-3.1c1.5-.4 2.5-.6 3.1 1s.4.2.6.2h-.1l.4.7.3.7.8 5.5c-3-.8-5.9-1.1-8.8.2-.4.2-.6.8-1 1.2s1.2.6 1.6.5c2.8-1.4 5.6-.9 8.4 0Zm-22.2-3.9c-1.5.4-3.3.7-4.9 1.2s-.7.9-1 1.3 1.1.6 1.5.4a11.9 11.9 0 0 1 8.9-.1c.4.1 1-.4 1.5-.7s-.7-.9-1.1-1Z"/><path class="b05cef1b-a63a-4921-9e39-b11cc11ac086" d="m357.2 438.1-2.2 5.1-16.6-.7-.5-.3c-1.6-2.1-1.3-4-2.9-6.1 1.2-3.9.9-4.5 3.4-7.1.5-.5 3-3.2 3-4.1l1.2-3.6c.6-.9 1.1-.5 1.8-.1l10 7 .9.4a3.9 3.9 0 0 1-.6 1.3l-2.9 2.2c-.9.8-.4 1.1-.6 1.6s1.2.2 1.6-.1 2.5-1.9 3.8-2.7 1.1-.2 1.7-.3h.2c-.2.3-.2.7-.4.9l-2.5 1.9c-1.6 1.1-.7 2.4 1.6 4.7Z"/><path class="edbedb32-23a2-461a-bfe7-adbd8ef4957b" d="M133.7 436.9h-1c.7-1.8 1.1-3.8 2.3-5.2a5.6 5.6 0 0 1 3.9-1.7h26.5l11.3.4c-1.1 1-1.8 2-1 3.6s.3.9-.6.9l-.4.3c-.6.3-1.1.8-1.7.8l-6.4.4c-.3 0-.6.4-.9.6Z"/><path class="e09089a7-a26c-48cf-a183-0036bd066541" d="m337.3 86.2 9.6 11.3.4.5 7.3 9.7.7 1.3a5.6 5.6 0 0 0-.9 1.7l-.8 4.2-2.8 14.4-2.5 11.6-1.2-.4-.1-4.6-.3-14.3c-.3-3.5-.2-7.1-.8-10.6s-2.1-8-3.2-12l-3.9-9.3Z"/><path class="ad733e39-1c56-4a0c-b4c4-9b719b4acb8e" d="m306.7 66.6-.7 13.2c0 1-.3 1.2-1.2.8s-3.8-1.5-5.6-2.4l-13.7-6.8c-.9-.4-.9-.7-.4-1.4l2.9-4a25 25 0 0 0 2.2-2.4c.8-1.4 2-1.4 3.3-1.2a9.1 9.1 0 0 0 1.7-.1l.6.7 8.2 2.1Z"/><path class="e5e2ef16-459d-4ff7-9830-3e42b2a82324" d="M165.7 437c.3-.3.6-.7.9-.7l6.4-.4a4.1 4.1 0 0 0 1.7-.7l.4-.4c.9.1 1 0 .6-.8s-.1-2.7 1-3.7l18-.3c2.9 0 5.8.3 8.6.3s5.3-.2 8-.4l-3 7.1Z"/><path class="e09089a7-a26c-48cf-a183-0036bd066541" d="M354.7 443.2v-7.7l2.1-.9c1.2-.7 2.3-1.6 3.5-2.4l1.4.7-1.6 1.9c-.5.6-1.2 1.6-1 1.8s1.4 0 2.1-.4a30.7 30.7 0 0 0 3.1-1.7c1 .4 1.3.9.2 1.7s-.5 1-.7 1.5 1.3 0 1.7-.3 2.2-1.2 3.6-.1a8 8 0 0 0 3.3.9 30.9 30.9 0 0 1 5.2.7 11.7 11.7 0 0 1 3.1 2c-5.6.8-11.1 1.8-16.6 2.4a73.7 73.7 0 0 1-9.4-.1Z"/><path class="a256a124-15d7-4251-a16b-97be829ca75f" d="M320.7 66c-.8 3.9.5 6.8 4.1 8.8a5.7 5.7 0 0 1 3.3 4.3l.6.2-6.4 12-2.5-6.7c-.9-2.2-1.2-2.4-1.8-3.6l.9-8.6.7-6.2Z"/><path class="a4adda12-d824-4798-add1-ca6cfd920a6d" d="M342.6 422.1c-.4 1.2-4.9 11-5.3 12.2-5.1.1-8.8.5-11.8-3.8l.4-12.9c2.5.2 4.9.5 7.4.6l8.2-.2 1.1 4.1Z"/><path class="b84899c8-35f9-42f4-a075-4323396c8249" d="M213 447.6a21.1 21.1 0 0 1 6-9.2 5 5 0 0 0 .8-1.4l1.2-.4a8.7 8.7 0 0 1 6.2-1.7 15.9 15.9 0 0 0-.7 2 37.9 37.9 0 0 0-3.6 12.3l-1 7-1.5-.3.6-6.6v-7.8a4.9 4.9 0 0 0-.6-1.7 8.3 8.3 0 0 0-1.6.9 18.3 18.3 0 0 0-3.9 8.6l-1.6 6.3-6 .3c-.1-.9.3-1.2 1.2-1.4s2.7-.4 3-1.1a38 38 0 0 0 1.5-5.8ZM251.7 430.3a83.9 83.9 0 0 0-.6 10 67.6 67.6 0 0 0 1.1 8.9c-.5.4-1 1.3-1.6.1l-2.8-11.2c-.3-1.4-1-1.4-1.8-.2a39.5 39.5 0 0 0-4.6 13.4c-.1 2.9-2.4 2.2-4.1 2.3h-4c0-.8.2-1.2 1.1-1.3a23.4 23.4 0 0 0 3.8-.3c.5-.2 1.3-.6 1.4-1.1l1.1-5.6 4.8-10.3a1 1 0 0 0 .5-.4c1.5-1.7 2.7-3.7 5-4.5.2 0 .2-.3.3-.5Z"/><path class="a256a124-15d7-4251-a16b-97be829ca75f" d="M273.4 447.5c-2.3-.7-2.7-1.2-2.5-3.7l12.6 1.6a20.5 20.5 0 0 0 3.5-.1c3.4-.5 6.7-1.2 10.1-1.8a2.8 2.8 0 0 1-1.7 4.1c-1.6.5-8.3 3.1-22-.1Z"/><path class="a172f468-3552-4710-b67f-caa48b016f5b" d="M213 447.6a38 38 0 0 1-1.5 5.8c-.3.7-1.9 1-3 1.1s-1.3.5-1.2 1.4H196c.2-2 2.5-4.8 4.4-5.3l1.6-.5h.9a21 21 0 0 0 10.1-2.5Z"/><path class="b758460e-5560-40ed-b152-991bece7b2df" d="M287.7 29a7.8 7.8 0 0 1 .7-2.3c.6-.7 1.4-1.8 2.1-1.8a3.5 3.5 0 0 1 2.4 1.5 14.7 14.7 0 0 1 1.3 10.3l-.9 4.3a20.9 20.9 0 0 1-5.6-12Zm1.4 1.1 1.4 3.2c.5 1 .4.4.6.5a1.7 1.7 0 0 0-.1-.7l-.2-3.6c0-1.2.1-.5.2-.8h-.9a17 17 0 0 0-1 1.4ZM319.6 66.2l-.7 6.2-.9 8.6-5-6.3c.2-.5.6-1 .6-1.4 0-2.4-.2-4.7-.3-7l5.9-.7Z"/><path class="adf26742-458b-4bf0-9628-bb0d0a9f8870" d="m329.4 43.6-.2-1.7a35.6 35.6 0 0 1-1.3 3.9c-.4.7-1.1 1.7-1.8 1.7s-1.3-.9-1.9-1.5a5.2 5.2 0 0 1-.6-1.3 26.6 26.6 0 0 0 .3-2.8c-.1-1.6-.4-3.1-.6-4.7a7.6 7.6 0 0 0 5.9-1.3l.2 7.7Z"/><path class="a0682fda-c403-4739-977b-4d588c2bc3ce" d="m304 65.1-8.2-2.1-.6-.7.3-8.4a1.4 1.4 0 0 1 .2-.6l8.4 9-.1 2.8Z"/><path class="e5e2ef16-459d-4ff7-9830-3e42b2a82324" d="m213.3 455.6 1.6-6.3h6.1l-.6 6.6h-6.9Z"/><path d="M233.3 453.5h4c-2.3.8-4.6 1.9-7 2.2a59.1 59.1 0 0 1-8.4.4l1-7 3.3.2-2.5 3.9.3.2Z" style="fill:#e7ecf0"/><path class="aff31243-7cf2-48d7-97ac-091dbd456251" d="M329 24.4c-2.8-.9-5.6-1.4-8.4 0-.4.1-1-.4-1.6-.5s.6-1 1-1.2c2.9-1.3 5.8-1 8.8-.2.9.5 1.8 1.1.2 1.9Z"/><path class="b758460e-5560-40ed-b152-991bece7b2df" d="M293.2 43.3 293 45l.2-1.7Z"/><path class="edbedb32-23a2-461a-bfe7-adbd8ef4957b" d="m79.7 437-.4.5-.3-.5Z"/><path class="aff31243-7cf2-48d7-97ac-091dbd456251" d="m328 17-.3-.7ZM327.7 16.3l-.4-.7Z"/><path class="e09089a7-a26c-48cf-a183-0036bd066541" d="M254 154ZM258 170.8v.2ZM258.4 171ZM278.6 144.9ZM370.1 159.1c-3.7-.6-8.9-5.5-13.5-10.2a4.2 4.2 0 0 0 1-1.7q1.5-6.4 2.7-12.9c.9-4.4 1.6-8.8 2.4-13.3 0-.2.1-.3.3-.5l10.7 16.4c14 2.4 4.6 23.4-3.6 22.2Z"/><path class="b758460e-5560-40ed-b152-991bece7b2df" d="M278.3 263.6c-.9-.6-2-.9-2.6-1.7l-4.5-7.3-1.5-1.7c-1-2.3-4.8-8.6-4.9-9.1s2.6.8 3 .7l6.2-1.9a24.8 24.8 0 0 0 3.7-1.7l1.3.4 9.2 5.2a8.6 8.6 0 0 1 1.3 1.4c-.6.5-1.3 1.6-1.8 1.5a29.6 29.6 0 0 1-5.1-1.4 23.4 23.4 0 0 1-2.4-.9 28 28 0 0 0 .6 2.8l5.6 13.5c.4 1 .9 2.3-.9 2.8-.2 0-.2.8-.2 1.2s-.1.9-.3 1-.7 0-1.1-.1l-5.2-4.5ZM288.7 220.2c3.6-.5 3.8-.2 2.7 3.1a38.5 38.5 0 0 1-8.7 14.5 2.3 2.3 0 0 1-3.4.2c-.4-.2-.9-.5-1.2-.4a1.8 1.8 0 0 1-2.5-.5l-4.6-6.7 6.7-3.5 9.1-4.9a10.7 10.7 0 0 0 1.9-1.8Z"/><path class="a4adda12-d824-4798-add1-ca6cfd920a6d" d="M293.6 419.2c-.4 2.1-.8 6.7-1.2 8.8-.9.1-8.7-1.8-8.7-1.8s-6.8 2-5.7-2.4l-.3-4.8Z"/><path class="f0bb4ddc-115d-4497-a1a1-7765451d9c18" d="M162.7 137.4a14.2 14.2 0 0 0-.8 1.8c-.9 2-.5 3.2.9 4.7s1.9 2.5 2.9 3.7l1.9 2.7c.7.8.5 1.3-.5 1.7s-1.6.9-2.4 1.3l9.3-2c-.7.2 13.7 2.8 13.6 3.7s-22.5 10.5-24.2 11.4a196.9 196.9 0 0 1-18.1 7.9l-4.7 1.6-2.6.4h-2.6l-1-.3a43.5 43.5 0 0 1-5.5-3.6c-2.1-2-2.2-4.5-.4-6.9a43.7 43.7 0 0 1 5.5-5.9c3.9-3.3 7.8-6.6 11.9-9.8s7.7-5.9 11.6-8.7c1.7-1.4 3.4-2.5 5.2-3.7Z"/><path class="a0682fda-c403-4739-977b-4d588c2bc3ce" d="M324.7 33.4v2.3a2.9 2.9 0 0 1-1.4 1.5c.2 1.6.5 3.1.6 4.7a26.6 26.6 0 0 1-.3 2.8 3.7 3.7 0 0 0-3.8-1.8l-4.8.4c-.6-1.1-.3-1.6.9-1.3h.4c4.3 0 4.4-.3 3.1-4.4-.6-1.9-2-4.9-2.3-6.9-.1-.5 3.2-3.1 3.5-3.6l-1.7 2.9c1-1.5 3.4-3.9 5.1-4.4l.7 7.8Z"/><path class="fdccb9d0-c222-4a54-85ac-d7e006204e60" d="m194.5 116.6 4.2-11.5c6.7 6.2 14.4 5.5 23.1-1.1l4.6 7.7-4.7 26.3-29.8-.2Z"/><path class="ad733e39-1c56-4a0c-b4c4-9b719b4acb8e" d="m296.4 440.4-22.8-.3 3.2-12.8h15.1l4.5 13.1z"/><path class="aff31243-7cf2-48d7-97ac-091dbd456251" d="M287.7 29c-.4-4.3-1-8.6-1.2-12.9-.1-2.7 1.5-4.8 3.8-6.2a1.6 1.6 0 0 0 .9-.9c.4-3.3 3-4.9 5.6-6.3S304.3.3 308.2.1c7-.4 13.9.3 20.2 3.6l2 1.1a10.7 10.7 0 0 1 1.6 1.4l-1.9.2 5.3 3.4a2.4 2.4 0 0 1 .6.8h-.8c-2.5.7-5 1.4-7.4 2.3s-.2 1.8-.4 2.6-.5 0-.6-.2-1.6-1.4-3.1-1a99.6 99.6 0 0 1-13.1 3.1 22 22 0 0 1-15.5-3.7c-1-.6-1.6-.6-1.5.7a11.8 11.8 0 0 0 .4 4.2 24.8 24.8 0 0 1 2.4 10.4 2 2 0 0 0 .5 1.5c.6.6 4.2-.1 4.7-.9 2.9-4 6.4-4.6 10.6-1.7a1.6 1.6 0 0 0 1.2.1 5.2 5.2 0 0 1 5.6-.7 1.9 1.9 0 0 0 1.3-.2c2.6-2.6 5.4-2.9 8.6-1.1a18 18 0 0 1 2.2.6l1.3.5a7.6 7.6 0 0 0-.9.9c-.2.3-.6.7-.5.9a6.8 6.8 0 0 1-1.8 6.9 7.6 7.6 0 0 1-5.9 1.3c-3.1-1.4-4.7-3.7-4.4-7.2-.1-.3 0-.8-.2-.9a3 3 0 0 0-3.6-.3 2.2 2.2 0 0 0-1.2 2.8 6.4 6.4 0 0 1-5.2 7.6c-3.6.7-7.3-1.7-7.6-5.2-.2-1.7-.8-2.1-2.3-1.7h-1c-1-.1-1.3.4-1.3 1.4l.2 7a9.4 9.4 0 0 0 5.6 8.8c4.3 2.2 5.9 1.6 7.4-3a3.9 3.9 0 0 1 3.5-2.9 11.3 11.3 0 0 0 1.8-.3l4.8-.4a3.7 3.7 0 0 1 3.8 1.8 5.2 5.2 0 0 0 .6 1.3c.6.6 1.3 1.6 1.9 1.5s1.4-1 1.8-1.7a35.6 35.6 0 0 0 1.3-3.9l.2 1.7c-.4 4.7-1 9.4-2.8 13.8a17.3 17.3 0 0 1-7.4 8.2l-5.9.7c-3.4-.5-6.3-2.2-9.2-4l-8.4-9c-1.3-2.6-2.6-5.2-2.7-8.3l.2-1.7a18.5 18.5 0 0 1 .1-2.3l.9-4.3a14.7 14.7 0 0 0-1.3-10.3 3.5 3.5 0 0 0-2.4-1.5c-.7 0-1.5 1.1-2.1 1.8a7.8 7.8 0 0 0-.7 2.4Zm23.2 21.2c-.2 1-.8 2.4-.4 3s5 1.7 6.5-.3a1.4 1.4 0 0 1 2.4.2c.5 1.2 1.3 1.2 2.3.6s1.8-2.2.9-4.1.1-1.8-1.2-1.3a20.7 20.7 0 0 1-9.2 1.4 3.5 3.5 0 0 0-1.3.5Zm17.8-22c-1.2-1.6-2.9-1.8-4.7-1.5a4.5 4.5 0 0 0 .7 8.9 4 4 0 0 0 4.3-2.1 4.4 4.4 0 0 0-.3-5.3Zm-26.3 4.6a5.4 5.4 0 0 0 5 5.1 5.3 5.3 0 0 0 5.1-5.1 5 5 0 0 0-5-5.1 5.1 5.1 0 0 0-5.1 5.1Z"/><path d="M242.3 257.7c-.9 7-.8 12.6-1.8 17.3s-3.5 15.1-4.7 18.9-8.4 21.6-9.6 22.5-4.5 1-4.5 1-19.4.7-19.4.3l-8-.5-4.3-.7c-1-.1-1.5-.5-1.5-1.5s-.5-3.8-.7-5.7l-.1-.2a19.4 19.4 0 0 0-.2-2.4l-.2-3.1-1.1-8.8c-.4-2.9-.6-8.2-1-12.3l-.5-5.1c-.2-1.7-.3-4.7-.4-7l-1-17.3-.1-6.7.1-.2-.2-.2v-17.3a.6.6 0 0 0 .1-.4l1.2-16.5c.5-5.5 1.6-8.7 1.2-13.2a8.3 8.3 0 0 1 .4-1.5l8.7 1.5h1.3a21.8 21.8 0 0 0 4.4.4c4.2 0 8.4-.3 12.6-.4l3-.3 7.9-1.2.8 5a1.9 1.9 0 0 1-.4 1.8 23.6 23.6 0 0 0 .6 6.3c.9 2.3 1.6 4.3 5.8 9.7s6.4 8.4 6.5 9 4 10.2 4.3 12.1a56.9 56.9 0 0 1 .8 16.7Z" style="fill:#019980"/><path class="b1f9a4f3-f449-49f5-acc4-cdb4621703cb" d="m187.3 309.3.4-.3.1.2h-.5Z"/><path class="e56c385c-79da-4806-af0f-bf2f6bf8d45f" d="M186 197.1c-.1-7.9-.3-26.4-.2-30.8-1.1-.8-1.3.4-2.4-1.2s-1.9-3.3.8-2.6a3.8 3.8 0 0 0 1.5.1c.8.4 1.2-2.1 1.7-2.9s3 1.4 2.8.2.6-2.2.8-3.3-.2-.5-.2-.7a5 5 0 0 1 .5-1.3c.2-.2.6-.4.7-.7l.7-2.9 8.7-24.2c.5-1.6 1.3-3 1.9-4.5h.4c1.8-2.4 3.5-7.7 6.3 4.4 17.1-20.6 19.2-11 20.4-11.1l15 12.6c-2.1.9 2 7.4 1.3 9.5-1.9 5.3-5.2 10.9-5.7 16.5-.2 2-4-.9-4.3 1.1l-4.9 10.5c-1.6 3.5-2.9 5.7-3.6 8.8-1.7 7.5-2.9 15-4.3 22.6l-7.9 1.2a15.1 15.1 0 0 1-3 .2c-17 1.6-26.7-1.5-27-1.5Z"/><path class="b84899c8-35f9-42f4-a075-4323396c8249" d="M278.6 145.2a179.3 179.3 0 0 1-15.9 23.8c-.2-.5-.7-1.1-.7-1.6l.3-15.2c0-2.9-.3-5.7-.3-8.6l.3-14.7c0-4.9-.2-9.3-.3-14a29.1 29.1 0 0 0-.4-3.1c1.1-2.7 2.2-5.4 3.4-7.9l9.9-20 3.8 2.1a10.1 10.1 0 0 0-.7 1.5c-.1 1.1 0 2.1 0 3.2v52.2a4.1 4.1 0 0 0 .7 1.7Z"/><path class="aeb6d0e2-2aaa-4864-90de-d73adf6cc7d1" d="M248 130c1.4 1.1 2.6 5.4 2.8 5.8a20 20 0 0 0 .2 3.5l2.5 19.4c.9 6.5 2.1 12.2 3.2 18.3v.6l.2 1v.7l.9 4.7.4 1.1v.5c4.5 20.3 8.1 33.7 14 53 0 .7-3.2 7.3-7.6 5.3-3.4-4.8-8-14.7-8.3-15.1a.8.8 0 0 0-.2-.4c-1.5-4.4-3.2-8.8-4.6-13.2s-3.1-10.6-4.6-15.9c.3-.5-10.3-43.4-10.3-44 .1-3.3 1.5-25.3 8.7-27.1 3.5 2.1 2.6 2.4 2.7 1.8Z"/><path class="e2b7b7be-148c-4cc4-8b5c-0a2c4fc3d1da" d="M464 151.1c.2 8.3-4.5 15.4-11 20.2s-17.1 4.1-25.6 4H357V108c13.3-1 14.7 9.6 19.7 6a19.8 19.8 0 0 1 17-.2 1.3 1.3 0 0 0 1.9-.4c12.3-13.6 37-9.3 43.3 7.9.7 1.5 1.7 4.7 1.7 4.7s.1.6 4.1 2c5.7.7 10.1 4.3 14.3 8 2.5 4.7 5.2 9.6 5 15.1Z"/><path class="a4adda12-d824-4798-add1-ca6cfd920a6d" d="M230.4 115.6c-1.2.1-1.1 1-1.1 1.8l.1 5.4a22.8 22.8 0 0 1 .2 2.6l-.2 7.7c0 2.6.2 3.2.3 4.8a40.1 40.1 0 0 1-.1 4.9 3.7 3.7 0 0 1-1.5 2.5c-3.6 2.5-7.3 5-11.1 7.3a27.5 27.5 0 0 1-5 2l.3-8 .1-1.3.2-8.5-.1-7.5c0-.4-.2-.9-.1-1.2s1.1-1.3 1.3-1.2 1.4-.2 1.5-.9a61.8 61.8 0 0 0 .7-6.2l9.1-8.6a1.4 1.4 0 0 1 1.4.1l4 4.3Z"/><path class="b05cef1b-a63a-4921-9e39-b11cc11ac086" d="m258 184-.9-4.7-.1-.7-.2-1-.1-.6-3.2-18.3c-1-6.1-1.7-12.9-2.5-19.4a20 20 0 0 1-.2-3.5l9.9-22.5a7.5 7.5 0 0 1 .9-1.5 29.1 29.1 0 0 1 .4 3.1c.1 4.7.3 9.3.3 14l-.3 14.7c0 2.9.3 5.7.3 8.6l-.3 15.2c0 .5.5 1.1.7 1.6s-2.2 3-3.4 4.4a1.3 1.3 0 0 0-.1 1.9l2.8 3.9a49.1 49.1 0 0 1 6 9.1c0 4-1.3 3.5-1.4 7.5 0 2-3.5 6.6-3.7 8.7l-1.9-7.3-2.6-11.6-.2-1a1.4 1.4 0 0 0-.2-.6Z"/><path class="a172f468-3552-4710-b67f-caa48b016f5b" d="m278.7 86-3.8-2.1 2.5-3 3.8-5.1c.4 1.1-.4 2.5 1.1 3.4 5.5 3.2 10.8 6.6 16.3 9.9l6.4 3.5c.2.8.4 1.4 1.3.7l2.4 1.4 1.3.6 2.3 1a3.8 3.8 0 0 1-2.5 3.9l-.5-.2c-.9-2-1.8-.5-2.4.1l-3.6 3.7c-1.2 1.2-3.2 3.2-4.5 5s-.8 2.1-2.4 1.7-1.3.9-1.8 1.5-1.1 1.5-1.8 2.1-1.4 1.7-1.6-.3c0-.4-.8-.8-1.2-1.2s0-.6-.3-3.6l-.4-2.4-.3-.6c-1.4-3.9-2.6-7.9-4.3-11.7a20.4 20.4 0 0 0-6-8.3Z"/><path class="f0bb4ddc-115d-4497-a1a1-7765451d9c18" d="M248 130a12.2 12.2 0 0 0-.3 1.7l.3 15.7v40.3l-.1 10a5.1 5.1 0 0 1-.9 1.6l-2.3-7.4a20 20 0 0 0-.4-2.4l-1.6-6.7-4-17.7-2-9.8c-.7-3.3.8-4.1.9-6.1a65.7 65.7 0 0 1 3.5-16.4 7.5 7.5 0 0 1 4.3-4.6Z"/><path class="aeb6d0e2-2aaa-4864-90de-d73adf6cc7d1" d="M215.9 119.8a61.8 61.8 0 0 1-.7 6.2c-.1.7-.3 1.7-1.5.9s-1 .7-1.3 1.2.1.8.1 1.2c.1 2.5.2 5 .1 7.5l-.2 8.5-.1 1.3-.3 8c-5 .1-10 .4-14.9.3s-4.1-.8-3-4l8.7-25.6.9-3a8.6 8.6 0 0 0 .7-1l2.9-7 2.4 11.2a3.2 3.2 0 0 0 .3.9l.7-.6Z"/><path class="e09089a7-a26c-48cf-a183-0036bd066541" d="m308.7 94.7-2.4-1.4-1.3-.7-6.4-3.5c-5.5-3.3-10.8-6.7-16.3-9.9-1.5-.9-.7-2.3-1.1-3.4l2.1-2.3c.7-.7 1.4-.6 2.3-.2 6.7 3.6 13.4 7.3 20.2 10.7 5.1 2.6 10.3 4.9 15.5 7.3a3.4 3.4 0 0 0 1 0l6.4-12a6.6 6.6 0 0 1 3 1l.7.6c-.1.6.1 1.3-.1 1.8l-6 18.1c-.5 1.6-1.4 1.5-2.6.9l-11.4-5.4-2.3-1Z"/><path class="a0682fda-c403-4739-977b-4d588c2bc3ce" d="m207.3 114.3-2.9 7a8.6 8.6 0 0 1-.7 1h-.4l-3-8c.8-.7.7-1.4.2-2.3a48.1 48.1 0 0 1-2.2-4.6 2.1 2.1 0 0 1 .1-1.9 27.2 27.2 0 0 1 1.6-3.5c1.3-.1 2.7 0 4-.2a25.6 25.6 0 0 0 14.3-8.9c.3-.4.9-.6 1.3-.9a46.9 46.9 0 0 1-5.1 13 11.9 11.9 0 0 0-.8 2l-.2.2.2-.2 6.4-3.3 1.6-1c.5 1.9-.6 2.8-2.2 3.7-3.7 2.1-7.3 4.4-10.9 6.7a7.4 7.4 0 0 0-1.3 1.2Z"/><path class="adf26742-458b-4bf0-9628-bb0d0a9f8870" d="m304 65.1.1-2.8c2.9 1.8 5.8 3.5 9.2 4 .1 2.3.3 4.6.3 7 0 .4-.4.9-.6 1.4l-6.3-8.1Z"/><path class="e56c385c-79da-4806-af0f-bf2f6bf8d45f" d="M191.2 161.1c.3 1.6-12.3 0-15.2-.6l-7.3 3.8-1 .3-2.4 1-9.6 4.4a13.8 13.8 0 0 1-.3-2v-8.3l.3-5.1 9-1.6h.6l5-1.3c1.2-.3 24.3-6.6 25.5-6.8.5 1.6-5 14.6-4.6 16.2Z"/><path class="a172f468-3552-4710-b67f-caa48b016f5b" d="M378.7 158.9c-2.7.1-5.4 1.3-8.1.3.1-.9-3.4 2.2-14.3-9.9-9.2-8.8-12.8-12.4-16.2-13.3.7-3.3-8.1-55.4-1.9-48.6a415.2 415.2 0 0 1 35.1 48.8c1.4 2.1 13.4-3.2 19.2-4.1s14-1.3 21-1.7c2-.2 9.7.5 11.7.7 1.1 6.1 2.4 9.8 3.5 16-.6 3.1-4.7 1.8-5.7 2.2l-3.3.9-.7.2-5.7 1.2-13.3 2.8-.7.2-10.6 2.3-1 .2Z"/><path style="fill:#fff" d="M195 90h16v6h-16z"/><path class="b812531f-464a-446a-bd01-fae37e2851bf" d="m375.3 136.7-2.8 11.9-1.5 8.1a18.7 18.7 0 0 0-.4 2.5 20 20 0 0 1-11.5-6.9l-2.8-3c.4-.7 1.2-1.3 1.3-2.1q1.5-6.4 2.7-12.9l2.4-13.3c0-.3.3-.5.5-.8 3 4.9 6.2 9.6 9 14.7.9 1.6 1.6 2.3 3.1 1.8Z"/><path class="b84899c8-35f9-42f4-a075-4323396c8249" d="M355.2 108.8c-4.8-7-23.7-31-25.8-29.1s-4.5 9.5-7.1 12-36.8-19.3-38.3-17.9c-3.4 3.3-10.2 8.2-18.2 28.9-.5 1.5-4.7 9.5-12.9 28-3 6.8 2.4 27.5 1.1 23l4.4 16.8c.2-1.5 19-24 20.2-25.5 1.1.1 3.4 1.8 6.6 10.9 3.8 13.7.6 41.3.1 41.8a31.1 31.1 0 0 0-.8 4.4 6.6 6.6 0 0 0 .6 2.7c.6.1 28.2 9.6 58.9-1.7 2.9-.6 2.5-4.2 2.5-6.6V164c-.8.4 1.2-13.8.6-23.9.3 0 .4.5 1.2 1.1s4.7 4.4 8 7.8a6.7 6.7 0 0 0 1.3-2.1q1.5-6.5 2.7-12.9c.9-4.4 1.6-8.9 2.4-13.3 0-.2.1-.3.3-.5Zm-76.6 36.5c-.9.9-.9-.1 0 0Z"/><path class="b84899c8-35f9-42f4-a075-4323396c8249" d="m356.6 148.9-.3.4-1.2-.8-6.8-7.5.1-.4c1.9 1.6 4.9 4.9 8.2 8.3ZM363.2 120.2l-.2.3-7.8-11.4h.1l7.4 10.6Z"/><path class="b758460e-5560-40ed-b152-991bece7b2df" d="M449 137.6a16.4 16.4 0 0 0 .2 2.3l-1.9 1.1c.7 1.4 2.1 3.2-.4 3.6-6.7 1.2-10.7 3.8-18.2 2-.6-.2-2.9-11.7-3.4-12.2 6.2-3.8 8-9.2 9.9-12.8 1.3-1.9 3.4-3.1 3.5-5.6.2-.8.3-2.5.8-2.9 2.3-.4 2.4 2.4 3.2 3.9s-1 3.7-1.8 5.1c-2.7 4 1.5 5.6 4.8 6.3s4.2 1.4 3.6 4.6 2.3 3.9-.3 4.6Z"/><path class="e09089a7-a26c-48cf-a183-0036bd066541" d="m423 149.3-3.4-18.5a51.2 51.2 0 0 1 5.6.3c.5.1.8 1.4 1.1 2.2s.7 4.4 1.1 6.5l1.3 6.8.2.3c-.3 1.9-1.8 2.2-3.2 2.6l-.7.2h-.7Z"/><path class="adf26742-458b-4bf0-9628-bb0d0a9f8870" d="m428.7 146.6-1.3-6.8-1.1-6.5 3.7-3c.5.5 1.2 1 1.4 1.5l1.9 10.1 1 5.3H431Z"/><path class="e5e2ef16-459d-4ff7-9830-3e42b2a82324" d="M396.3 307.9Z"/><path class="ae52e57d-3b1d-49f1-bd00-955310113461" d="M219.6 92c-.4.3-1 .5-1.3.9a25.6 25.6 0 0 1-14.3 8.9c-1.3.2-2.7.1-4 .2a19.3 19.3 0 0 1-8.7-11.3l2.4-1.4 8.5-4.8.6-.6-.8-.2h-2.9c-1.9 0-2.4-.8-1.8-2.5l.6-2.2a24.3 24.3 0 0 1 1.3-3.8c.2-.6 1-1.4 1.5-1.4s1.3.7 1.6 1.3a5.2 5.2 0 0 1 .7 2.2 4.4 4.4 0 0 0 3.6 3.7 14 14 0 0 0 4.5.6c3.7-.1 4.7-1.1 5.6-4.5a8.4 8.4 0 0 1 .6-1.4c3.3 5 3.8 10.5 2.3 16.3Zm-17.8-1.3c-1.3.1-2.7-.2-3.9 0s-1.4.2-1.5.8.9 1.3 1.4 1.4c2 .3 1.7 1.4 3.7 1.4a22.6 22.6 0 0 0 5.6-1.7c.4-.1 1-.7.8-1.2s-.7-.6-1.2-.7h-4.9Z"/><path class="b758460e-5560-40ed-b152-991bece7b2df" d="M188.8 68.6a22.4 22.4 0 0 1 1-9.3c1-3.3 3.7-4.9 6.6-6.1.2-.1.9.2.9.4.8 4.9 4.2 7.9 7.8 10.8.6.6 1.6 1 .2 1.9a1.1 1.1 0 0 0-.1.8c.2.1.7.3.9.2 2.1-.9 3.3.5 4.6 1.7l-7.9 1.1a10.3 10.3 0 0 1-3.5 0 27 27 0 0 0-10.5-1.5Zm5.7-4.3-.3-.3-4.5 2.3c-.3.2-.2.9-.3 1.3s.8.2 1 0a6.2 6.2 0 0 1 6.1-1.4c.3.1.7-.3 1.1-.5s-.4-.8-.7-.9a10.3 10.3 0 0 0-2.4-.5Z"/><path class="a172f468-3552-4710-b67f-caa48b016f5b" d="M188.8 68.6a27 27 0 0 1 10.5 1.5 10.3 10.3 0 0 0 3.5 0l7.9-1.1c1.7.2 3.5.3 5.2.6s2.7 1.7 1.9 3.8a8.7 8.7 0 0 0-.5 2.2 8.4 8.4 0 0 0-.6 1.4c-.9 3.4-1.9 4.4-5.6 4.5a14 14 0 0 1-4.5-.6 4.4 4.4 0 0 1-3.6-3.7 5.2 5.2 0 0 0-.7-2.2c-.3-.6-1.1-1.4-1.6-1.3s-1.3.8-1.5 1.4a24.3 24.3 0 0 0-1.3 3.8l-4.2 2.1-5.3-.4h-.4l-2.5-1.9c-.6-2.2-1.3-4.4-1.7-6.6s.6-2.1.9-3.1Zm4.5 11h1c2.8-1 2.9-3.5 3.4-5.8s-.4-2.6-2.1-2.9l-1.6-.2-5-.2c-1.3.2-2.5.6-2.7 2a7.3 7.3 0 0 0 1.6 6.5Zm22.2-4.9a4.4 4.4 0 0 0-3-3.6 13.5 13.5 0 0 0-7.2.3 2.5 2.5 0 0 0-1.3 1.7c-.5 4 1.7 6.9 5.7 7.1 1.5 0 3.5.2 4.5-1.4a17.9 17.9 0 0 0 1.3-4.1Z"/><path class="b758460e-5560-40ed-b152-991bece7b2df" d="M315 43.3a11.3 11.3 0 0 1-1.8.3 3.9 3.9 0 0 0-3.5 2.9c-1.5 4.6-3.1 5.2-7.4 3a9.4 9.4 0 0 1-5.6-8.8l-.2-7c-.1-2.3.3-1.5 1.3-1.4h1c1.5-.4 2.1 0 2.3 1.7.3 3.5 4 5.9 7.6 5.2a6.4 6.4 0 0 0 5.2-7.6 2.2 2.2 0 0 1 1.2-2.8 3 3 0 0 1 3.6.3c.2.1.1.6.2.9s-.9 1.1-.8 1.5a38.7 38.7 0 0 0 1.3 6.1c1.3 4.1 1.2 4.4-3.1 4.4h-.4c-1.2-.3-1.5.2-.9 1.3Z"/><path class="b758460e-5560-40ed-b152-991bece7b2df" d="M302.4 32.8a5.1 5.1 0 0 1 5.1-5.1 5 5 0 0 1 5 5.1 5.3 5.3 0 0 1-5.1 5.1 5.4 5.4 0 0 1-5-5.1Zm6.6.7c-1.1-.7-1.7-1.4-2.3-1.4s-1.2.8-1.3 1.3.4 1.7 1.4 1.5 1.1-.7 2.2-1.4ZM322.6 49.6c.9 1.9.7 3.2-.9 4.1s-1.8.6-2.3-.6a1.4 1.4 0 0 0-2.4-.2c-1.5 2-5.1 2.3-6.5.3s.2-2 .4-3 .8 1 1.4 1.1a14.3 14.3 0 0 0 10.3-1.7Z"/><path class="edbedb32-23a2-461a-bfe7-adbd8ef4957b" d="M322.6 49.6a14.3 14.3 0 0 1-10.3 1.7c-.6-.1-1-.7-1.4-1.1a3.5 3.5 0 0 1 1.3-.5 20.7 20.7 0 0 0 9.2-1.4c1.3-.5 1 .7 1.2 1.3Z"/><path class="b758460e-5560-40ed-b152-991bece7b2df" d="m245.5 434.9-4.8 10.3a23.6 23.6 0 0 1-10.4 2.7 6.1 6.1 0 0 0 2.8-3.9l1.7-7c.6-2.3 1.9-4.5 2.9-6.7s.4-5.6-.7-8.4l-6-15.9-4.3-11a14.8 14.8 0 0 0-1 2.7c-1 7-2.1 13.9-2.9 20.8-.3 2.8-2 5.6.2 8.3l-.9 1.6c-1.7 2.6-2.9 5.3-2.3 8.6-.3.4-.4 1-.8 1.4a21.1 21.1 0 0 0-6 9.2 21 21 0 0 1-10.1 2.5c1.1-1.4 2.6-2.7 3.2-4.3a82.6 82.6 0 0 0 2.2-8.9l3-7a46.2 46.2 0 0 0 2.5-19.9c-.4-4.1-.5-8.2-.8-12.2l-1.7-18.8-.3-5.1-.8-6-.8-6.6c2.1-.3 4.1-.7 6.3-.9a40.1 40.1 0 0 1 4.9.1c1.2 0 2.4.3 3.5.3s3.6-.2 5.3-.1a1.3 1.3 0 0 1 .9 1l-.7 8.2c-.3 2.7-.4 2.7-.6 4v1.4a30.3 30.3 0 0 0 3.2-1.2 17.5 17.5 0 0 0 2.9-1.8c.5-.3.6-.9.9-1.4l1.4 7 .3 1.1 1.8 10.6.2 1.3.1.7.2 1.4a1.4 1.4 0 0 0 .2.6l.1 1.3a2.5 2.5 0 0 1 .2.7l.5 3.3a6.4 6.4 0 0 0 .2.7 9.9 9.9 0 0 0 .2 1.7l1.9 11.7 1.7 10.6c-1.3 3.9-1.8 7.7.5 11.3Z"/><path class="a172f468-3552-4710-b67f-caa48b016f5b" d="M223 426.8a16.6 16.6 0 0 1 2.1 1.6l1.4 1.9.7 4.6a8.7 8.7 0 0 0-6.2 1.7l-1.2.4c-.6-3.3.6-6 2.3-8.6Z"/><path class="f0bb4ddc-115d-4497-a1a1-7765451d9c18" d="m200.3 114.3 3 8c-.6 1.5-1.4 2.9-1.9 4.5l-8.7 24.2-.7 2.9c-.3 1-.5.5-.7.7l-.3-2-1-1a12.4 12.4 0 0 0 .3-2.7c0-.2-1-.4-1.6-.6s-2.5.3-3.6 0-3-2.4-4.8-2.3l.5-1.6 12.5-25.8v-.3l1.2-2.1 1.2 2.3 1.4 3.5c.5 1.2.4.3.6.5a2.5 2.5 0 0 0 .2-.7c.4-2.6.7-5.3 2.4-7.5Z"/><path class="adf26742-458b-4bf0-9628-bb0d0a9f8870" d="m202.8 83.9-.6.6-8.5 4.8-2.4 1.4-2.9-10.1 5.3.4 4.2-2.1-.6 2.2c-.6 1.7-.1 2.5 1.8 2.5h2.9Z"/><path class="aff31243-7cf2-48d7-97ac-091dbd456251" d="m185.5 78.7 2.5 1.9c-.4 2.8-.7 5.7-1.3 8.5-.2 1-1.2 1.9-1.9 2.9l-.5.3c-.1-.3-.2-.5-.1-.7l1.3-12.9Z"/><path class="e09089a7-a26c-48cf-a183-0036bd066541" d="M294.4 428.6c1.6 4.4 2.9 8.7 2.7 13.3a9.7 9.7 0 0 1 0 1.7l-10.3 1.8a20.2 20.2 0 0 1-3.5.1l-.2-2.8-.1-7.8a18.5 18.5 0 0 1 4.1.2c1.6.4 3.2 1.2 4.8 1.7a3.9 3.9 0 0 0 1.5-.2c-.3-.4-.4-1-.7-1.3a19.8 19.8 0 0 0-2-1.1l.4-.4 1.2-.9c-.3-.3-.5-.8-.9-1a14.6 14.6 0 0 0-8.4-2v-.6a11.6 11.6 0 0 1 6.1.8c.5.2 1.3-.2 1.9-.3s-.7-1.3-1.2-1.4c-2.1-.5-4.3-.8-6.5-1.1v-2.1l.7-.3h2.3c6.8.9 6.6 2.8 8.1 3.7Z"/><path class="a172f468-3552-4710-b67f-caa48b016f5b" d="m324 429.9 4-.6 2.2 1.3c2.4 1.5 4.7 3.2 7.8 2v9.7l-12.6-1.1c-2.4-.9-3.7-2.7-1.7-10.9Z"/><path class="b812531f-464a-446a-bd01-fae37e2851bf" d="m312.3 96.3 11.4 5.4c1.2.6 2.1.7 2.6-.9l6-18.1c.2-.5 0-1.2.1-1.8l3.6 3.8.4.6.3.4.4.4h-.1l.4.4c.2.2.9 2.2 1.4 3.4l3.9 9.3-.4 1.4c-.2.5-.4 1.8-1 2.3l-7.8 7.4-2.5 2.2-8.6 8.8c-1.6 1.6-3 3.3-4.7 4.9l-6.4 5.8-2.2 1.9-7.6 7.8a15.7 15.7 0 0 1-1.9 1.8c-1.4 1.3-3.3 2.1-4.2 4s-1.3 1.3-1.9 1.9l-.9-2.3-5.3-13.9a3.2 3.2 0 0 0-1-1l1.7-3.8a14.8 14.8 0 0 0 2-7.7v-7.9c.4.4 1.2.8 1.2 1.2.2 2 1.1.7 1.6.3s1.1-1.4 1.8-2.1 11-10.8 12.3-11.9 1.5-2.1 2.4-.1l.5.2a3.8 3.8 0 0 0 2.5-4.1Z"/><path class="e09089a7-a26c-48cf-a183-0036bd066541" d="m336.4 85.3-.4-.6ZM337.1 86l-.4-.4ZM337.4 86.3l-.4-.4ZM336.7 85.6l-.3-.4Z"/><path class="b812531f-464a-446a-bd01-fae37e2851bf" d="M283.8 425.2c.2 1.2 0 .8-.1 2s-2.5.6-3.7 1.1-.4.8-.7 1.2.9.4 1.3.3l2.6-.5v.6c-1.9.5-3.8.9-5.6 1.5s-.4.8-.6 1.2a5.6 5.6 0 0 0 1.2.4c.4 0 .7-.3 1.1-.4 4.2-1.5 8.2-1.5 12 1.3l-.5.3-1.1-.3a18.3 18.3 0 0 0-13.4.7c-.6.3-.9 1-1.3 1.6a12.1 12.1 0 0 0 1.9 0l6.3-1.3.1 7.8a24.6 24.6 0 0 0 .2 2.8l-12.6-1.6 4.3-13.6 3-7.6c-.2 1.6.2 3.2 1.7 3Z"/><path class="aff31243-7cf2-48d7-97ac-091dbd456251" d="m306.7 22.2 4.9 1.1c.4.1.7.7 1.1 1s-1.1.8-1.5.7a11.9 11.9 0 0 0-8.9.1c-.4.2-1-.2-1.5-.4s.5-1.1 1-1.3l4.9-1.2Z"/><path class="e56c385c-79da-4806-af0f-bf2f6bf8d45f" d="M338 432.6c-3.1 1.2-5.4-.5-7.8-2s-3.2-1.5-4.6-2.4 0-2.1.1-3l15.7-.3c.2.9.7 1.7.8 2.5a3.7 3.7 0 0 1-.6 2.1c-1.1 1.1-2.4 2.1-3.6 3.1Z"/><path class="b84899c8-35f9-42f4-a075-4323396c8249" d="m347.1 140.5.2 13c.1 4.3-.5 6.2-.7 9.3a7.6 7.6 0 0 1-.1 1.5 9 9 0 0 0-2.4 1.2c-1.9 1.7-3.6 3.7-5.4 5.5l-7.4 6.9-7.5 7.4-4.5 4.2c-3.3 3.3-6.7 6.6-10 10.1-1.1 1.1-1.7 1-2.6-.1a29.7 29.7 0 0 1-6.7-12l-2.2-7.6c-.3-1-.8-1.3-1.6-.5s-4.2 4.6-6.5 6.6-1.3 2.8-1.6 4.2l-1.5 6.4c-.2.5-.8.9-1.3 1.4l1.7-15.4.3-4.3c2-.4 1.4-2.1 1.3-3.2-.4-5.2-1-10.3-1.7-15.4 0-.6-.9-1.2-1.4-1.7l-.3-1.8c.2-1.2-.8-2.6.7-3.7a34.2 34.2 0 0 0 4-3.6c1.2-1.5 1.5-.6 1.9.4l2.2 6.7c.7 2.2.7 3.3 1 4.9l1.4 7.5a1 1 0 0 0 .6.8c.2.1.6-.1.8-.3l5.4-5.3 15.2-14.9 1.8-1.8 6-5.4 9.6-9.5 9.3-9.2a6.7 6.7 0 0 1 1.6-1.2l.3 14.3.1 4.6Z"/><path class="b05cef1b-a63a-4921-9e39-b11cc11ac086" d="M346.7 121.6a6.7 6.7 0 0 0-1.6 1.2l-9.3 9.2-9.6 9.5-6 5.4-1.8 1.8-15.2 14.9-5.4 5.3c-.2.2-.6.4-.8.3a1 1 0 0 1-.6-.8l-1.4-7.5-1-4.9c-.4-1.6-1.4-4.5-2.2-6.7s-.7-1.9-1.9-.4a34.2 34.2 0 0 1-4 3.6c-1.5 1.1-.5 2.5-.7 3.7l-1.5-3.4-1.7-4.1-.3-.4a7.5 7.5 0 0 1-.7-1.2c0-1.2.3-2.7-1.7-2.8l7-12.3a3.2 3.2 0 0 1 1 1l5.3 13.9.9 2.3c.6-.6 1.5-1.1 1.9-1.9s2.8-2.7 4.2-4a15.7 15.7 0 0 0 1.9-1.8l7.6-7.8 2.2-1.9c2.2-1.9 4.4-3.8 6.4-5.8l4.7-4.9 8.6-8.8 2.5-2.2 7.8-7.4c.6-.5.7-1.5 1-2.3l.4-1.4c1.1 4 2.5 7.9 3.2 12s.5 7.1.8 10.6Z"/><path class="fdccb9d0-c222-4a54-85ac-d7e006204e60" d="M233.7 437ZM221 449.3h-6.1a18.3 18.3 0 0 1 3.9-8.6 8.3 8.3 0 0 1 1.6-.9 4.9 4.9 0 0 1 .6 1.7Z"/><path class="a172f468-3552-4710-b67f-caa48b016f5b" d="M230.3 447.9a23.6 23.6 0 0 0 10.4-2.7c-.4 1.9-.6 3.8-1.1 5.6s-.9.9-1.4 1.1a23.4 23.4 0 0 1-3.8.3c-.9.1-1.1.5-1.1 1.3H224l-.3-.2 2.5-3.9ZM245.5 434.9c-2.3-3.6-1.8-7.4-.5-11.3l5.5 4.1c.5.4.5 1.2.8 1.8s-.1.5-.3.5c-2.3.8-3.5 2.8-5 4.5a1 1 0 0 1-.5.4Z"/><path class="a0682fda-c403-4739-977b-4d588c2bc3ce" d="M289.1 30.1a17 17 0 0 1 1-1.4h.9c-.1.3-.3.5-.2.8l.2 3.6a1.7 1.7 0 0 1 .1.7c-.2-.1-.5-.2-.6-.5l-1.4-3.2Z"/><path class="b84899c8-35f9-42f4-a075-4323396c8249" d="m223.7 453.3.3.2Z"/><path class="ae52e57d-3b1d-49f1-bd00-955310113461" d="m239.8 391.6-.1-.7.1.7ZM240.2 393.6a1.4 1.4 0 0 1-.2-.7 1.4 1.4 0 0 0 .2.7ZM240.5 395.6a2.5 2.5 0 0 0-.2-.7ZM241.2 399.6a6.4 6.4 0 0 1-.2-.7 6.4 6.4 0 0 0 .2.7Z"/><path class="b84899c8-35f9-42f4-a075-4323396c8249" d="M261.3 198c.2-2 .5-4.1.5-6.1l-.1-11.9c0-.3.2-.5.3-.8a90.1 90.1 0 0 1 14.4 24 22.2 22.2 0 0 1 1.3 5.8c.1.9-.5 2-.7 3s-1.9 1.4-3 1.6c-2.7.7-5.6 1.2-8.4 1.8l-4.3-17.4Z"/><path class="a0682fda-c403-4739-977b-4d588c2bc3ce" d="M288.7 220.2a10.7 10.7 0 0 1-1.9 1.8l-9.1 4.9-6.7 3.5-1.4-1.4-1.7-5.2-1.9-7.1-.3-1.3 8.3-1.8c1.1-.2 2-1.1 3-1.6l3.7 4.6h.5Z"/><path class="b05cef1b-a63a-4921-9e39-b11cc11ac086" d="M285.5 158c.5.5 1.4 1.1 1.4 1.7.7 5.1 1.3 10.2 1.7 15.4.1 1.1.7 2.8-1.3 3.2l-1-15.9-.8-4.4Z"/><path class="b812531f-464a-446a-bd01-fae37e2851bf" d="M279.3 144.3c2 .1 1.7 1.6 1.7 2.8l-2.4-1.9a1.3 1.3 0 0 0 .1-.6ZM281.7 148.3l.3.4Z"/><path d="m224.6 317.2-2.9.2c-.1-3.8-.3-7.5-.3-11.3l-.1-14.5V266l-.2-3.1c.1-4.4.5-8.7.5-13s-.4-6.7-.5-10l.2-14.6c0-1.1-.3-2.2-.2-3.3.1-4.2.6-8.4.5-12.5-.1-1.8-.3-3.4.7-4.9l1.6-.3a20.2 20.2 0 0 0 3.6 11.2c3.1 4.5 6.5 8.8 9.7 13.2 1.4 3.9 2.9 7.7 4.1 11.6a52.2 52.2 0 0 1 1.1 5.7l.3 6.9-1.4 17.4-1.1 7-3.7 14.2-.9 3.1-4.5 11.7-1.3 3-2.8 6a3 3 0 0 1-2.4 1.9Z" style="fill:#01b080"/><path class="adf26742-458b-4bf0-9628-bb0d0a9f8870" d="M266.7 244.6c-.2-.1-.6-.2-.7-.4s-.1-1.8.3-2.2 3.2-3.8 6-3.4l5.4 2.3a24.8 24.8 0 0 1-3.7 1.7l-6.2 1.9Z"/><path class="a4adda12-d824-4798-add1-ca6cfd920a6d" d="M272.3 238.6c-2.8-.4-4.2 1.9-6 3.4s-.2 1.5-.3 2.2h-.7l-.6-.3a43.3 43.3 0 0 1-7.4-13.9 13.8 13.8 0 0 0 .3-2l.1-40.6a4.5 4.5 0 0 1 .7-1.8l2.6 11.6.3.8 4.3 17.4a5 5 0 0 1 .4 1.3l1.7 6.5 1.9 5.7Z"/><path class="b812531f-464a-446a-bd01-fae37e2851bf" d="m284.3 425-.7.3ZM287.3 425.3l-.6-.2Z"/><path class="aeb6d0e2-2aaa-4864-90de-d73adf6cc7d1" d="m155.7 155-.3 5.1v8.3a12.5 12.5 0 0 0 .3 1.9l-10.4 4v-11.2a21.4 21.4 0 0 1 .1-4.4 3.5 3.5 0 0 1 1.7-2.2c2.8-.7 5.7-1 8.6-1.5Z"/><path class="b758460e-5560-40ed-b152-991bece7b2df" d="m428.7 146.6 2.3.6-2.1-.3ZM431.7 147.3Z"/><path class="bc3220c8-3743-4b02-bd33-d06deeb4b8bf" d="m387.7 157.1 1-.2a3.6 3.6 0 0 0-.4.9Z"/><path class="fdccb9d0-c222-4a54-85ac-d7e006204e60" d="m419 150.4.7-.2Z"/><path class="bc3220c8-3743-4b02-bd33-d06deeb4b8bf" d="m399.3 154.6.7-.2Z"/><path class="fdccb9d0-c222-4a54-85ac-d7e006204e60" d="m425 149.7.7-.2Z"/><path d="M221.6 209.5c.1 4.1-.4 8.3-.5 12.5-.1 1.1.2 2.2.2 3.3l-.2 14.6c.1 3.3.5 6.7.5 10s-.4 8.6-.5 13l.2 3.1v25.6l.1 14.5.3 11.3-14.2.6-5.2-.3.1-23c0-3.1.3-6.2.2-9.3 0-4.9-.2-9.7-.3-14.6s0-7.7.1-11.5l.2-7.9-.2-8.2-.1-10.3c0-3.4.3-7.5.3-11.3s-.2-5.5-.3-8.2a27.7 27.7 0 0 1 .1-4.1 2.3 2.3 0 0 1 1.4-1.3l6.8-1.3 11.1-2.1c.2 0-.2 3.1-.1 4.9Z" style="fill:#00a580"/><path class="aeb6d0e2-2aaa-4864-90de-d73adf6cc7d1" d="m196 198.7.4-17.1.6-12.9c0-1 .4-1.4 1.4-1.4l14.9.7c1.5.1 2 1.1 1.6 2.8s-1.2 4.7-1.6 7a38 38 0 0 0-.6 5.8l-.3 13.4a4.4 4.4 0 0 0 .6 1.6c-4.2.2-8.4.5-12.6.5a21.8 21.8 0 0 1-4.4-.4Z"/><path class="f0bb4ddc-115d-4497-a1a1-7765451d9c18" d="m186 197.1-.3-22.5.1-8.3 9 1a1.5 1.5 0 0 1 .8 1.1 433 433 0 0 1-.6 16.1v.5l-.3 13.6Z"/><path class="a256a124-15d7-4251-a16b-97be829ca75f" d="m183.2 246.3-.1-.3.2.2-.1.1ZM183.1 228.7Z"/><path class="e09089a7-a26c-48cf-a183-0036bd066541" d="m279.3 144.3-.6.3a4.1 4.1 0 0 1-.7-1.7V90.7c0-1.1-.1-2.1 0-3.2a10.1 10.1 0 0 1 .7-1.5 20.4 20.4 0 0 1 6 8.3c1.7 3.8 2.9 7.8 4.3 11.7l.3.6.4 2.4.3 3v8.5a14.8 14.8 0 0 1-2 7.7l-1.7 3.8-7 12.3Z"/><path class="a4adda12-d824-4798-add1-ca6cfd920a6d" d="M258 184a1.4 1.4 0 0 1 .2.6 1.4 1.4 0 0 0-.2-.6ZM256.7 177l.1.6-.1-.6ZM257 178.6l.1.7-.1-.7Z"/><path class="b812531f-464a-446a-bd01-fae37e2851bf" d="m308.7 94.7 1.3.6ZM289.3 106.6l-.3-.6Z"/><path class="a172f468-3552-4710-b67f-caa48b016f5b" d="M244.7 191.9a35.3 35.3 0 0 1-7.5-20.2c.1-2.2 1-4.4 1.5-6.6l4 17.7 1.6 6.7a20 20 0 0 1 .4 2.4Z"/><path class="aff31243-7cf2-48d7-97ac-091dbd456251" d="m213.7 107-.2.2.2-.2ZM194.5 64.3a10.3 10.3 0 0 1 2.4.5c.3.1.4.6.7.9s-.8.6-1.1.5a6.2 6.2 0 0 0-6.1 1.4c-.2.2-.7 0-1 0s0-1.1.3-1.3l4.5-2.3Z"/><path class="b758460e-5560-40ed-b152-991bece7b2df" d="M215.5 74.7a17.9 17.9 0 0 1-1.3 4.1c-1 1.6-3 1.4-4.5 1.4-4-.2-6.2-3.1-5.7-7.1a2.5 2.5 0 0 1 1.3-1.7 13.5 13.5 0 0 1 7.2-.3 4.4 4.4 0 0 1 3 3.6Zm-5.7-.6c-.7.9-1.4 1.5-1.3 1.9s.9 1 1.4 1.5 1.2-.9 1.2-1.5-.6-1-1.3-1.9ZM189 70.4l5 .2v3.7c-1.4.9-1.4 1.8-.3 2.9s-.3 1.6-.4 2.4l-5.4-.7 1.1-8.5Z"/><path class="a0682fda-c403-4739-977b-4d588c2bc3ce" d="m193.3 79.6.4-2.4c.1-.8 1.8-.1 1.9-1.2s-.7-1.5-1.6-1.7v-3.7l1.6.2c1.7.3 2.5 1.3 2.1 2.9s-.6 4.8-3.4 5.8Z"/><path class="aff31243-7cf2-48d7-97ac-091dbd456251" d="m189 70.4-1.1 8.5a7.3 7.3 0 0 1-1.6-6.5c.2-1.4 1.4-1.8 2.7-2ZM309 33.5c-1.1.7-1.6 1.3-2.2 1.4s-1.6-.5-1.4-1.5.8-1.3 1.3-1.3 1.2.7 2.3 1.4ZM324.7 33.4c-1.1.1-2.2.1-2.2-1.3s.8-1.6 1.8-1.6 1.3 1.8.4 2.9Z"/><path class="a0682fda-c403-4739-977b-4d588c2bc3ce" d="m193 155.9-1 1c.3 1.6 1.1 3.1-1.3 3.3-2.2 2.9-5 2.8-8.3 2.4l-.7-.7c.1-7 .9-14.7-.7-21.4.7-3.8 1.6-13.8 4.3-4.1.1 2.7-.9 5.4-.6 8.1s-.4 1.8 1.6 1.5 4.5-3 5.9-.8.3 2.2.1 3.4.5 2.2.8 3.3-.1 1.3.2 2Z"/><path class="adf26742-458b-4bf0-9628-bb0d0a9f8870" d="M181.7 161.9c.1-2.3 1.5-3.8 1.5-6.1s-.4-4.7-.5-7.1-1-4.9-1-7c0-.4-.5-.8-.7-1.2l-2.2 5.8c-.7 1.9-.4.4-.6.8s-3 1.4-3.1 2-1.2 1.8-1.1 2.2 2.3 8.3 2 9.4c1.4 2.1 3 .6 5.7 1.2ZM264.7 243.9l.6.3Z"/><path class="aff31243-7cf2-48d7-97ac-091dbd456251" d="M209.8 74.1c.7.9 1.3 1.5 1.3 1.9s-.8 1-1.2 1.5-1.3-.9-1.4-1.5.6-1 1.3-1.9ZM194 74.3c.9.2 1.8.5 1.6 1.7s-.9 1.3-1.9 1.2-1.1-2 .3-2.9Z"/><path class="a0682fda-c403-4739-977b-4d588c2bc3ce" d="m450.6 135.6-7.2 1.3-4.2.6c-1.4.1-.8-.5-.8-.8a15.2 15.2 0 0 1 .3-2.1l1.3-.6h1.8l7.5-.9 1.3 2.5ZM439 131.6c-.1-1.2.8-1.7 1.8-1.9l4.9-1.3c1.3.3 3.1-.2 3.6 1.7a4.2 4.2 0 0 1 .1 1.6l-10.1.9ZM449.2 139.9c-2.9.4-5.9.8-8.8 1-.6.1-1.2-.4-1.7-.7s.7-1.5 1.3-1.6a50.3 50.3 0 0 1 6.7-1.6 7.1 7.1 0 0 1 2.3.6l.2 2.3ZM448 142.3l-1.5.6-5.5.8-.9-.2a2.1 2.1 0 0 1 .4-1.1 1.6 1.6 0 0 1 1-.5l5.8-.9a8.3 8.3 0 0 1 .7 1.3Z"/><path class="adf26742-458b-4bf0-9628-bb0d0a9f8870" d="m439.3 132.6 10.1-.9-.1 1.3-7.5.9H440a3.6 3.6 0 0 0-.7-1Z"/></svg>