<svg id="adfc153d-5e56-481a-8275-2c2db86a0fc5" data-name="Layer 1" xmlns="http://www.w3.org/2000/svg" viewBox="0 0 457.1 374.7"><defs><style>.a39a79c4-ddc6-40a2-81e9-e2fc3dabdb5b{fill:#ebeef2}.e951f795-330f-4274-9a87-b8e1e32fda03{fill:#f4f6f8}.a6811fe8-51c9-4a1a-a1cf-1473de0bb487{fill:#e3e8ed}.a8a6bd6b-9fd9-4b99-984c-e58778a0e322{fill:#ced8e2}.bd39ad3b-6702-4eb4-bed2-842b204616f4{fill:#eff2f5}.a8d2fec7-c164-4dc9-85e5-4c776fa2b554{fill:#d7e0e7}.f3c88f51-ae22-4499-8802-01a95076428c{fill:#32373e}.b6f31c3e-7092-4991-9b9b-8db6fa8e01c9{fill:#32b5a8}.b0fa1a7c-27c0-406e-8d2e-17776e901308{fill:#d18a60}.bc6e376d-2ea6-4f87-a60a-f2f46630775a{fill:#6e1416}.fc7c48fd-4e55-43b7-89b2-cd504063de5c{fill:#e8ecf1}.a4b8d6d8-4b5d-47c9-be20-a6f3bfccb486{fill:#eceef2}.f9f64e27-a8a1-43f6-a495-c2e3cb7e7166{fill:#dbe2e8}.a64e3835-b5df-4bec-823f-39bc591046c9{fill:#ebb893}.a5f2d52b-481d-419e-98ba-7704c7733e66{fill:#e1eaed}.b392581f-3a12-4168-a0f8-eca896690d75{fill:#c2d3d8}.bdf54b34-f877-459b-baba-ef8e5212794d{fill:#535b61}.a4225a4a-e397-4485-bbf9-0b8a3c4dfd18{fill:#7b7d7f}.a37bf46b-8431-474c-9e97-0e3b4dfa9316{fill:#0d756d}.a2fd6e2d-9a5b-4a4d-87b1-f547eb874d20{fill:#333}.a44db3ef-0f14-43b8-978a-a14c41bb1d83{fill:#c94939}.eae34f2b-e462-47ea-8cc3-73be79c0599e{fill:#c95439}.b2e2fc16-80a7-4f11-84cf-747ac9533695{fill:#c95f39}.a3f226a7-788c-4d96-b6e0-1418478cfd13{fill:#f9b26f}.a8b43bf7-66e8-4d90-ba4f-0f7b16da14e8{fill:#d58e60}.f30b8ed1-bff7-4dda-937c-433c91fa7c05{fill:#c68160}</style></defs><path class="a39a79c4-ddc6-40a2-81e9-e2fc3dabdb5b" d="M21.8 154.6c4.4 1.8 81.7 10.7 83.4 7.9 4.4 31.1 12 50.3 13.6 82.3 11.4.8 38.1-.1 49.6 0l-5-16.7c-6.8-21.4-15.7-43.6-21.9-64.6.9-10.7-16.1-3.7-23.8-4.8-1.6-6.8-1.2-14.2-1.5-21.2-25.4 1.7-60.2-1-73.7-.2 0 0-17.1 11.1-20.7 17.3Z"/><path class="a39a79c4-ddc6-40a2-81e9-e2fc3dabdb5b" d="M164.3 234.3h-.7a1.4 1.4 0 0 1 .2.6h.4a4.3 4.3 0 0 0 .1-.6ZM163 230h-.8l.3.7h.4l.1-.7ZM161.3 225.4h-.5l.1.5h.4ZM160 220.9h-.6a1.4 1.4 0 0 0 .2.6h.3l.1-.6ZM158.4 216.5h-.4a1.4 1.4 0 0 0 .2.7h.2ZM157.3 212.3l-.7-.2.2.8h.4l.1-.6ZM155.6 207.7ZM154.3 203.3h-.5a1.4 1.4 0 0 0 .2.6h.3ZM152.8 198.8h-.5l.3.7h.1a1.7 1.7 0 0 1 .1-.7ZM151.7 194.6h-.7a6.4 6.4 0 0 0 .2.7h.4a1.3 1.3 0 0 1 .1-.7ZM149.9 190.1h-.3a6.4 6.4 0 0 0 .2.7h.1ZM148.7 185.7h-.5l.2.6h.2a1.1 1.1 0 0 1 .1-.6ZM147.3 181.8l-.4-.4.1.4ZM145.7 176.9h-.2l.2.6ZM144.7 172.6h-.5a1.4 1.4 0 0 0 .2.6h.2a1.3 1.3 0 0 1 .1-.6ZM143 168h-.2a.8.8 0 0 1 .1.4.8.8 0 0 1 .1-.4ZM141.5 163.5l.1.5.1-.4Z"/><path transform="rotate(-180 272.4 130.1)" style="fill:#fff" d="M87.7 114.7h369.5v30.8H87.7z"/><path class="a39a79c4-ddc6-40a2-81e9-e2fc3dabdb5b" d="M134.7 135.4h322.4v17.4H134.7z"/><path class="e951f795-330f-4274-9a87-b8e1e32fda03" d="M334.9 32.4a17.1 17.1 0 0 0-15.3-10.8 44.3 44.3 0 0 0-1.3-4.9c-3-7.6-8.4-12.3-16.7-13.2A18 18 0 0 0 285.3 9l-1 .9c-1.1 1.5-2.1 1.6-3.8.6a21.4 21.4 0 0 0-19.7-.9 1.7 1.7 0 0 1-2.4-.5 27.3 27.3 0 0 0-13.4-8A28.7 28.7 0 0 0 209.8 21c-.7 2.7-1.4 3.6-4.3 4a25.1 25.1 0 0 0-16.3 9.4 26.3 26.3 0 0 0-5.6 12.5c-1.2 7.8.9 14.5 5.6 20.7s9.9 7.9 16.1 9.4c1.9.5 3.9.1 5.9.1h19.2c6 .1 12.1.3 18.2.3 3.3.1 6.7-.2 10-.2l12.1.3h27.1c16.2 0 32.5.1 48.7-.1a23.8 23.8 0 0 0 19.4-37.5c-4.1-6-10-9.2-17.1-10.1-5-.7-9.4.7-13.9 2.6Z"/><path class="a6811fe8-51c9-4a1a-a1cf-1473de0bb487" d="M74.1 114.2c2.7-1.7 5.5-3.5 8.3-4.9a39.6 39.6 0 0 1 6.5-2.5 87 87 0 0 1 8.7-2.6c4.7-1 9.5-1.8 14.3-2.6 2.2-.4 4.5-.9 6.7-1.1l9.8-.7c3.9-.2 7.9-.5 11.9-.6s5 .3 7.6.3h67.9c1.4 0 2.8-.3 4.1-.3 3 0 5.9.3 8.8.3l25.9-.3c7.2 0 14.3.3 21.5.3h181v22H327.2l-3.8-.2-4.2.2-12.4-.2-7.4.2-9.4-.2-7.5.2-6.9-.2c-1.1 0-2.1.3-3.1.3l-12.6-.3-7.2.3-9.6-.3-6.9.2-3.2-.2-8.8.3c-2.5 0-4.9-.3-7.4-.3h-47.5l-57.7-.6H96.2a8.4 8.4 0 0 0-1.7.5v2.8c-.9-1.7-1.6-3.5-2.7-5.2s-3.6-2.4-5.8-2.4H71.5c.9-.9 1.7-1.7 2.6-2.2Z"/><path class="a8a6bd6b-9fd9-4b99-984c-e58778a0e322" d="M166.6 244.5c0-5 .2-10-1.5-14.8s-2.5-7.5-3.7-11.3l-8-25.5-9.4-29.5c-.5-1.7-.6-3.8-1.7-4.9s-1-2.8-1.1-4.2v-4.8l-2.6-1.1v-10.9c0-3.9.7-13.8.2-14.2s-23.1-1-23.5.3c-1 3.4 1.1 31 1 35.7 0 1.7 2.7 2.9 4 2.9h12c2 0 3.9-.2 5.9-.3l.2 1.1 3.3.7v.6h-22.8l.3 1.3c0 1.8.8 2.4 2.6 2.4 6.5-.2 12.9-.1 19.4-.1l1.8.2v.5h-23.2l.6 3.6h22.3a14.2 14.2 0 0 1 2 .4v.6h-24c.4 3.3.4 3.3 3.5 3.3h19.4a7.8 7.8 0 0 1 2.1.4v.6h-21.3c-3 0-3 0-2.4 2.9l.3.4h18.8c5.3 0 5.3 0 6.2 1h-24.5c-.6 3.3.5 4.2 3.6 3.5h19.2a16.7 16.7 0 0 1 3.1.5v.5h-25.4v.8a.8.8 0 0 1 .2.4c.4 2.4.4 2.4 2.7 2.4h21.7a12 12 0 0 1 2 .3v.6h-25.4c-.5 2.9 0 3.4 2.4 3.4h22.4a20 20 0 0 1 2.4.4v.6h-26.6c.4 3.3.4 3.3 3.4 3.3H151l1.8.3v.7h-27l.6 3.3h23.8c1.4 0 2.8.4 4.1.5v.6h-27.6c.3 3.6.3 3.6 3.5 3.6h23.6l1.8.2a9.4 9.4 0 0 1-3.2.8h-14.3c-3.1-.1-6.1-.3-9.2-.3a1.9 1.9 0 0 0-1.3.7c-.3 1.9.6 2.9 2.5 2.9h25a17.4 17.4 0 0 1 2.2.5v.6h-28.8l.6 3.3h27.5l1.9.3a1.3 1.3 0 0 0-.1.6h-28.7c-.4 3-.1 3.4 2.5 3.4h25.6a14.3 14.3 0 0 1 2.2.4v.6h-29.6c-.4 3.1.1 3.6 2.7 3.6h26.4l1.8.2v.4c-10.1.6-20.2.4-30.4 0l.8 3.7h29.2a8 8 0 0 1 2.1.5l-.1.6H132c.3 3.2.3 3.2 3.2 3.2h26.7a10.3 10.3 0 0 1 2.4.5v.5h-30c-1.5 0-1.7.6-1.7 1.8s.2 1.9 1.7 1.9H159c1.8 0 2.6.6 3 2.3a21.5 21.5 0 0 0 1.3 3.2c.1.3.4.4.7.5Z"/><path class="bd39ad3b-6702-4eb4-bed2-842b204616f4" d="M141.2 154.3c.1 1.4-.3 2.8 1.1 4.2a2.9 2.9 0 0 1 .8 1.3v-8.7h1.2l-1.3-.7-1.8-.9ZM23.5 152.1c-1.5 2.3-3.3 4.4-4.5 6.9s-.1 7.3 3.6 9.8a42.2 42.2 0 0 0 14.8 6.3c4.6 1.2 9.2 2.5 13.9 3.5s8.1 1.3 12.2 1.9 7.1.9 10.7 1.2l8.9.8 2.8.3a18.2 18.2 0 0 1 3.3.1 2.3 2.3 0 0 1 1.8.9l5.8 7.9.1-2v-5.3c-.1-.9.3-1.4 1.2-1.2l2.8.3h15c0-3.1.1-6.1-.1-9.1a12 12 0 0 0-.9-5c-1-2.5-2-5-1.7-7.8a14.7 14.7 0 0 0 0-2.1c-.9 0-1.3-.4-1.3-1.3a13.1 13.1 0 0 0-.1-2.8c0-.4-.4-1.1-.6-1.1a28.1 28.1 0 0 0-5-.4l-9.4.2h-6l-4.4-.3-3.6-.5h-2.2l-8.1.4c-.5.1-1-.3-1.6-.3H69a12.2 12.2 0 0 1-2.7.1h-3.1l-2.5.2c-.9-.1-2.1-.7-2.7-.3s-2.8.3-4.2 0-1.1-.3-1.4-.1-2.5.4-3.8.3a17.3 17.3 0 0 0-3.2.3h-1.5a10.9 10.9 0 0 0-4.4-.2c-2.2.2-4.5-.2-6.8 0s-2.7-.9-4.3-1.5c-1.4 1.1-3 1.2-4.9-.1Z"/><path class="a39a79c4-ddc6-40a2-81e9-e2fc3dabdb5b" d="M143.1 151.1v8.7c.4 1.1.6 2.5.9 3.6l9.4 29.5 8 25.5c1.1 3.6 2.3 7.2 3.6 10.7l.1.6a18.2 18.2 0 0 1 .7 2.5c.9 4 .8 8.2.8 12.3 2.1.7 2.6.4 2.6-1.7v-7.9a11.7 11.7 0 0 0-.4-2.7l288.3.5V218h-39.2l-165.1.4c-29.4 0-88.7-.2-88.9-.6l-5.3-16.4-5.7-18h51.8c1.2-3.9-2.6-7.8-1.4-11.7l2.4-1.7.2-.2.3-.4 1.7-1.9 1.2-1.2h.1c-.2-1.2.6-2.9-1.6-3s-2.1-.2-2.1-1.8a11 11 0 0 0 .2-1.8h2.4V151Zm.4 1.8c.3-.2.4-.4.6-.3l.4.4-.4.3c-.2 0-.3-.2-.6-.4Z"/><path class="e951f795-330f-4274-9a87-b8e1e32fda03" d="M92.2 219.5c-.4.2-.8.6-1.3.6l-17.2.4-24.5.3-14.6.4c-5.5.1-11 .4-16.4.6l-13.1.7-4.1.3-.8.3a17.9 17.9 0 0 0-.1 4c0 .3 1.2.6 1.9.7l15.4.7 13.8.6 15.9.4 9.5.3a1.5 1.5 0 0 1 1.1.5l-1.1.2c-2.7 0-14.9-.6-17.8-.5-1.2.1-1 1.4-.9 2.6v10.2c0 .9.3 1.3 1.3 1.4 4.9.2 9.9.6 14.9.6h51.8a10.8 10.8 0 0 0-2.9-.9c-2.7-.2-2.4.2-2.4-2.6l-.1-8c-.1-2.6-.2-2.4 2.1-2.8h13.3v-10.7l-8.6.3-2.1-.3a3.5 3.5 0 0 0-1.1.3 8.1 8.1 0 0 1-7.5 1.3 41.7 41.7 0 0 1-4.4-1.9ZM251.6 319.2h-99.4c-2.5.1-4.2 13.5-4.6 20a2.7 2.7 0 0 0 2.4 2.8c2.8.2 5.7.5 8.6.5h41.9a2.7 2.7 0 0 0 2.7-3l-.3-2.2a1.5 1.5 0 0 1 1.1-1.1c5-.4 9.9-.8 14.9-1s9.4 0 14.1 0h5.4a15.1 15.1 0 0 0 4.3-.3c1.4-.5.5-2 .5-3 .2-3.2.2-6.4.2-9.5 0-1.3.3-1.8 1.6-1.8a52.8 52.8 0 0 0 5.5-.4c.4-.1.7-.7 1.1-1Z"/><path class="a39a79c4-ddc6-40a2-81e9-e2fc3dabdb5b" d="M296 320.3c-.4.3-45.1-.2-45.5-.2a52.8 52.8 0 0 1-5.5.4c-1.3 0-1.6.5-1.6 1.8 0 3.1 0 6.3-.2 9.5 0 1 .9 2.5-.5 3a15.1 15.1 0 0 1-4.3.3H233c-4.7 0-9.4-.2-14.1 0s-9.9.6-14.9 1a1.5 1.5 0 0 0-1.1 1.1 46.3 46.3 0 0 0 .7 5.2h53.3c-.1-.5 24-2.8 35.4-2.8.7-.1 7-19.3 3.7-19.3Z"/><path class="a8d2fec7-c164-4dc9-85e5-4c776fa2b554" d="M37.2 141.1a42.9 42.9 0 0 0 5 .7h6.5l27.9.4c5.1 0 10.2.2 15.2.3a5.8 5.8 0 0 0 5.4-4.3l-.5-4.1-2.1-10.3c-.9-1.7-1.7-3.5-2.8-5.2s-3.6-2.4-5.8-2.4H71.5l-5.9 4.2-18 13.3Z"/><path class="a8a6bd6b-9fd9-4b99-984c-e58778a0e322" d="M115.9 219.8v10.7l1 2.8c.4.9.6 1.4 1.1 1.4 2 .4 4 .5 6.1.8s1.8.6 1.8 2a18.4 18.4 0 0 0 .7 4.7 6.5 6.5 0 0 0 1.3 2.3l2 .3c-.1-4 0-8.1-.4-12.1s-1.5-7.1-2.2-10.7l-4.4-23.7-4.1-21-3.8-18.8a25.7 25.7 0 0 1-.1-4.8l-.4-3.7c-.2-1.2-.6-.6-.9-.8s-.7.7-.7 1l.3 6.1v3.2a14.7 14.7 0 0 1 0 2.1c-.3 2.8.7 5.3 1.7 7.8a12 12 0 0 1 .9 5c.2 3 .1 6 .1 9.1Z"/><path class="a6811fe8-51c9-4a1a-a1cf-1473de0bb487" d="M315.7 335c-11.4 0-47.6.1-58.5 1l-.5 4.9a8.8 8.8 0 0 0 .2 1.6h60.3c0-.7 1.1-7.5-1.5-7.5Z"/><path class="a39a79c4-ddc6-40a2-81e9-e2fc3dabdb5b" d="M127.9 244.5a6.5 6.5 0 0 1-1.3-2.3 18.4 18.4 0 0 1-.7-4.7c0-1.4-.7-1.8-1.8-2s-4.1-.4-6.1-.8c-.5 0-.8-.8-1.1-1.4l-1-2.8h-13.3c-2.3.4-2.2.4-2.1 2.8l.1 8c.1 2.7-.3 2.4 2.4 2.6a10.8 10.8 0 0 1 2.9.9h20.3Z"/><path class="a8d2fec7-c164-4dc9-85e5-4c776fa2b554" d="M92.2 219.5a41.7 41.7 0 0 0 4.4 1.9 8.1 8.1 0 0 0 7.5-1.3 3.5 3.5 0 0 1 1.1-.3 4.1 4.1 0 0 1 .7-1.1c3.3-3.7 3.5-10.7-1.5-14.2a25.3 25.3 0 0 0-3.6-2h-4.2a28.6 28.6 0 0 0-4.2 2.4 9.8 9.8 0 0 0-1 13.6Z"/><path class="a8a6bd6b-9fd9-4b99-984c-e58778a0e322" d="M96.6 202.5h4.2l.1-19-2.8-.3c-.9-.2-1.3.3-1.2 1.2v5.3l-.1 2-5.8-7.9a2.3 2.3 0 0 0-1.8-.9 18.2 18.2 0 0 0-3.3-.1l5.6 8.3c1.9 2.7 3.3 4.1 4.4 6.4s.5 3.3.7 5Z"/><path class="bd39ad3b-6702-4eb4-bed2-842b204616f4" d="m208.1 232.5-.1-.6.1.6Z"/><path d="M358.7 138.8h.2l8.1.2Z" style="fill:#e7ebf0"/><path d="m207.9 167.6 1.2-1.2Z" style="fill:#cf9570"/><path class="a39a79c4-ddc6-40a2-81e9-e2fc3dabdb5b" d="M143.5 152.9c.3.2.4.4.6.4l.4-.3-.4-.4c-.2-.1-.3.1-.6.3Z"/><path class="bd39ad3b-6702-4eb4-bed2-842b204616f4" d="M236.4 156.9h.9c-.6 1 .9 5.2 1.4 10.2l8.2 1.1c-2.4 1.8-5.5 7.9-8.1 7.9 67.7 10.5 150.1 17.5 218.3 30v-21.2c-27.7-13.9-63-29.7-63-29.7l-29.9.3c-31.7-.2-63.4.1-95-.4-3.3-1.2-5.8-.4-8.6 0s-5.9-.8-8.7-.4c-5.2 1.5-12.7-2.5-16.4 1.5Z"/><path class="bd39ad3b-6702-4eb4-bed2-842b204616f4" d="M236.2 170.7c3.9 1.4 7.3.3 10.7-2.4l-9-1.1a37.8 37.8 0 0 0-1.7 3.5Z"/><path class="f3c88f51-ae22-4499-8802-01a95076428c" d="m205.9 169.8.3-.3ZM205.7 170.1l.2-.2Z"/><path d="m100.9 183.5-.1 19a25.3 25.3 0 0 1 3.6 2c5 3.5 4.8 10.5 1.5 14.2a4.1 4.1 0 0 0-.7 1.1l2.1.3 8.6-.3v-36.3Z" style="fill:#fefefe"/><path class="a8d2fec7-c164-4dc9-85e5-4c776fa2b554" d="M253.6 138.5c2.6 1.2 5.1 1.4 7.6-.4s2.9-3.6 2-6.3a6 6 0 0 0-4.9-4.3c-3.8-.4-5.5 1.5-6.4 3.6s0 5.2 1.7 7.4ZM227.9 137.8c2 1.1 3.9 2.3 6.3 1.3a14.1 14.1 0 0 0 2.4-1.3c3.2-3.6 1.9-7.8-1-9.5a6.3 6.3 0 0 0-7.5.8 5.8 5.8 0 0 0-.6 7.8 3.6 3.6 0 0 1 .4.9Z"/><path class="b6f31c3e-7092-4991-9b9b-8db6fa8e01c9" d="M202.3 349.3c-.6 1.5-.5 2 1.1 2.8a8.4 8.4 0 0 0 2.8.9 19.1 19.1 0 0 0 7.9-.5 6.1 6.1 0 0 0 3.6-3.1c0-.9 1.2-6.9 1.2-7.8-3.7.5-6.9-.5-10.6-.7-1.1-.1-3.1 1.7-4.1 1.6s-1.5 6.1-1.9 6.8Z"/><path class="a8d2fec7-c164-4dc9-85e5-4c776fa2b554" d="M202.9 137.8c3 2.3 6 2 9 0a8.2 8.2 0 0 0 1.2-6.1 5.3 5.3 0 0 0-5.3-4.2 6.3 6.3 0 0 0-6.3 4.1c-.7 2.4.4 4.3 1.4 6.2ZM303.6 138.5a8.2 8.2 0 0 0 7.3 0c1.8-1.9 2.8-4 2.2-6.6a5.3 5.3 0 0 0-4.6-4.4c-3-.3-5.3.8-6.5 3a6 6 0 0 0 .7 7ZM327.5 138.5a8.4 8.4 0 0 0 7.4 0c1.8-1.9 2.8-4 2.1-6.6s-2.3-4.2-4.5-4.4-5.3.8-6.5 3a6 6 0 0 0 .7 7ZM277.9 137.8c2.5 2.1 5.2 2 8 .7a6.4 6.4 0 0 0 2.2-6.8 5.4 5.4 0 0 0-5.3-4.2c-3.2-.1-5.4 1.5-6.2 4.1s.3 4.3 1.3 6.2ZM152.6 137.1c1.9 1.9 4.1 3 6.8 2a25.4 25.4 0 0 0 2.8-1.6 3.6 3.6 0 0 1 .4-.9 5.7 5.7 0 0 0-1-7.5 6.1 6.1 0 0 0-7.7-.6 6.5 6.5 0 0 0-1.9 7.3ZM177.9 137.5c2.7 2.7 5.6 2.7 9 0s2-5.6.4-7.8a6.3 6.3 0 0 0-8.4-1.2c-2.4 1.6-3.1 5.6-1.5 8.3ZM325.2 131.7l1.1-.5Z"/><path class="bd39ad3b-6702-4eb4-bed2-842b204616f4" d="m364.2 155.5.2 1.3h2.2l-.1-1.3Z"/><path class="a8d2fec7-c164-4dc9-85e5-4c776fa2b554" d="M239.5 209.4a10.5 10.5 0 0 0 1.7.4h53.7a26.5 26.5 0 0 0 4.8-.7l24.8-4.6 17.4-3.2v-7.1a22.9 22.9 0 0 0-3.4-.7h-7.9l-3.8.2-8.4-.2h-7.1l-10.5-.6h-11.4l-17.4-.3h-10.7l-10.5-.2h-11.9c-.1-.1.3 17.5.6 17ZM237.2 196.5l.5.4c-.2-1.1-.3-1.7-.4-1.6l-.1 1.2Z"/><path class="a6811fe8-51c9-4a1a-a1cf-1473de0bb487" d="M238.9 192.1h11.9l10.5.2H272l17.4.3h11.4l10.5.6h7.1l8.4.2 3.8-.2h7.9a22.9 22.9 0 0 1 3.4.7l-.3-7-7.8-1.4-9.2-1.3-3-.4-5.4-.9-7.3-1.2-13.4-1.9c-3-.4-6-1.1-9.1-1.6l-11.9-1.7-15.3-2.3-8.2-1-10.6-1.9-4.2-.9c-1.4.2-2.7.2-3.4 1.7s.8.7.7 1a16 16 0 0 1-1 3.1v1l6.2 5.8-1.5 1.4 1.7 6.9c.2.4.1.6 0 .8Z"/><path class="a8d2fec7-c164-4dc9-85e5-4c776fa2b554" d="M362.9 135.8c.8-3.2.1-5.8-2.7-7.6a5.9 5.9 0 0 0-6.6.4 6.3 6.3 0 0 0-1.7 7.6c2.6 5.1 9.2 3.6 11-.4Z"/><path class="bd39ad3b-6702-4eb4-bed2-842b204616f4" d="M189.1 152.5c.4.1.6.2.7.1l.3-.5-.6-.2ZM201.8 152.8l.2-.3a.5.5 0 0 0-.3-.3l-.3.4Z"/><path class="a8d2fec7-c164-4dc9-85e5-4c776fa2b554" d="M237.8 158.6c1.4 2.8.1 5.7.1 8.5 17.8 2.1 35.5 5.1 53.2 7.1 8.6.8 9.2 2.2 12-7-.2 0 3.2-7.5 2.2-7.9-3.7.4-6.1 13.1-8.7 13.8-.7-2.8 8.3-15 4.1-14.6-20.9-.4-41.9-.9-62.8-.7l-.1.8Z"/><path class="a39a79c4-ddc6-40a2-81e9-e2fc3dabdb5b" d="m316.2 183.2 5.4.9 3 .4a30 30 0 0 0-4.8-1.6 11 11 0 0 0-3.6.3ZM236.4 156.9l.6.7.3-.6ZM237.8 158.6l.1-.8h-.8Z"/><path class="a8a6bd6b-9fd9-4b99-984c-e58778a0e322" d="M240.1 207.8a1.3 1.3 0 0 1-.1.6l7.9-.3c.3 0 .8-.1.9-.3a105 105 0 0 0 1.7-5.2l-.5-.4-8.3 1.9c-.5.1-.8.7-1.3 1.1s-.1 1.5-.2 2.3ZM240.2 203.2l.3.5Z"/><path class="a8d2fec7-c164-4dc9-85e5-4c776fa2b554" d="M240.1 207.8v-.3a.4.4 0 0 1 0 .3Z"/><path d="M198.6 253.8c-.2 3-.2 6.1-.6 9.1-.6 5.6.5 11 1 16.5 1.9 18.5 3.7 37 3.7 55.5v8.5l2.5.4 12.7-.4c2.2-.3 2.9-1.5 3-3.7l3.6-50.2c.3-4.8-.1-9.6.2-14.3.6-9.8 1.4-19.5 2.1-29.2l.4-5.6a4.3 4.3 0 0 1 .6 1.8c1.6 10.2 3.1 20.5 4.8 30.7 2.1 12.7 4.8 25.3 6.5 38 1.5 10.5 1.9 21.2 2.7 31.8.1 1.5.6 2.2 2.1 2.1l13-.3c1.2.1 1.7-.4 1.6-1.6v-6.7l-1.2-46.5-1-29.1-.1-15.8-.2-8v-2.7l-.4-14.3v-2.3l-.6-16.4v-.6a16.7 16.7 0 0 0-.2-3.2l-2.3-11.1a28.1 28.1 0 0 1-1-3.1c-.3-.7-.8-2.9-1-3.7s-43.3 2.2-49 2c-.1.7.8 14.2.5 19.1l-.1 2.3-1 14.6-.1 2.4-1 14.3a16.9 16.9 0 0 1-.1 2.3l-.5 8.4a12.1 12.1 0 0 0-.1 1.9l-.2 1.4-.2 4.3-.1 1.4Z" style="fill:#31373e"/><path class="b0fa1a7c-27c0-406e-8d2e-17776e901308" d="M218.7 38.4c-4-.5-6.1 5.8-2.7 7.4s4.4-.2 5.6-1.1a3.7 3.7 0 0 0 .9-4.3 3.2 3.2 0 0 0-3.8-2Z"/><path d="M225.3 374.6h42.1l84.5-.4c5.4 0 10.9-.4 16.3-.6 1.4-.1 2.3-.5 2.2-1.9a8 8 0 0 1 .5-3.4c.2-.6 1.1-1.1 1.6-1.7h-38.3c-3.8 0-6-1.8-5.6-4.5l-2.3-1.8-2.6.3h-92.1l1.5 3.7c.5 1.7-.2 2.7-2.1 3.2l-2.3.5-.7.8-.6-.5-1.7.3a3.9 3.9 0 0 0-1 4.4 10.4 10.4 0 0 1 .6 1.6Z" style="fill:#f0f3f6"/><path class="bc6e376d-2ea6-4f87-a60a-f2f46630775a" d="M221.2 60.3a1.8 1.8 0 0 0 1.7-.4c.8-1 1.4-.8 2 0a3.5 3.5 0 0 0 5.1.3c.3-.4 0-1.3 0-2s-.8-.9-1.5-1l-7.8-.9-.2.9c-.8 1.4-.7 2.5.7 3.1Zm14.3-13.6a4.2 4.2 0 0 0 .1-5.9 3.9 3.9 0 0 0-5.5-.1 3.8 3.8 0 0 0-.2 5.5l.3.4a3.7 3.7 0 0 0 5.3.1Z"/><path class="bc6e376d-2ea6-4f87-a60a-f2f46630775a" d="M213.6 40.5c.1 2.5.4 3.6.7 4l1.1 1.6a6.5 6.5 0 0 0 4.9.9l3.2-3.1a1.3 1.3 0 0 0 .1-.6 10.9 10.9 0 0 0 .1-1.8l.1-.9a9.2 9.2 0 0 1 2.8-.2c.9.2 1.3.9 1.1 2.1a5.2 5.2 0 0 0 4 6.4c3.2.6 5.7-1.3 6.3-4.6a5.4 5.4 0 0 1 .3-1l3.3.3c-.1 2.3-.4 4.5-.3 6.7s-1.9 5.7-4.9 7-4.5.9-5.5-2.3a3.4 3.4 0 0 0-3.4-2.8l-1.3-.3h-5.7a12.7 12.7 0 0 1-1.3 1.9 7.7 7.7 0 0 1-1.6 1.5 20.9 20.9 0 0 1-1.4-1.7l-1.2-2.3c.2 1.9.3 3.8.6 5.6.7 4.9 2.1 9.4 6.3 12.4l1 .5a10.5 10.5 0 0 0 9-.4 31.2 31.2 0 0 0 10.3-9.5c2.2-2.8 1.9-6.1 1.9-9.3l-.8-3.9a11.5 11.5 0 0 1 1.4-8.1 2.5 2.5 0 0 1 1.7-1 3.1 3.1 0 0 1 1.6 1.2 10.1 10.1 0 0 1 .9 1.8l1-9.6a6.3 6.3 0 0 0-2.6-5.3c-.6-.4-.8-1.1-1.2-1.7a31.7 31.7 0 0 0-2.8-3.4 19.4 19.4 0 0 0-2.4-1.5 37.6 37.6 0 0 0-17-1.5 25.9 25.9 0 0 0-10.6 4.3h2.3l.8-.3a.4.4 0 0 0 .1.3h-.9l-4 2.3-1.5 1.1 5.7 1.8c1.9.5 1.7 1 1.4 2.1l1.5-.9c8.2 3 16.7 5.7 25-.2 1 1.8.4 3.2-.1 4.7l-1.9 6.5a26.4 26.4 0 0 0-.2 2.8c-2.1.4-3.6.2-4.8-1.8a4.9 4.9 0 0 0-3.5-1.7c-1.5-.1-3.1.6-5 1.1a5 5 0 0 0-4.7-.5c-.3.1-.8-.2-1.1-.4-2.4-2-4.3-2.2-6.8-.6a3.3 3.3 0 0 0-2 2.3Zm2.1 3.5s.1-.1.1 0c-1.2-3.9 1-4.9 2.5-5.5a3.3 3.3 0 0 1 3.7 2.1 3.6 3.6 0 0 1-.8 4.2c-1.2 1-2.6 1.5-3.9.8a5.2 5.2 0 0 0 1.2-1.8c.1-.2-.8-.7-1.3-1a18.5 18.5 0 0 0-1.4 1.4V44Z"/><path class="fc7c48fd-4e55-43b7-89b2-cd504063de5c" d="M258.5 374.7a7.5 7.5 0 0 0-.4-1.6 4.4 4.4 0 0 1 .8-4.4 47.8 47.8 0 0 1-16-.7c-2.7-.6-3.1-.9-3-3.7l.2-3.6h-19.6l-.6 1.3a.9.9 0 0 0 .1.5c1.2 3.6.4 4.7-3.3 4.8l-7.6.4c-6.1.4-12.2 1-18.3 1.3a57.3 57.3 0 0 1-17.9-2.4c-.1 2.1 1.3 3.3 2.7 4.4a20.3 20.3 0 0 0 10.4 3.3h2.7l15.4.3c2.8.1 5.7-.3 8.5-.2l20.6.2 20.7-.2a23.2 23.2 0 0 1 4.6.3Z"/><path class="a4b8d6d8-4b5d-47c9-be20-a6f3bfccb486" d="M390.8 366.7h55.4c1.7 0 3.6.3 5-1.2a2.2 2.2 0 0 0 .4-3.1 8.4 8.4 0 0 1-.7-2.4c-3.3-.4-6.4-1.7-10-1.6h-65.7l-.6 2.3 14.5.7c1.3.1 1.8.6 1.7 1.9Z"/><path class="f9f64e27-a8a1-43f6-a495-c2e3cb7e7166" d="M393.1 366.7v-3.5c.1-1.1-3.5-4.8-5.2-4.9-6.6-.2-52.4-.7-69.6 2-.5 2.7 6.2 6.4 10.3 6.4h64.5Z"/><path d="M219.9 362a57.2 57.2 0 0 1-6.8 1.2c-8.3.5-16.5 1.1-24.8 1-4.5 0-9.1-1.2-13.6-1.9l-.6-.3c-.2-.1-2 2.3-1.2 4.6a57.3 57.3 0 0 0 17.9 2.4c6.1-.3 12.2-.9 18.3-1.3l7.6-.4c3.7-.1 4.5-1.2 3.3-4.8a.9.9 0 0 1-.1-.5Z" style="fill:#bcc6c9"/><path class="a64e3835-b5df-4bec-823f-39bc591046c9" d="M215.6 36.7c2.2-.6 4.5-1 6.8.1.3.1.8-.3 1.2-.4s-.5-1-.8-1a53.2 53.2 0 0 0-5.6-.6l-1.3.2.8-4.7.5-1.1 1.5-.9c8.2 3 16.7 5.7 25-.2 1 1.8.4 3.2-.1 4.7l-1.9 6.5a13.2 13.2 0 0 0-.2 2.8c-2.1.4-3.6.2-4.8-1.8a4.9 4.9 0 0 0-3.5-1.7c-1.5-.1-3.1.6-5 1.1a5 5 0 0 0-4.7-.5c-.3.1-.8-.2-1.1-.4-2.4-2-4.3-2.2-6.8-.6Zm19.9-1.1a58.5 58.5 0 0 0-5.9.4c-.3 0-.5.6-.8 1s.8.5 1.1.4a10.2 10.2 0 0 1 7.1.2c.3.2.8-.1 1.3-.2v-.7a10.2 10.2 0 0 0-2.8-1.1Z"/><path class="bc6e376d-2ea6-4f87-a60a-f2f46630775a" d="M215.6 36.7c2.2-.6 4.5-1 6.8.1.3.1.8-.3 1.2-.4s-.5-1-.8-1a53.2 53.2 0 0 0-5.6-.6l-1.3.2c-.5.5-1.7.8-.3 1.7ZM216.7 30.3l.5-1.1Z"/><path class="b6f31c3e-7092-4991-9b9b-8db6fa8e01c9" d="m243.9 344.8 1 5.1a3.7 3.7 0 0 0 1.8.2c2.5-.5 4.9-1 7.4-.1s2.2.2 2.4-1.3l.4-4.2Z"/><path class="a5f2d52b-481d-419e-98ba-7704c7733e66" d="m250.9 74.3-2.8-4.4-.3-.2c-1.2-2.6-3.2-3.2-5.7-2.2l-8.1 2.1c-.3.1-.6.6-.9.9a5.3 5.3 0 0 1 .4 1.7l.1 8.7.6.9 2.4-.9 8.5-4.3Z"/><path class="a64e3835-b5df-4bec-823f-39bc591046c9" d="M248 43.9c-1.2 2.3-2.6 4.5-4 6.7l-.7-3.9a11.5 11.5 0 0 1 1.4-8.1 2.5 2.5 0 0 1 1.7-1 3.1 3.1 0 0 1 1.6 1.2 10.1 10.1 0 0 1 .9 1.8 17.8 17.8 0 0 1-.9 3.3Zm-1.4-3.1-.6 3.9c1.5-1.7 1.6-3.1.6-3.9Z"/><path class="b0fa1a7c-27c0-406e-8d2e-17776e901308" d="M233.1 70.5c.3-.3.6-.8.9-.9l8.1-2.1.1-7.6a31.2 31.2 0 0 1-10.3 9.5l1 1.1Z"/><path class="b392581f-3a12-4168-a0f8-eca896690d75" d="m250.9 74.3-5.8 2.3-8.5 4.3.3 1.9 14-7.6Z"/><path class="bdf54b34-f877-459b-baba-ef8e5212794d" d="M244.1 368.5a41.3 41.3 0 0 0 13.1-.2 3.5 3.5 0 0 0 2.5-3.8c-.1-6.4-.9-11.8-3.2-15.8-.2 1.5-1.3 1.7-2.4 1.3s-4.9-.4-7.4.2a5.7 5.7 0 0 1-1.8-.3c-2.5 2.6-1.8 12-1.9 12.5s-1.1 5.6 1.1 6.1Zm12.8-13a6.6 6.6 0 0 1-2-.1c-3-.8-5.9-1-8.7.7l-1.2.4c-.5-1.7.8-1.7 1.6-2.2v-.5c-1.3-.3-1.3-1-.3-1.5a9.7 9.7 0 0 1 8.3-.2c.9.4 1 1-.1 1.3l.3.5.5.2Z"/><path class="a4225a4a-e397-4485-bbf9-0b8a3c4dfd18" d="m259.7 364.6-3.9 1.1a21.1 21.1 0 0 1-13.1-1.2c-.1 2.8 11.2 2.6 11.6 2.5s5.6-.7 5.4-2.4Z"/><path class="fc7c48fd-4e55-43b7-89b2-cd504063de5c" d="m261.2 368.1-1 .2.4.6Z"/><path class="b392581f-3a12-4168-a0f8-eca896690d75" d="m217.2 77.9-1.1.8c-1 1.3-.3 2.4.3 3.5l4.1 7.4 2.9-5.8a15.4 15.4 0 0 0 .8-1.9l-1.4-11.7-.6 1.7c-.1.8.1 1.9-.3 2.4a58.2 58.2 0 0 1-4.7 3.6Z"/><path class="f9f64e27-a8a1-43f6-a495-c2e3cb7e7166" d="M224.2 81.9a15.4 15.4 0 0 1-.8 1.9l-2.9 5.8c.5.1 1.1.6 1.4.4l13-6.2 1-.6 1-.4-.3-1.9-2.4.9-.6-.9h-8.1Z"/><path class="a64e3835-b5df-4bec-823f-39bc591046c9" d="m226.2 51.9 1.3.3a3.4 3.4 0 0 1 3.4 2.8c1 3.2 2.3 3.7 5.5 2.3s4.9-3.4 4.8-7 .3-4.4.4-6.7l-3.3-.3a5.4 5.4 0 0 0-.3 1c-.6 3.3-3.1 5.2-6.3 4.6a5.2 5.2 0 0 1-4-6.4c.2-1.2-.2-1.9-1.1-2.1a9 9 0 0 0-2.8.2 2.2 2.2 0 0 0-.1.9c.8.6.8 1.2-.1 1.8a1.3 1.3 0 0 1-.1.6 5.3 5.3 0 0 1 .3 1.2l-1.1 3.4c-.4 1.1-.3 2.3 1.6 2.4h3ZM224.2 81.9l1.3-1.1 1.3-2 6.1-8.3-1-1.1a10.5 10.5 0 0 1-9 .4v.4Z"/><path class="a64e3835-b5df-4bec-823f-39bc591046c9" d="M230.2 46.6a3.7 3.7 0 0 0 5.3.1 4.2 4.2 0 0 0 .1-5.9 3.9 3.9 0 0 0-5.5-.1 3.8 3.8 0 0 0-.2 5.5h.1c0-.9-.2-1.9 1.1-1.9a2.2 2.2 0 0 1 1.2 1.1c.1 1.4-.9 1.3-1.9 1.2ZM215.4 46.1l-.4 5.2 1.2 2.4a20.9 20.9 0 0 0 1.4 1.7 7.7 7.7 0 0 0 1.6-1.5 12.7 12.7 0 0 0 1.3-1.9c-.2-.4-.6-.8-.6-1.2l.4-3.8a6.5 6.5 0 0 1-4.9-.9ZM220.5 57.2c-.8 1.4-.7 2.5.7 3.1a1.8 1.8 0 0 0 1.7-.4c.8-1 1.4-.8 2 0a3.5 3.5 0 0 0 5.1.3c.3-.4 0-1.3 0-2a10.5 10.5 0 0 1-2.4.6 12.6 12.6 0 0 1-7.1-1.6Z"/><path class="b0fa1a7c-27c0-406e-8d2e-17776e901308" d="m220.3 47-.4 3.8c-.1 1.3.4.8.6 1.2h5.7l1.1-1h-3c-1.9-.1-2.2-.7-1.6-2.4l1.1-3.4a5.3 5.3 0 0 0-.3-1.2Z"/><path class="a5f2d52b-481d-419e-98ba-7704c7733e66" d="M222.8 70.2v-.4l-1-.5-4.1 7.1-.6 1.5a58.2 58.2 0 0 0 4.7-3.6c.4-.5.2-1.6.3-2.4Z"/><path class="a4b8d6d8-4b5d-47c9-be20-a6f3bfccb486" d="M220.5 57.2a12.6 12.6 0 0 0 7.1 1.6 10.5 10.5 0 0 0 2.4-.6c0-1.1-.8-.9-1.5-1l-7.8-.9Z"/><path class="b0fa1a7c-27c0-406e-8d2e-17776e901308" d="M223.6 43.3c.9-.6.9-1.2.1-1.8a10.9 10.9 0 0 1-.1 1.8Z"/><path class="a64e3835-b5df-4bec-823f-39bc591046c9" d="m229.9 46.2.3.4-.2-.5Z"/><path class="bc6e376d-2ea6-4f87-a60a-f2f46630775a" d="M238.4 36.7a10.2 10.2 0 0 0-2.9-1.1 58.5 58.5 0 0 0-5.9.4c-.3 0-.5.6-.8 1s.8.5 1.1.4a10.2 10.2 0 0 1 7.1.2c.3.2.8-.1 1.3-.2Z"/><path class="a37bf46b-8431-474c-9e97-0e3b4dfa9316" d="M185.4 99.2c.9-1.4 29.1-20 30.7-20.2-1 1.3-.3 2.4.3 3.6l4.1 7.3c.5.2 1.1.6 1.4.5l13-6.2 1-.6 1-.4 14-7.6a5.9 5.9 0 0 1 3.9 4.3l-3.3 1.7c-3.2 1.9-6.3 3.9-9.5 5.7s-8 4.8-12.2 6.9-7.6 3.5-11.6 5.3a70.4 70.4 0 0 1-5.8-17.3c-1.7 2.3-3.5 4-4.4 6-2.2 5.2-4 10.6-5.9 15.9a22.2 22.2 0 0 0-.5 4.5c-.4-.1 0 9-.2 9.3-3.8 6.5-18.4 18-28.5 16.8 3.5-.5 4.2-29.6 6.7-31.4 5.8-4.1 2.2 1.9 5.8-4.1Z"/><path class="b392581f-3a12-4168-a0f8-eca896690d75" d="m232.9 70.5-6.1 8.3-1.3 2h8.1l-.1-8.7a5.3 5.3 0 0 0-.4-1.7Z"/><path class="b0fa1a7c-27c0-406e-8d2e-17776e901308" d="M246 44.7c1.5-1.7 1.6-3.1.6-3.9Z"/><path class="bdf54b34-f877-459b-baba-ef8e5212794d" d="M254.5 353.4c-2.7-.8-5.4-1.2-7.9.4v.5a15.6 15.6 0 0 1 8.3-.4Z"/><path class="bc6e376d-2ea6-4f87-a60a-f2f46630775a" d="m230 46.1.2.5h.2c1 .1 2 .2 1.9-1.2a2.2 2.2 0 0 0-1.2-1.1c-1.3-.1-1.1.9-1.1 1.8Z"/><path class="a2fd6e2d-9a5b-4a4d-87b1-f547eb874d20" d="M184 65.1Zm13.9 8.6.2.3-.1-.2v-.2a.1.1 0 0 0-.1.1ZM183.1 52.6l.4 7.2c.1 2.4.3 3.6.5 5.3.8 2 8.2 13.5 8.7 15.1l1.1.3c-.8-1.6-2.3-3.7-2.7-5.1a1.6 1.6 0 0 1 .5-1.4 15.5 15.5 0 0 1 2.2-1.2c2-.9 2.8-.5 3.4 1.6l.7-.9a.1.1 0 0 1 .1-.1l-.7-6.8-.5-5.5a43.5 43.5 0 0 1-.6-5.2 2.8 2.8 0 0 0-2.4-2.9l-8.6-2.4c-1.9-.3-2.2 0-2.1 2Zm12.5 5.4h-.5a9.1 9.1 0 0 0-.1-1.7v-.7h.2v.6l.4 1.8Zm-11.7-4.7c.1-.4.8-.6 1.1-.5a1 1 0 0 1 .9.9 1 1 0 0 1-1 .8 1.2 1.2 0 0 1-1-1.2Zm0-1.7a.8.8 0 0 1 .1-.4l10.1 2.9-.1.4Z"/><path class="a2fd6e2d-9a5b-4a4d-87b1-f547eb874d20" d="M191.1 75.6c.4 1.4 1.9 3.5 2.7 5.1l2.8.7c.8.2 1.5.3 1.8-.8l-.9-1.1.3-.2.7.4v-1.6l-.4-4.1-.2-.3-.7.9c-.6-2.1-1.4-2.5-3.4-1.6a15.5 15.5 0 0 0-2.2 1.2 1.6 1.6 0 0 0-.5 1.4Z"/><path d="M184.7 77.5a25.3 25.3 0 0 1 1.2 2.3c1 2.2.9 3.8.9 6.4l.1 9.2c3-.1 6.9-11.8 7.2-14l-.3-.7c-.8-1.6-2.3-3.7-2.7-5.1a1.6 1.6 0 0 1 .5-1.4 15.5 15.5 0 0 1 2.2-1.2c2-.9 2.8-.5 3.4 1.6l.7-.9a.1.1 0 0 1 .1-.1c1.5-.6.2-1.9.7-2.7s.1-3.1-1.4-4.1h-.1l-1.1-1.4c-.1.1-.5.6-.8.6s-.3-.5-.2-.8-.4-.6-.7-.8l-3.4-2.2a2.8 2.8 0 0 0-2.8 0l-4.1 3h-.1c-1.4 4.3-1.8 8.4.7 12.3Zm2.8-10.9c1.9-2.3 2-2.3 6-1.2Z" style="fill:#d3aa8e"/><path class="a2fd6e2d-9a5b-4a4d-87b1-f547eb874d20" d="M184 65.1Zm13.9 8.6.2.3-.1-.2v-.2a.1.1 0 0 0-.1.1Z"/><path class="a37bf46b-8431-474c-9e97-0e3b4dfa9316" d="M170.1 131.5c-1.1-2-1.5-4.4-2.2-6.7s0-3.4.2-5.1a40.4 40.4 0 0 1 4.1-14l4.6-9.4.6-1.1.3-.6a5.1 5.1 0 0 1 .9 1.6l3.1 23.3 1.2 8.6a15.1 15.1 0 0 0 .5 2.8l-4.1 2.1-1.3.6-.9.3c-5.1 1.6-5.1 1.4-7-2.4Z"/><path d="M193.9 97.4c-.2 1.6 0 3.3-.1 4.9-.3 7-1.2 13.8-4.3 20.2a19.1 19.1 0 0 1-5.8 7.6 10.4 10.4 0 0 1-.8-2l-1.2-8.6-3.1-23.3a5.1 5.1 0 0 0-.9-1.6l6.8-10.6c1.3 1.8 3.3 1.9 5.2 1.8a14.7 14.7 0 0 0 3.5-.8c.3 3.3.9 11.5.7 12.4Z" style="fill:#1a857b"/><path class="a37bf46b-8431-474c-9e97-0e3b4dfa9316" d="m194.2 81.3-3.2.7c-2.7.8-2.7.8-4.5-1.4l-.6-.8-1.4 4.2c1.3 1.8 3.3 1.9 5.2 1.8a14.7 14.7 0 0 0 3.5-.8l1-3.7ZM274.9 121.3a7.1 7.1 0 0 0-.1-1.4v-1.7l-2.2-22c-2.3-10.3-14.5-12.5-14.6-12.5-6.4 4.8-21.6 37.3-25.6 44.2-2 3.4 17.8 2.8 18.2 6.2a8.8 8.8 0 0 0 .5 1.5l2.5 12.4.7 2.9 4.2 16 1 3 1.5 3.5c.4.9 2.6 12.1 3.1 12.8 2.5 0 11.1 1.9 13.6 1.9.7 0 1.1-26.1.2-31.3l.5-16v-4.7"/><path d="m201.5 183.1 1.8.7c5.6.2 11.3.6 17 .6 8.6.1 17.1-1.2 25.5-2.7l4.9-.9h.2l.3-1.7v-.8l-.3-1.2v-.5l-.3-1.5-.2-1-.2-1.3v-.7l-.2-2-.2-1.6-.2-2.1v-1.3l-.3-5.3v-4.3l.3-4.3.2-1.3v-2.4l.3-1.3v-.7l.3-1.1v-.6l.3-.8v-.5l.6-1.8 1.4-3.8c-1.2-3.2-2.5-6.3-3.6-9.5s-3.2-7.4-3.5-11.2a32.2 32.2 0 0 1 1.4-11.5 61 61 0 0 1 11.3-20.8l-3.7-4.3a20.6 20.6 0 0 0-3.3 1.7L242 87c-4 2.3-8 4.7-12.2 6.8s-7.6 3.5-11.6 5.3a69.7 69.7 0 0 1-5.8-17.2c-1.7 2.2-3.5 3.9-4.4 6-2.2 5.2-4 10.5-5.9 15.9a21.2 21.2 0 0 0-.5 4.4l-.4 7.3c-.2 7.4-.5 14.7-.4 22.1.1 9.6.5 19.3.8 28.9a22.5 22.5 0 0 1 0 2.6l-.1 14Z" style="fill:#0a877d"/><path class="bd39ad3b-6702-4eb4-bed2-842b204616f4" d="M143.5 152.9c.3.2.4.4.6.4l.4-.3-.4-.4c-.2-.1-.3.1-.6.3ZM364.2 155.5l.2 1.3h2.2l-.1-1.3Z"/><path class="a8d2fec7-c164-4dc9-85e5-4c776fa2b554" d="m324.5 172.7 2.9-12.9s57.8.7 58.7 1.3 24.6 2.6 71 31.1v4.8c-42.7-6.2-86.6-13.3-129.3-19.5a3.9 3.9 0 0 1-3.3-4.8Z"/><path class="bdf54b34-f877-459b-baba-ef8e5212794d" d="M202.3 349.3c-1.5 0-2.1 1.5-3.2 2.2a6 6 0 0 1 .9 1.3 2.5 2.5 0 0 1 .2 1.2l-1.1-.4-.2-.2-2 1.2a7.6 7.6 0 0 1 .8 1.1 1.4 1.4 0 0 1-.1.9 1.1 1.1 0 0 1-.8-.2 7.3 7.3 0 0 1-.8-.9l-4.1 3.3.5.7 7.7 4.6a3.3 3.3 0 0 0 2 .1l9.3-1.3c2.3-.3 4.7-.4 7-.8.6 0 1.1-.6 1.6-.9a29.5 29.5 0 0 0-1.7-10.6 6.7 6.7 0 0 0-.6-1.2 6.1 6.1 0 0 1-3.6 3.1 19.1 19.1 0 0 1-7.9.5 8.4 8.4 0 0 1-2.8-.9c-1.6-.8-1.7-1.3-1.1-2.8Z"/><path class="bdf54b34-f877-459b-baba-ef8e5212794d" d="M195.2 354.5c-2.9 2.1-5.8 4.4-9.5 4.8l-8.3.7a24.6 24.6 0 0 0-2.6.2 11.9 11.9 0 0 0-1.5.9 1.8 1.8 0 0 0 1.6 2.1l2.2.7c3.7.7 7.3 1.6 11.2 1.5 2.2 0 4.4.2 6.6.1a23.1 23.1 0 0 0 4.3-.8 1.4 1.4 0 0 1-.4-.4l-6.4-3.8c-1.6-1-1.7-1.4-.3-2.8s2.3-1.9 3.4-2.8Z"/><path class="bdf54b34-f877-459b-baba-ef8e5212794d" d="m194.3 368.1 14-2.1a11.3 11.3 0 0 0 .4 1.5l2.6-.2 6.5-.3c2.4-.3 2.5-.4 2.8-2.9a8.8 8.8 0 0 1-.2-1.6l-7.5 1.1c-2.5.4-5 .5-7.4.9s-6.1 1.4-9.2 1.7a56.5 56.5 0 0 1-9.2.1c-5.1-.5-10.3-.8-14.7-3.9l.1 1.6a7.3 7.3 0 0 0 4.4 2.3 67.7 67.7 0 0 0 17.4 1.8Z"/><path class="a4225a4a-e397-4485-bbf9-0b8a3c4dfd18" d="M172.4 362.4c4.4 3.1 9.6 3.4 14.7 3.9a56.5 56.5 0 0 0 9.2-.1c3.1-.3 6.1-1.2 9.2-1.7s4.9-.5 7.4-.9l7.5-1.1-.4-1.3c-.1-.4-1 .9-1.6.9-2.3.4-4.7.5-7 .8l-9.3 1.3a3.3 3.3 0 0 1-2-.1l-7.7-4.6-.5-.7 4.1-3.3-.5-.6c-1.1.9-2.4 1.8-3.4 2.8s-1.3 1.8.3 2.8l6.4 3.8a1.4 1.4 0 0 0 .4.4 23.1 23.1 0 0 1-4.3.8c-2.2.1-4.4-.1-6.6-.1-3.9.1-7.5-.8-11.2-1.5l-2.2-.7a1.8 1.8 0 0 1-1.6-2.1Z"/><path class="b6f31c3e-7092-4991-9b9b-8db6fa8e01c9" d="m195.5 354.9.5.6a7.3 7.3 0 0 0 .8.9 1.1 1.1 0 0 0 .8.2 1.4 1.4 0 0 0 .1-.9 7.6 7.6 0 0 0-.8-1.1l-.7-1c-1-.5-1 .2-1 .9ZM198.9 353.4l.2.2 1.1.4a2.5 2.5 0 0 0-.2-1.2 6 6 0 0 0-.9-1.3c-.7-.2-1.5-.6-1.2.7Z"/><path class="a4225a4a-e397-4485-bbf9-0b8a3c4dfd18" d="m198.9 353.4-1-1.2-1.7 1.4.7 1ZM252.7 349.6l.3 9.5 5.2-.8.2.5-5.6 1.2s-.9.3-.8-.3-.4-10.9-.4-10.9ZM248.6 350.1l.6 9.5-5.2-.4-.2.5 5.7.8s.9.2.7-.4-.5-10.9-.5-10.9Z"/><path class="b6f31c3e-7092-4991-9b9b-8db6fa8e01c9" d="M246.6 354.3c-.8.5-2.1.5-1.6 2.2l1.2-.4c2.8-1.7 5.7-1.5 8.8-.7a5.7 5.7 0 0 0 1.9.1l-1.6-1.4-.4-.2a15.6 15.6 0 0 0-8.3.4Z"/><path class="b6f31c3e-7092-4991-9b9b-8db6fa8e01c9" d="M254.5 353.4c1.2-.4 1-.9.1-1.3a9.7 9.7 0 0 0-8.3.2c-1 .5-1 1.2.3 1.5 2.5-1.6 5.2-1.2 7.9-.4Z"/><path d="m277.8 187.7-14.1-2.9a16.7 16.7 0 0 1-.8 3.2 1.9 1.9 0 0 0 .7 2.4h.1c.3-.1.7-.3 1-.2l10.1 2.6 1.8-.2 1-3.6a5.9 5.9 0 0 1 .2-1.3Z" style="fill:#e5e5e5"/><path class="a44db3ef-0f14-43b8-978a-a14c41bb1d83" d="m219 214.3-.7-.7h-1.1l-.4 33-.4 28.7c1.1 1.3 3.3 3 5.3 3h23.4l16.8.2 13.1.3h29.8c7.6.1 7.5-5.4 7.6-6 .5-2.5.9-46.5.8-54.4-.3-2.4-11.7-1.8-13.3-1.8-4.1.5-77.5-.6-80.9-2.3Z"/><path class="eae34f2b-e462-47ea-8cc3-73be79c0599e" d="M216.3 271.7c0 .2.2.5.1.8-.8 2.8 1 4.1 3.2 5.2l.2-9.6.2-10.5.3-13.4.2-12.4c.1-4.2-.1-7.3.3-11s-.4-3.6-3.5-5.1l-.8 47.7-.2 8.3Z"/><path class="b2e2fc16-80a7-4f11-84cf-747ac9533695" d="m221.9 232.3-.4 10.1c1.6 1.4 3.6 1.4 5.6 1.4l8.6.2h2.2l10.5-.2c1 0 2.2.8 2.9.4s25.5.2 28.8.3c1.8.1 3.8-.8 5.4-.3s5-.8 7.5.1 18.8 1.6 20.1.6.1-23.5.1-24.1v-.8c.8-2-3-5.4-6.2-5.4l-25.6-.4c.2 2.5-.2 2.8-2.6 2.6H277c-2.4.1-3-.6-2.8-2.9h-15.3c0 2.2-.4 2.6-2.6 2.6h-3.1c-2-.2-2.3-.6-2-2.7l-14.5-.3h-18.4v.3l.7.7c3.4 1.7 3.3 4.7 3.1 7.8s-.2 6.6-.2 10Z"/><path class="eae34f2b-e462-47ea-8cc3-73be79c0599e" d="M217.2 213.7h1.1v-.3Z"/><path d="M276.7 204.1a39.4 39.4 0 0 0-1.9-11.3l-10.1-2.6c-.3-.1-.7.1-1 .2a9.5 9.5 0 0 1-2 1.5 6.9 6.9 0 0 0-3.9 4.6l-2.3 7.3h3.6l-.4 3.3c-.1 1 .4 2.8 3.3 3 .7 3.9 3.1 3.4 5.1 1.8 1.9 1.7 2.3 1.7 4.7-.1 2.5 1.5 3.9.7 4.1-2.2a20.1 20.1 0 0 0 .1-2.5l.7-3Z" style="fill:#ebb592"/><path class="a3f226a7-788c-4d96-b6e0-1418478cfd13" d="M251.2 213.7c-.3 2.1 0 2.5 2 2.7h3.1c2.2 0 2.6-.4 2.6-2.6l-2.2-.8h-2.8Z"/><path class="a44db3ef-0f14-43b8-978a-a14c41bb1d83" d="m258.7 207.2.4-3.3h-3.6a8.2 8.2 0 0 0-2.3 1.1c-.2.2.4 1.2.7 1.8l3.7.5Z"/><path class="a8b43bf7-66e8-4d90-ba4f-0f7b16da14e8" d="m257.6 207.2-3.7-.5v6.5h2.8a12.1 12.1 0 0 1 0-1.9c.2-1.4-.5-3 .9-4.1Z"/><path class="f30b8ed1-bff7-4dda-937c-433c91fa7c05" d="M312.1 219.9a1.8 1.8 0 0 0-1.8-1.3l-25.8-.4h-21L253 218l-9.6-.2h-7.8c-3-.1-5.9-.2-8.9-.1-.8 0-2.3-.5-2.4.9s1.5 1.3 2.3 1.3c5.3.2 10.6.1 15.9.2l13.5.3h14.1l15.8.4 25.8.4a.5.5 0 0 0 .5-.6l-.1-.7Z"/><path class="eae34f2b-e462-47ea-8cc3-73be79c0599e" d="M312.9 265c-.4-.7.2-9.9.1-14.1-.1-2.4.2-4.6 0-7-1.3.9-45.1.1-46.3.1h-18.3l-10.5.2h-2.2l-8.6-.2c-2 0-4 0-5.6-1.4l-.3 9-.2 9.9c0 1.3.4 1.8 1.8 1.7h11.8l7.6.2 7.9.2 8.9.2h6.6l11.2.2h8.3l12.5.3Z"/><path class="a3f226a7-788c-4d96-b6e0-1418478cfd13" d="m276.6 213.6-2.4.4c-.2 2.3.4 3 2.8 2.9h1.8c2.5.2 2.8-.1 2.6-2.6l-2.2-.9Z"/><path class="f30b8ed1-bff7-4dda-937c-433c91fa7c05" d="M221.7 278.4ZM228 278.5ZM231.4 278.5ZM234.4 278.6ZM225 278.5ZM237.4 278.6Z"/><path class="a8b43bf7-66e8-4d90-ba4f-0f7b16da14e8" d="m276.6 213.6 2.6-.3.2-6-2.7.2-.1 6.1Z"/><path class="b2e2fc16-80a7-4f11-84cf-747ac9533695" d="m276.7 207.5 2.7-.2a4.7 4.7 0 0 0 .7-2.2c0-.3-1.1-.5-1.8-.7a9 9 0 0 0-1.6-.3l-.7 3.1Z"/></svg>